<svg width="277" height="111" viewBox="0 0 277 111" fill="none" xmlns="http://www.w3.org/2000/svg">
<path d="M63.6924 79.692L16.1541 103.461L57.9232 65.1536L48.9232 44.6152L56.7693 29.6152L90 103.461H75.2308L63.6924 79.692Z" fill="#0155A1"/>
<path d="M12 103.461H0L48.9229 13L55.3844 25.2307L12 103.461Z" fill="white"/>
<path d="M121.016 67L118.904 56.056H109.048L107 67H99.64L108.728 23.16H119.416L128.44 67H121.016ZM110.264 49.528H117.624L113.912 30.072L110.264 49.528ZM132.519 23.16H140.199V67H132.519V23.16ZM149.351 23.16H157.607L149.159 44.6L158.247 67H149.735L141.095 44.728L149.351 23.16ZM160.347 32.888C160.347 29.688 161.414 27.2133 163.547 25.464C165.68 23.7147 168.731 22.84 172.699 22.84C176.71 22.84 179.824 23.2453 182.043 24.056V31.416C179.568 30.4347 176.646 29.944 173.275 29.944C169.904 29.944 168.219 31.224 168.219 33.784V35.512C168.219 36.792 168.454 37.7947 168.923 38.52C169.392 39.2027 170.31 39.9067 171.675 40.632L179.035 44.792C182.491 46.6693 184.219 49.528 184.219 53.368V57.144C184.219 60.3867 183.046 62.904 180.699 64.696C178.352 66.4453 175.003 67.32 170.651 67.32C166.299 67.32 163.035 66.8507 160.859 65.912V58.488C163.59 59.64 166.683 60.216 170.139 60.216C174.363 60.216 176.475 58.8933 176.475 56.248V54.584C176.475 53.4747 176.24 52.6213 175.771 52.024C175.344 51.384 174.534 50.744 173.339 50.104L166.299 46.264C162.331 44.088 160.347 40.952 160.347 36.856V32.888ZM189.206 23.16H210.262V29.88H196.886V41.464H208.47V48.184H196.886V60.28H210.262V67H189.206V23.16ZM215.581 23.16H223.325V60.472H235.677V67H215.581V23.16ZM239.456 23.16H247.2V60.472H259.552V67H239.456V23.16Z" fill="white"/>
<path d="M111.76 81.88C111.76 80.36 110.933 79.6 109.28 79.6H105.96V98.84H109.28C110.933 98.84 111.76 97.9867 111.76 96.28V81.88ZM101.16 75.6H109.88C112.013 75.6 113.653 76.1333 114.8 77.2C115.973 78.24 116.56 79.7467 116.56 81.72V96.64C116.56 100.88 114.413 103 110.12 103H101.16V75.6ZM120.496 75.6H133.656V79.8H125.296V87.04H132.536V91.24H125.296V98.8H133.656V103H120.496V75.6ZM147.9 75.6H152.9L147.42 103H140.7L135.14 75.6H140.06L142.38 87.92C142.62 89.28 142.94 91.3467 143.34 94.12C143.767 96.8933 144.02 98.4267 144.1 98.72C144.207 98.2133 144.46 96.5467 144.86 93.72C145.26 90.8933 145.54 88.9733 145.7 87.96L147.9 75.6ZM155.379 75.6H168.539V79.8H160.179V87.04H167.419V91.24H160.179V98.8H168.539V103H155.379V75.6ZM171.863 75.6H176.703V98.92H184.423V103H171.863V75.6ZM197.145 82.28C197.145 80.4667 196.145 79.56 194.145 79.56C192.172 79.56 191.185 80.4667 191.185 82.28V96.32C191.185 98.1333 192.172 99.04 194.145 99.04C196.145 99.04 197.145 98.1333 197.145 96.32V82.28ZM186.385 82.04C186.385 79.96 187.038 78.3067 188.345 77.08C189.652 75.8267 191.585 75.2 194.145 75.2C196.705 75.2 198.638 75.8267 199.945 77.08C201.278 78.3067 201.945 79.96 201.945 82.04V96.56C201.945 98.64 201.278 100.307 199.945 101.56C198.638 102.787 196.705 103.4 194.145 103.4C191.585 103.4 189.652 102.787 188.345 101.56C187.038 100.307 186.385 98.64 186.385 96.56V82.04ZM215.928 82.2C215.928 80.6 215.088 79.8 213.408 79.8H210.688V90.36H213.408C215.088 90.36 215.928 89.5467 215.928 87.92V82.2ZM205.848 75.6H213.928C216.088 75.6 217.754 76.1333 218.928 77.2C220.128 78.2667 220.728 79.7733 220.728 81.72V88.4C220.728 90.3467 220.128 91.8533 218.928 92.92C217.754 93.9867 216.088 94.52 213.928 94.52H210.688V103H205.848V75.6ZM224.168 75.6H237.328V79.8H228.968V87.04H236.208V91.24H228.968V98.8H237.328V103H224.168V75.6ZM245.452 92.68V103H240.652V75.6H248.732C250.892 75.6 252.559 76.1333 253.732 77.2C254.932 78.24 255.532 79.7333 255.532 81.68V86.36C255.532 89.4533 254.412 91.4 252.172 92.2L256.492 103H251.212L247.412 92.68H245.452ZM245.452 79.72V88.8H248.252C249.132 88.8 249.759 88.6133 250.132 88.24C250.532 87.84 250.732 87.2 250.732 86.32V82.04C250.732 80.4933 249.906 79.72 248.252 79.72H245.452ZM258.279 81.68C258.279 79.68 258.946 78.1333 260.279 77.04C261.613 75.9467 263.519 75.4 265.999 75.4C268.506 75.4 270.453 75.6533 271.839 76.16V80.76C270.293 80.1467 268.466 79.84 266.359 79.84C264.253 79.84 263.199 80.64 263.199 82.24V83.32C263.199 84.12 263.346 84.7467 263.639 85.2C263.933 85.6267 264.506 86.0667 265.359 86.52L269.959 89.12C272.119 90.2933 273.199 92.08 273.199 94.48V96.84C273.199 98.8667 272.466 100.44 270.999 101.56C269.533 102.653 267.439 103.2 264.719 103.2C261.999 103.2 259.959 102.907 258.599 102.32V97.68C260.306 98.4 262.239 98.76 264.399 98.76C267.039 98.76 268.359 97.9333 268.359 96.28V95.24C268.359 94.5467 268.213 94.0133 267.919 93.64C267.653 93.24 267.146 92.84 266.399 92.44L261.999 90.04C259.519 88.68 258.279 86.72 258.279 84.16V81.68Z" fill="#0155A1"/>
</svg>
