<svg width="20" height="20" viewBox="0 0 20 20" fill="none" xmlns="http://www.w3.org/2000/svg">
<path fill-rule="evenodd" clip-rule="evenodd" d="M3.78323 1.66667H6.5999C7.7749 1.66667 8.71657 2.62501 8.71657 3.80084V6.64167C8.71657 7.825 7.7749 8.775 6.5999 8.775H3.78323C2.61656 8.775 1.66656 7.825 1.66656 6.64167V3.80084C1.66656 2.62501 2.61656 1.66667 3.78323 1.66667ZM3.78323 11.2248H6.5999C7.7749 11.2248 8.71657 12.1756 8.71657 13.3589V16.1998C8.71657 17.3748 7.7749 18.3331 6.5999 18.3331H3.78323C2.61656 18.3331 1.66656 17.3748 1.66656 16.1998V13.3589C1.66656 12.1756 2.61656 11.2248 3.78323 11.2248ZM16.2166 1.66667H13.4C12.225 1.66667 11.2833 2.62501 11.2833 3.80084V6.64167C11.2833 7.825 12.225 8.775 13.4 8.775H16.2166C17.3833 8.775 18.3333 7.825 18.3333 6.64167V3.80084C18.3333 2.62501 17.3833 1.66667 16.2166 1.66667ZM13.4 11.2248H16.2166C17.3833 11.2248 18.3333 12.1756 18.3333 13.3589V16.1998C18.3333 17.3748 17.3833 18.3331 16.2166 18.3331H13.4C12.225 18.3331 11.2833 17.3748 11.2833 16.1998V13.3589C11.2833 12.1756 12.225 11.2248 13.4 11.2248Z" fill="white"/>
</svg>
