<svg width="367" height="188" viewBox="0 0 367 188" fill="none" xmlns="http://www.w3.org/2000/svg">
<path d="M330.755 187.14C330.655 187.334 330.553 187.528 330.451 187.722L20.7288 187.628C20.7288 187.628 20.5808 187.47 20.306 187.158L20.289 187.14C12.2558 177.926 4.96677 164.299 1.86905 150.827C-2.64786 131.321 1.1644 112.186 13.7173 94.544C27.5288 75.1269 46.3913 59.7043 70.3077 60.0113H70.3303C83.0861 60.181 95.2966 64.8414 105.986 71.9695C116.143 78.7442 133.75 71.6652 144.367 64.3983C156.8 55.9285 167.326 43.5329 175.42 30.8891C204.006 -13.6711 271.183 -5.79996 302.915 27.7373C319.764 45.5112 326.388 69.6322 319.255 97.4196C317.916 102.635 317.167 108.075 317.484 113.466C319.172 142.866 350.376 149.394 330.755 187.14Z" fill="#F0F7FF"/>
<g opacity="0.5">
<path d="M319.253 97.4159C318.717 99.4837 318.289 101.577 317.969 103.689C317.746 105.191 317.591 106.64 317.504 108.035V108.126H195.97V27.7378H302.913C304.335 29.2333 305.691 30.7901 306.982 32.4081C320.004 48.6944 326.113 70.6969 319.253 97.4159Z" fill="#D8E8FC"/>
<path d="M319.253 97.4159C318.718 99.4836 318.289 101.577 317.969 103.689H201.018V32.408H306.982C320.004 48.6943 326.114 70.6968 319.253 97.4159Z" fill="#B1D2F9"/>
<path d="M317.48 113.462C317.378 111.687 317.384 109.908 317.498 108.134V108.043H193.009C191.787 108.049 190.616 108.528 189.743 109.379C188.87 110.23 188.365 111.386 188.334 112.601C188.334 112.649 188.334 112.695 188.334 112.741V113.465L317.48 113.462Z" fill="#B1D2F9"/>
</g>
<path d="M207.065 99.6514C207.065 99.6514 203.209 98.182 200.985 100.034C198.761 101.886 197.238 111.417 198 113.195C198.762 114.973 200.985 116.032 200.985 116.032C200.985 116.032 200.52 114.984 200.689 114.17C200.689 114.17 201.325 116.229 203.019 116.622C204.713 117.015 210.746 116.529 211.913 116.032C213.262 115.458 214.027 114.864 214.369 113.195C214.712 111.527 216.068 96.7141 207.065 99.6514Z" fill="#B5493F"/>
<path d="M225.72 187.123C225.691 187.125 225.661 187.125 225.632 187.123C225.521 187.128 225.412 187.096 225.321 187.031C225.231 186.967 225.165 186.874 225.134 186.768L219.486 162.474L219.075 160.704L221.006 160.62L221.638 163.932L225.992 186.785C225.998 186.825 225.996 186.866 225.985 186.905C225.974 186.945 225.955 186.981 225.93 187.013C225.904 187.044 225.873 187.07 225.837 187.089C225.801 187.108 225.761 187.12 225.72 187.123Z" fill="#E5BD9E"/>
<path d="M197.016 160.708L196.086 164.707L190.956 186.774C190.925 186.88 190.859 186.973 190.768 187.037C190.678 187.102 190.568 187.134 190.457 187.129C190.428 187.131 190.398 187.131 190.369 187.129C190.329 187.125 190.29 187.114 190.254 187.095C190.219 187.076 190.188 187.05 190.163 187.019C190.138 186.988 190.119 186.952 190.108 186.913C190.097 186.875 190.094 186.835 190.099 186.795L194.74 162.43L195.086 160.63L197.016 160.708Z" fill="#E5BD9E"/>
<path d="M197.016 160.709L196.086 164.708C196.058 164.249 195.922 163.803 195.688 163.406C195.454 163.009 195.129 162.673 194.74 162.425L195.086 160.625L197.016 160.709Z" fill="#CC9E7F"/>
<path d="M221.634 163.936C220.678 162.534 219.52 162.534 219.483 162.48L219.073 160.71L221.004 160.626L221.634 163.936Z" fill="#CC9E7F"/>
<path d="M193.176 160.884H221.148C221.812 160.884 222.449 160.622 222.918 160.155C223.387 159.688 223.651 159.054 223.651 158.394V156.395C223.651 155.734 223.387 155.1 222.918 154.633C222.448 154.166 221.811 153.903 221.147 153.903H193.176C192.512 153.903 191.875 154.166 191.405 154.633C190.935 155.1 190.671 155.734 190.671 156.395V158.395C190.672 158.722 190.736 159.046 190.862 159.348C190.988 159.65 191.173 159.925 191.405 160.156C191.638 160.387 191.914 160.57 192.218 160.695C192.522 160.82 192.847 160.884 193.176 160.884Z" fill="#C65447"/>
<path d="M216.95 145.685C216.122 141.095 213.709 135.871 213.709 135.871C215.465 128.552 213.672 120.322 213.672 120.322C212.706 120.064 211.723 119.877 210.729 119.761C210.605 119.108 210.25 117.144 210.099 115.453C210.083 115.256 210.069 115.064 210.057 114.877C210.026 114.451 210.024 114.024 210.05 113.598L208.814 113.679L203.722 114.017L203.507 114.031C203.507 114.031 203.538 114.485 203.545 115.171C203.562 116.401 203.501 118.371 203.057 119.782C200.867 120.008 199.383 120.326 199.383 120.326C197.95 120.569 198.255 129.448 200.933 136.351C202.166 139.528 198.678 144.445 198.678 145.688C198.678 146.932 217.25 147.344 216.95 145.685Z" fill="#FFB27D"/>
<path d="M210.095 115.45C209.617 116.011 208.404 117.212 206.876 117.239C204.876 117.274 203.54 115.168 203.54 115.168C203.573 114.78 203.632 114.394 203.718 114.014L208.81 113.676C209.244 114.055 209.659 114.454 210.053 114.874C210.065 115.06 210.079 115.252 210.095 115.45Z" fill="#EF9E67"/>
<path d="M206.841 116.049C204.07 116.049 201.803 113.771 201.803 110.986V106.767C201.801 105.868 202.157 105.005 202.793 104.366C203.428 103.727 204.293 103.365 205.196 103.357H208.252C209.156 103.365 210.02 103.727 210.656 104.366C211.291 105.005 211.647 105.868 211.645 106.767V111.22C211.648 112.493 211.144 113.716 210.244 114.62C209.344 115.525 208.121 116.039 206.841 116.049Z" fill="#FFB27D"/>
<path d="M205.176 112.904C205.176 112.904 205.281 113.574 206.915 113.597C206.915 113.597 208.288 113.615 208.301 112.896C208.301 112.89 207.016 112.275 205.176 112.904Z" fill="white"/>
<path d="M193.144 153.902C193.144 153.902 196.527 146.018 199.637 144.477C202.748 142.936 215.098 144.305 216.952 145.686C218.807 147.067 221.18 153.902 221.18 153.902H193.144Z" fill="#22356B"/>
<path d="M196.235 153.901C196.235 153.901 197.444 149.172 200.133 148.966C202.822 148.76 206.412 151.261 207.687 150.587C208.962 149.912 211.399 148.226 213.66 148.656C215.92 149.086 219.321 153.901 219.321 153.901H196.235Z" fill="#1B2E59"/>
<path d="M210.978 183.377L207.778 183.604C207.778 183.604 205.983 178.557 203.973 172.668C203.787 172.117 203.596 171.559 203.41 170.995C201.751 166.088 200.053 160.867 199.182 157.636C198.973 156.862 198.817 156.16 198.708 155.521C197.74 149.938 200.233 149.324 200.822 149.178C201.486 149.017 205.49 146.878 208.21 154.085C209.129 156.511 210.623 163.259 210.575 169.648C210.542 175.787 210.978 183.377 210.978 183.377Z" fill="#FFB27D"/>
<path d="M203.98 172.671C203.794 172.12 203.602 171.562 203.416 170.998C201.757 166.091 200.059 160.87 199.188 157.639C198.979 156.865 198.823 156.163 198.714 155.523C198.798 155.751 204.163 170.22 208.745 171.051C211.685 171.585 207.445 172.256 203.98 172.671Z" fill="#EF9E67"/>
<path d="M210.978 183.377L207.77 184.078L206.953 184.259C206.953 184.259 205.631 177.573 203.412 170.997C204.825 171.073 206.242 170.936 207.614 170.592C208.532 170.369 209.426 170.056 210.283 169.658C210.938 176.462 210.978 183.377 210.978 183.377Z" fill="#E9F3FE"/>
<path d="M207.772 184.08L206.955 184.261C206.955 184.261 205.633 177.575 203.415 170.999C204.827 171.075 206.244 170.938 207.616 170.594C207.616 170.594 206.542 180.457 207.772 184.08Z" fill="#C7DCF2"/>
<path d="M211.694 185.148C211.736 185.299 211.773 185.44 211.804 185.569C211.821 185.636 211.825 185.706 211.814 185.775C211.804 185.843 211.78 185.909 211.743 185.969C211.706 186.028 211.658 186.079 211.601 186.12C211.545 186.16 211.48 186.189 211.412 186.204L207.684 187.007C207.552 187.036 207.413 187.011 207.299 186.938C207.185 186.866 207.104 186.752 207.074 186.62C207.022 186.383 206.982 186.144 206.954 185.904C206.888 185.359 206.888 184.808 206.954 184.263C206.963 184.186 206.99 184.112 207.033 184.046C207.075 183.981 207.132 183.926 207.199 183.886C208.924 182.877 210.2 183.045 210.675 183.158C210.738 183.174 210.797 183.201 210.85 183.239C210.902 183.278 210.946 183.326 210.979 183.381C211.289 183.939 211.529 184.532 211.694 185.148Z" fill="#22356B"/>
<path d="M210.805 183.287C210.805 183.287 210.191 182.638 208.911 182.772C208.54 182.81 208.184 182.938 207.875 183.146C207.565 183.353 207.312 183.633 207.138 183.961L206.97 184.191C206.993 184.141 207.495 182.713 208.89 182.566C209.279 182.513 209.676 182.56 210.042 182.702C210.408 182.843 210.732 183.076 210.983 183.377L210.805 183.287Z" fill="#22356B"/>
<path d="M211.694 185.148C211.736 185.299 211.773 185.439 211.804 185.568C211.821 185.636 211.825 185.706 211.814 185.775C211.804 185.843 211.78 185.909 211.743 185.969C211.706 186.028 211.658 186.079 211.601 186.12C211.545 186.16 211.48 186.189 211.412 186.204L207.684 187.007C207.552 187.035 207.413 187.011 207.299 186.938C207.185 186.866 207.104 186.751 207.074 186.62C207.022 186.383 206.982 186.144 206.954 185.904C206.954 185.904 207.377 186.696 209.645 186.176C211.01 185.857 211.512 185.432 211.694 185.148Z" fill="#22356B"/>
<path d="M222.536 139.681L217.37 139.765C216.974 138.862 216.285 135.852 215.602 134.035C215.856 135.145 216.106 136.291 216.338 137.416C217.25 141.788 217.941 145.899 217.833 146.779C217.588 148.784 209.792 147.881 207.782 147.399C205.772 146.917 201.203 148.02 197.547 147.95C195.446 147.911 196.09 142.028 197.016 137.045C197.236 135.849 197.476 134.703 197.697 133.705C196.516 136.066 195.979 138.978 195.693 139.765C195.693 139.765 190.646 139.438 190.645 139.426C190.473 138.528 192.374 124.337 196.24 121.437C197.015 120.821 197.908 120.369 198.865 120.109C199.822 119.849 200.823 119.787 201.805 119.927C201.805 119.927 203.073 122.197 206.738 122.368C207.793 122.427 208.847 122.246 209.821 121.838C210.795 121.43 211.662 120.806 212.357 120.014C212.357 120.014 215.419 120.09 216.657 121.437C217.894 122.785 220.637 127.615 222.536 139.681Z" fill="#2B478B"/>
<path d="M217.83 146.779C217.584 148.784 209.788 147.881 207.778 147.398C205.768 146.916 201.199 148.02 197.544 147.949C195.442 147.91 196.086 142.027 197.012 137.044C197.012 137.044 200.974 144.014 205.912 143.966C210.851 143.919 216.341 137.416 216.341 137.416C217.25 141.787 217.937 145.898 217.83 146.779Z" fill="#233F77"/>
<path d="M203.348 118.448C203.348 118.448 205.066 121.839 206.741 122.373C206.741 122.373 204.36 123.278 200.89 119.862C201.14 119.433 201.498 119.076 201.929 118.828C202.361 118.58 202.85 118.449 203.348 118.448Z" fill="#E6F1FF"/>
<path d="M210.563 118.448C210.563 118.448 208.413 121.839 206.74 122.373C206.74 122.373 209.482 123.475 212.951 120.06C212.951 120.056 212.33 118.486 210.563 118.448Z" fill="#E6F1FF"/>
<path d="M206.498 122.358C206.499 122.305 206.517 122.253 206.548 122.21C206.579 122.166 206.622 122.133 206.672 122.113C206.722 122.094 206.777 122.09 206.829 122.101C206.882 122.113 206.93 122.139 206.967 122.177C207.005 122.216 207.03 122.264 207.04 122.317C207.05 122.369 207.044 122.424 207.023 122.473C207.002 122.522 206.967 122.564 206.922 122.594C206.877 122.623 206.825 122.639 206.771 122.639C206.698 122.637 206.628 122.606 206.577 122.554C206.526 122.501 206.498 122.431 206.498 122.358Z" fill="#35488B"/>
<path d="M206.221 129.332C206.222 129.23 206.253 129.13 206.311 129.045C206.368 128.96 206.45 128.894 206.545 128.855C206.64 128.816 206.745 128.806 206.846 128.827C206.947 128.847 207.04 128.897 207.112 128.969C207.185 129.042 207.235 129.134 207.254 129.235C207.274 129.335 207.264 129.44 207.224 129.534C207.185 129.629 207.118 129.71 207.032 129.767C206.946 129.824 206.846 129.854 206.743 129.854C206.604 129.853 206.472 129.798 206.374 129.7C206.276 129.602 206.221 129.47 206.221 129.332Z" fill="#233F77"/>
<path d="M206.221 137.713C206.222 137.611 206.253 137.511 206.311 137.426C206.369 137.341 206.451 137.276 206.546 137.237C206.642 137.198 206.746 137.189 206.847 137.209C206.948 137.23 207.04 137.279 207.113 137.352C207.185 137.425 207.235 137.517 207.255 137.618C207.274 137.718 207.264 137.822 207.224 137.917C207.185 138.011 207.118 138.092 207.032 138.149C206.946 138.206 206.846 138.236 206.743 138.236C206.604 138.235 206.471 138.18 206.373 138.082C206.276 137.984 206.221 137.851 206.221 137.713Z" fill="#233F77"/>
<path d="M221.621 153.397L221.635 151.938C221.635 151.938 223.639 139.554 222.251 139.171C220.863 138.788 218.25 140.105 218.25 140.105L219.073 151.938C219.059 152.21 219.019 152.48 218.953 152.745C218.918 152.753 218.883 152.759 218.849 152.768C217.486 153.158 218.305 155.975 219.321 156.025C220.066 156.062 221.03 154.937 221.684 154.552C221.969 154.378 221.886 153.594 221.621 153.397Z" fill="#EF9E67"/>
<path d="M217.365 139.764C217.365 139.764 217.043 141.51 217.839 141.765C218.635 142.02 222.703 142.149 222.956 141.765C223.21 141.381 222.858 138.452 222.252 138.236C221.646 138.02 217.744 138.815 217.365 139.764Z" fill="#233F77"/>
<path d="M194.808 140.104L193.986 151.937H191.424C191.424 151.937 189.419 139.553 190.807 139.17C192.195 138.787 194.808 140.104 194.808 140.104Z" fill="#FFB27D"/>
<path d="M191.376 154.551C191.094 154.384 191.174 153.595 191.439 153.396C192.071 152.919 193.228 152.487 194.21 152.767C195.573 153.157 194.754 155.974 193.738 156.024C192.992 156.061 192.027 154.939 191.376 154.551Z" fill="#FFB27D"/>
<path d="M191.421 151.937L191.439 153.945C191.767 153.914 193.622 154.609 194.199 153.845C194.423 153.547 194.007 152.76 193.983 151.937C193.908 149.471 191.421 151.937 191.421 151.937Z" fill="#FFB27D"/>
<path d="M195.69 139.764C195.69 139.764 196.013 141.51 195.217 141.765C194.42 142.02 190.353 142.149 190.099 141.765C189.846 141.381 190.199 138.452 190.804 138.236C191.409 138.02 195.314 138.815 195.69 139.764Z" fill="#233F77"/>
<path d="M207.386 104.025C207.386 104.025 208.143 106.738 210.099 107.503C210.099 107.503 209.197 105.94 209.514 105.173C209.514 105.173 210.381 108.238 211.648 109.291C211.648 109.291 213.452 102.939 208.306 102.62C203.161 102.3 201.096 105.014 201.065 106.966C201.052 108.156 201.305 109.333 201.805 110.414C201.805 110.414 202.369 106.806 204.624 105.753C206.879 104.7 207.386 104.025 207.386 104.025Z" fill="#B5493F"/>
<path d="M212.724 171.007C210.671 177.797 208.496 184.204 208.496 184.204L204.832 183.447C204.832 183.447 205.211 177.535 205.322 170.981C205.332 170.461 205.39 169.938 205.427 169.413C205.762 164.465 206.167 159.354 206.574 156.197C207.579 148.436 210.65 148.906 211.325 149.02C212 149.133 216.513 148.697 216.277 156.393C216.201 158.893 214.508 165.096 212.724 171.007Z" fill="#FFB27D"/>
<path d="M205.325 170.981C205.359 170.461 205.392 169.938 205.429 169.412C205.764 164.464 206.169 159.354 206.576 156.196C206.576 156.196 206.093 169.722 210.565 171.236C213.521 172.239 208.837 171.556 205.325 170.981Z" fill="#EF9E67"/>
<path d="M212.727 171.007C211.56 174.862 210.355 178.592 209.532 181.101C208.904 183.01 208.497 184.208 208.497 184.208L204.602 183.49C204.602 183.49 204.884 177.501 205.701 169.905C206.203 170.203 207.375 170.589 209.788 170.826C210.614 170.904 211.586 170.97 212.727 171.007Z" fill="#E9F3FE"/>
<path d="M208.516 186.362C208.5 186.519 208.483 186.662 208.465 186.789C208.456 186.858 208.434 186.924 208.399 186.984C208.364 187.044 208.317 187.096 208.261 187.138C208.205 187.179 208.142 187.209 208.074 187.225C208.006 187.241 207.936 187.244 207.867 187.232L204.109 186.587C203.975 186.564 203.856 186.49 203.777 186.38C203.698 186.271 203.665 186.135 203.686 186.001C203.724 185.762 203.774 185.525 203.838 185.291C203.978 184.761 204.181 184.249 204.444 183.768C204.481 183.699 204.533 183.64 204.597 183.595C204.66 183.55 204.733 183.521 204.811 183.509C206.784 183.216 207.911 183.839 208.306 184.13C208.359 184.167 208.404 184.215 208.439 184.27C208.474 184.325 208.497 184.387 208.507 184.451C208.588 185.085 208.591 185.727 208.516 186.362Z" fill="#35488B"/>
<path d="M208.374 184.301C208.374 184.292 208.043 183.469 206.805 183.118C206.448 183.014 206.071 183.001 205.707 183.078C205.343 183.155 205.004 183.32 204.72 183.559L204.479 183.709C204.519 183.671 205.513 182.533 206.862 182.918C207.244 183.015 207.595 183.206 207.882 183.474C208.17 183.742 208.384 184.078 208.505 184.451L208.374 184.301Z" fill="#35488B"/>
<path d="M208.515 186.363C208.499 186.52 208.483 186.663 208.464 186.79C208.456 186.859 208.433 186.925 208.398 186.985C208.363 187.045 208.316 187.097 208.261 187.139C208.205 187.18 208.141 187.21 208.073 187.226C208.006 187.242 207.935 187.245 207.867 187.233L204.108 186.588C203.974 186.565 203.855 186.491 203.776 186.381C203.697 186.272 203.664 186.136 203.685 186.002C203.723 185.763 203.774 185.525 203.837 185.291C203.837 185.291 203.943 186.187 206.233 186.553C207.617 186.766 208.233 186.559 208.515 186.363Z" fill="#35488B"/>
<path d="M118.329 187.239C118.329 187.239 118.298 183.454 119.965 183.161C121.632 182.868 124.052 181.955 124.385 187.239H118.329Z" fill="#22356B"/>
<path d="M130.654 187.239C130.654 187.239 130.624 183.454 132.29 183.161C133.956 182.868 136.377 181.955 136.711 187.239H130.654Z" fill="#22356B"/>
<path d="M115.555 146.889C114.579 149.16 113.936 151.559 113.647 154.012H137.174C137.174 154.012 135.02 147.087 133.087 146.321C131.155 145.556 115.555 146.889 115.555 146.889Z" fill="#1B2E59"/>
<path d="M120.318 112.878C120.318 112.878 118.128 109.883 116.682 107.478C114.956 104.61 115.921 99.994 122.206 99.0154C122.206 99.0154 124.225 98.5849 124.8 98.0493C124.8 98.0493 124.771 98.798 124.59 98.9971C124.59 98.9971 129.596 98.3424 129.955 100.579C131.055 107.421 129.771 109.918 129.771 109.918L120.318 112.878Z" fill="#B5493F"/>
<path d="M144.271 187.234C144.242 187.236 144.213 187.236 144.184 187.234C144.073 187.239 143.963 187.207 143.873 187.143C143.782 187.078 143.716 186.986 143.685 186.879L138.036 162.585L137.626 160.815L139.557 160.731L140.188 164.043L144.543 186.896C144.549 186.936 144.546 186.977 144.536 187.016C144.525 187.055 144.506 187.092 144.481 187.124C144.455 187.155 144.423 187.181 144.387 187.2C144.351 187.219 144.312 187.231 144.271 187.234Z" fill="#E5BD9E"/>
<path d="M115.562 160.819L114.632 164.818L109.502 186.885C109.471 186.991 109.405 187.084 109.314 187.148C109.224 187.213 109.114 187.245 109.003 187.24C108.974 187.242 108.944 187.242 108.914 187.24C108.874 187.236 108.836 187.225 108.8 187.206C108.765 187.187 108.734 187.161 108.708 187.13C108.683 187.099 108.665 187.063 108.654 187.024C108.643 186.986 108.64 186.946 108.645 186.906L113.286 162.541L113.631 160.741L115.562 160.819Z" fill="#E5BD9E"/>
<path d="M115.562 160.819L114.632 164.817C114.604 164.358 114.468 163.913 114.234 163.516C114 163.119 113.675 162.783 113.286 162.535L113.631 160.735L115.562 160.819Z" fill="#CC9E7F"/>
<path d="M140.185 164.052C139.229 162.65 138.071 162.65 138.034 162.596L137.624 160.826L139.555 160.742L140.185 164.052Z" fill="#CC9E7F"/>
<path d="M139.697 160.995H111.726C110.343 160.995 109.222 159.88 109.222 158.504V156.504C109.222 155.128 110.343 154.013 111.726 154.013H139.697C141.081 154.013 142.202 155.128 142.202 156.504V158.504C142.202 159.88 141.081 160.995 139.697 160.995Z" fill="#A03530"/>
<path d="M135.501 145.796C134.672 141.206 132.259 135.982 132.259 135.982C134.016 128.663 132.223 120.433 132.223 120.433C131.257 120.174 130.273 119.987 129.279 119.872C129.156 119.219 128.801 117.254 128.65 115.562C128.635 115.366 128.621 115.174 128.608 114.987C128.579 114.562 128.579 114.134 128.608 113.709L127.372 113.79L122.28 114.128L122.064 114.142C122.064 114.142 122.095 114.596 122.104 115.28C122.118 116.511 122.059 118.48 121.615 119.893C119.425 120.119 117.941 120.437 117.941 120.437C116.507 120.68 116.813 129.559 119.491 136.461C120.724 139.638 117.236 144.555 117.236 145.799C117.236 147.043 135.8 147.455 135.501 145.796Z" fill="#FFB27D"/>
<path d="M128.647 115.56C128.169 116.12 126.955 117.323 125.428 117.35C123.428 117.385 122.093 115.278 122.093 115.278C122.125 114.89 122.184 114.505 122.269 114.125L127.361 113.787C127.796 114.164 128.211 114.562 128.606 114.98C128.617 115.171 128.631 115.363 128.647 115.56Z" fill="#EF9E67"/>
<path d="M126.053 115.95C125.401 116.074 124.731 116.07 124.08 115.936C123.43 115.803 122.812 115.544 122.262 115.173C121.713 114.802 121.242 114.327 120.877 113.775C120.511 113.223 120.259 112.605 120.134 111.957L119.326 107.816C119.153 106.933 119.337 106.017 119.839 105.268C120.34 104.518 121.118 103.996 122.004 103.813L125.003 103.222C125.89 103.054 126.807 103.243 127.554 103.747C128.301 104.252 128.816 105.03 128.986 105.912L129.832 110.283C130.077 111.532 129.818 112.827 129.111 113.887C128.404 114.948 127.305 115.689 126.053 115.95Z" fill="#FFB27D"/>
<path d="M123.812 113.185C123.812 113.185 124.043 113.822 125.644 113.527C125.644 113.527 126.996 113.281 126.869 112.566C126.881 112.566 125.503 112.211 123.812 113.185Z" fill="white"/>
<path d="M142.483 142.391L138.045 140.163L136.709 139.491C136.313 138.588 134.978 135.763 134.151 134.145C134.335 134.954 134.519 135.783 134.695 136.609C134.76 136.916 134.823 137.221 134.888 137.527C135.798 141.897 136.489 146.01 136.382 146.89C136.137 148.895 128.34 147.992 126.33 147.51C124.321 147.027 119.752 148.131 116.096 148.059C113.994 148.022 114.639 142.138 115.564 137.154C115.784 135.96 116.025 134.814 116.245 133.816C115.064 136.178 113.849 138.671 113.558 139.458L111.041 140.788L108.257 142.259L108.185 142.298C108.179 142.287 108.175 142.274 108.174 142.26C108.005 141.352 111.072 124.54 114.939 121.642C114.939 121.567 114.958 121.494 114.995 121.429C115.032 121.364 115.086 121.31 115.15 121.272C116.669 120.227 118.527 119.787 120.356 120.038C120.356 120.038 121.625 122.309 125.289 122.482C126.344 122.54 127.399 122.359 128.373 121.95C129.346 121.542 130.213 120.917 130.908 120.125C130.908 120.125 132.702 120.17 134.097 120.795C134.515 120.969 134.892 121.226 135.208 121.549C136.428 122.876 142.359 134.263 142.483 142.391Z" fill="#A53A35"/>
<path d="M136.898 139.287C136.898 139.287 130.604 146.045 127.539 148.321L128.516 150.34C128.516 150.34 138.24 146.642 142.343 141.453L136.898 139.287Z" fill="#0052B4"/>
<path d="M128.332 147.846C128.332 147.846 125.742 148.574 125.321 149.389C124.899 150.203 125.077 152.508 125.731 152.124C126.385 151.74 129.987 149.361 129.987 149.361L128.332 147.846Z" fill="#0052B4"/>
<path d="M121.901 118.558C121.901 118.558 123.619 121.95 125.292 122.484C125.292 122.484 122.913 123.388 119.443 119.973C119.693 119.544 120.051 119.187 120.482 118.939C120.913 118.69 121.403 118.559 121.901 118.558Z" fill="#E6F1FF"/>
<path d="M129.114 118.558C129.114 118.558 126.965 121.95 125.291 122.484C125.291 122.484 128.109 123.388 131.572 119.973C131.323 119.544 130.964 119.187 130.533 118.939C130.102 118.691 129.612 118.56 129.114 118.558Z" fill="#E6F1FF"/>
<path d="M113.576 139.287C113.576 139.287 120.127 145.794 123.278 147.948L122.379 150.005C122.379 150.005 113.087 146.83 108.786 141.805L113.576 139.287Z" fill="#FFB27D"/>
<path d="M120.938 147.368C120.938 147.368 123.616 147.553 124.197 148.257C124.777 148.961 125.066 151.263 124.35 151.02C123.634 150.778 119.623 149.185 119.623 149.185L120.938 147.368Z" fill="#FFB27D"/>
<path d="M124.772 129.443C124.773 129.34 124.804 129.24 124.862 129.156C124.92 129.071 125.002 129.005 125.097 128.967C125.193 128.928 125.297 128.918 125.398 128.939C125.499 128.96 125.592 129.009 125.664 129.082C125.737 129.155 125.786 129.248 125.805 129.348C125.825 129.449 125.814 129.553 125.774 129.648C125.735 129.742 125.668 129.823 125.582 129.879C125.496 129.936 125.395 129.966 125.292 129.966C125.154 129.965 125.021 129.909 124.924 129.811C124.826 129.713 124.772 129.581 124.772 129.443Z" fill="#C65447"/>
<path d="M124.772 137.824C124.773 137.722 124.804 137.622 124.862 137.537C124.92 137.452 125.002 137.386 125.097 137.348C125.193 137.309 125.297 137.3 125.398 137.32C125.499 137.341 125.592 137.391 125.664 137.463C125.737 137.536 125.786 137.629 125.805 137.73C125.825 137.83 125.814 137.934 125.774 138.029C125.735 138.123 125.668 138.204 125.582 138.261C125.496 138.317 125.395 138.347 125.292 138.347C125.154 138.346 125.021 138.29 124.924 138.192C124.826 138.094 124.772 137.962 124.772 137.824Z" fill="#C65447"/>
<path d="M119.328 107.816C119.328 107.816 119.48 106.134 120.551 105.865C121.623 105.596 125.612 107.024 126.471 105.865C127.329 104.705 127.98 104.216 128.559 104.799C129.138 105.382 128.73 101.294 128.589 101.241C128.448 101.187 119.569 101.674 119.569 101.674L117.455 103.917L117.564 106.466L119.328 107.816Z" fill="#B5493F"/>
<path d="M125.556 183.719C125.556 183.719 124.055 184.345 121.773 184.362C120.155 184.373 118.55 184.078 117.043 183.492C117.043 183.492 115.727 174.231 114.94 166.309C114.495 161.805 114.219 157.733 114.454 156.045C115.103 151.389 117.211 148.698 119.872 148.922C122.533 149.147 125.02 150.999 125.205 153.246C125.389 155.494 125.556 183.719 125.556 183.719Z" fill="#2B478B"/>
<path d="M117.227 130.298L116.24 133.816C115.165 136.978 113.844 138.671 113.553 139.458L111.035 140.788L108.252 142.259H108.169C107.788 140.401 110.92 124.453 114.783 121.548C114.897 121.448 115.016 121.355 115.141 121.268C116.392 123.633 118.684 128.546 117.227 130.298Z" fill="#E6F1FF"/>
<path d="M115.552 140.749L114.309 141.839L111.102 144.643C109.327 144.503 108.046 142.388 108.046 142.388C108.673 141.38 109.63 140.647 110.583 140.124C111.582 139.585 112.654 139.194 113.767 138.963L115.552 140.749Z" fill="#E6F1FF"/>
<path d="M115.552 140.749L114.309 141.838C112.154 141.822 110.582 140.127 110.582 140.127C111.58 139.587 112.653 139.196 113.765 138.966L115.552 140.749Z" fill="#C7DCF2"/>
<path d="M134.1 120.794C134.523 120.985 135.032 121.203 135.323 121.52C135.717 121.949 136.544 123.463 137.566 125.544C139.708 129.902 142.4 136.901 142.483 142.391L139.89 141.089L138.045 140.163L136.709 139.492C135.922 138.205 134.841 135.832 134.151 134.146C134.335 134.955 134.519 135.783 134.695 136.609L132.77 129.443C131.913 128.176 133.719 122.038 134.1 120.794Z" fill="#E6F1FF"/>
<path d="M142.483 142.391C142.483 142.391 141.2 144.507 139.427 144.646L135.781 141.453L134.978 140.752L136.497 139.019C137.338 139.172 138.162 139.41 138.954 139.73C140.217 140.239 141.664 141.075 142.483 142.391Z" fill="#E6F1FF"/>
<path d="M138.954 139.73C138.954 139.73 137.241 141.237 135.781 141.453L134.978 140.752L136.497 139.019C137.338 139.172 138.161 139.41 138.954 139.73Z" fill="#C7DCF2"/>
<path d="M136.541 175.906C136.814 179.763 136.975 182.584 136.975 182.584C132.725 185.297 128.674 184.495 128.674 184.495C128.674 184.495 124.515 163.088 123.333 156.389C123.169 155.466 123.064 154.823 123.033 154.552C122.772 152.309 124.848 150.002 127.411 149.255C129.975 148.508 132.571 150.726 134.121 155.163C135.129 158.047 136.031 168.755 136.541 175.906Z" fill="#2B478B"/>
<path d="M136.541 175.905C136.814 179.762 136.975 182.583 136.975 182.583C132.725 185.296 128.674 184.494 128.674 184.494C128.674 184.494 124.515 163.088 123.333 156.389C123.352 155.71 123.365 155.308 123.367 155.256C123.42 155.679 125.936 175.211 136.541 175.905Z" fill="#233F77"/>
<path d="M121.773 184.363C120.155 184.374 118.55 184.078 117.043 183.492C117.043 183.492 115.727 174.231 114.941 166.31C114.986 166.528 117.714 179.842 121.773 184.363Z" fill="#233F77"/>
<path d="M137.563 125.544C139.705 129.902 142.707 136.662 142.48 142.391L139.887 141.089C139.946 141.036 140.009 140.986 140.073 140.94C142.719 139.037 137.692 125.871 137.563 125.544Z" fill="#C7DCF2"/>
<path d="M73.378 112.036C72.4595 110.751 71.839 109.279 71.5613 107.727C71.1174 105.174 71.4598 98.9222 76.1994 99.2041C79.5705 99.4046 81.414 98.5886 82.9022 99.4592C84.2679 100.257 86.224 102.569 85.8421 104.982C85.4602 107.395 83.1644 112.036 83.1644 112.036H73.378Z" fill="#1B2E59"/>
<path d="M71.3514 187.239C71.3514 187.239 71.3218 183.454 72.9876 183.161C74.6535 182.868 77.0747 181.955 77.4073 187.239H71.3514Z" fill="#22356B"/>
<path d="M79.9478 187.239C79.9478 187.239 79.9181 183.454 81.5854 183.161C83.2526 182.868 85.6654 181.955 86.0051 187.239H79.9478Z" fill="#22356B"/>
<path d="M68.5778 146.889C67.6022 149.16 66.9595 151.559 66.6695 154.012H90.1969C90.1969 154.012 88.0421 147.087 86.1099 146.321C84.1777 145.556 68.5778 146.889 68.5778 146.889Z" fill="#993530"/>
<path d="M97.2952 187.234C97.2656 187.236 97.2359 187.236 97.2063 187.234C97.0953 187.239 96.9857 187.207 96.8952 187.143C96.8047 187.078 96.7386 186.986 96.7074 186.879L91.0589 162.585L90.6487 160.815L92.5795 160.731L93.2109 164.043L97.5657 186.896C97.5714 186.936 97.5689 186.977 97.5582 187.016C97.5475 187.055 97.5289 187.092 97.5036 187.123C97.4783 187.155 97.4467 187.181 97.4109 187.2C97.375 187.219 97.3357 187.231 97.2952 187.234Z" fill="#E5BD9E"/>
<path d="M68.5897 160.819L67.6609 164.817L62.5295 186.885C62.4984 186.991 62.4322 187.083 62.3418 187.148C62.2513 187.212 62.1417 187.244 62.0307 187.239C62.0011 187.241 61.9714 187.241 61.9418 187.239C61.9019 187.236 61.863 187.224 61.8277 187.205C61.7923 187.186 61.7611 187.16 61.736 187.129C61.7109 187.098 61.6923 187.062 61.6814 187.024C61.6706 186.985 61.6676 186.945 61.6727 186.906L66.3136 162.535L66.6575 160.735L68.5897 160.819Z" fill="#E5BD9E"/>
<path d="M68.5897 160.819L67.6609 164.817C67.6331 164.358 67.4966 163.913 67.2627 163.516C67.0289 163.119 66.7041 162.783 66.315 162.535L66.6589 160.735L68.5897 160.819Z" fill="#CC9E7F"/>
<path d="M93.2122 164.052C92.258 162.65 91.0982 162.65 91.0615 162.596L90.6514 160.826L92.5822 160.742L93.2122 164.052Z" fill="#CC9E7F"/>
<path d="M64.7476 160.995H92.7201C93.3843 160.995 94.0213 160.733 94.4909 160.265C94.9606 159.798 95.2245 159.164 95.2245 158.504V156.504C95.2245 155.844 94.9606 155.21 94.4909 154.743C94.0213 154.275 93.3843 154.013 92.7201 154.013H64.7476C64.0838 154.013 63.4471 154.275 62.9777 154.742C62.5083 155.209 62.2447 155.842 62.2447 156.503V158.504C62.2445 158.831 62.3091 159.155 62.4348 159.457C62.5605 159.759 62.7448 160.034 62.9773 160.265C63.2097 160.497 63.4857 160.68 63.7895 160.805C64.0932 160.931 64.4188 160.995 64.7476 160.995Z" fill="#FF9924"/>
<path d="M88.5235 145.796C87.6948 141.206 85.282 135.982 85.282 135.982C87.0367 128.663 85.244 120.433 85.244 120.433C84.2782 120.174 83.2947 119.987 82.3013 119.872C82.1773 119.219 81.8221 117.254 81.6727 115.562C81.6558 115.366 81.6417 115.174 81.629 114.987C81.5995 114.562 81.5995 114.134 81.629 113.709L80.3916 113.79L75.2997 114.128L75.0841 114.142C75.0841 114.142 75.1151 114.596 75.1235 115.28C75.1391 116.511 75.0785 118.48 74.6359 119.893C72.4444 120.119 70.9604 120.437 70.9604 120.437C69.5271 120.68 69.8329 129.559 72.5106 136.461C73.7452 139.638 70.2557 144.555 70.2557 145.799C70.2557 147.043 88.8237 147.455 88.5235 145.796Z" fill="#FFB27D"/>
<path d="M81.6741 115.56C81.1949 116.12 79.9899 117.323 78.4537 117.35C76.4539 117.385 75.1193 115.278 75.1193 115.278C75.1509 114.89 75.2097 114.505 75.2954 114.125L80.3874 113.787C80.8219 114.165 81.2367 114.565 81.6304 114.985C81.6402 115.171 81.6543 115.363 81.6741 115.56Z" fill="#EF9E67"/>
<path d="M78.4143 116.158C77.0724 116.149 75.7888 115.611 74.8445 114.663C73.9003 113.714 73.3722 112.432 73.376 111.097V106.878C73.3741 105.979 73.7299 105.116 74.3658 104.477C75.0017 103.838 75.8659 103.475 76.7696 103.468H79.8251C80.7288 103.475 81.593 103.838 82.2289 104.477C82.8648 105.116 83.2206 105.979 83.2187 106.878V111.335C83.2203 112.608 82.716 113.829 81.8159 114.732C80.9158 115.636 79.693 116.148 78.4143 116.158Z" fill="#FFB27D"/>
<path d="M76.7532 113.017C76.7532 113.017 76.8575 113.686 78.4923 113.709C78.4923 113.709 79.8664 113.728 79.8791 113.008C79.8791 113 78.5924 112.385 76.7532 113.017Z" fill="white"/>
<path d="M95.5053 142.391L91.0673 140.163L89.7327 139.492C89.3353 138.589 88.0006 135.764 87.1733 134.146C87.3594 134.955 87.5412 135.783 87.7173 136.609C87.7836 136.916 87.847 137.222 87.9104 137.528C88.8209 141.898 89.5114 146.01 89.4043 146.89C89.1591 148.895 81.3627 147.993 79.353 147.51C77.3433 147.028 72.7742 148.131 69.1184 148.06C67.017 148.022 67.6611 142.139 68.587 137.155C68.8069 135.96 69.0479 134.815 69.2678 133.816C68.0867 136.179 66.8719 138.672 66.5802 139.458L64.0631 140.789L61.2797 142.259L61.2078 142.299C61.2015 142.287 61.1977 142.274 61.1965 142.261C61.0274 141.352 63.9475 124.455 67.8105 121.55C67.925 121.45 68.045 121.356 68.1699 121.269C69.6891 120.225 71.5466 119.785 73.376 120.035C73.376 120.035 74.6444 122.307 78.3086 122.479C79.3638 122.538 80.4185 122.356 81.3923 121.948C82.3661 121.539 83.2333 120.915 83.9277 120.122C83.9277 120.122 85.7217 120.167 87.117 120.793C87.5346 120.967 87.9124 121.223 88.2275 121.547C89.4508 122.876 95.3813 134.264 95.5053 142.391Z" fill="#0052B4"/>
<path d="M89.9283 139.287C89.9283 139.287 83.6342 146.045 80.5675 148.321L81.5456 150.34C81.5456 150.34 91.2699 146.642 95.3711 141.453L89.9283 139.287Z" fill="#0052B4"/>
<path d="M81.36 147.846C81.36 147.846 78.771 148.574 78.3496 149.389C77.9282 150.203 78.1058 152.508 78.7583 152.124C79.4109 151.74 83.0145 149.361 83.0145 149.361L81.36 147.846Z" fill="#0052B4"/>
<path d="M74.9224 118.558C74.9224 118.558 76.6404 121.95 78.3147 122.484C78.3147 122.484 75.9343 123.388 72.4645 119.973C72.7137 119.544 73.0719 119.187 73.5033 118.939C73.9347 118.69 74.4241 118.559 74.9224 118.558Z" fill="#233F77"/>
<path d="M82.1367 118.558C82.1367 118.558 79.9875 121.95 78.3146 122.484C78.3146 122.484 81.1248 123.388 84.5946 119.973C84.3454 119.544 83.9872 119.187 83.5558 118.939C83.1245 118.69 82.6351 118.559 82.1367 118.558Z" fill="#233F77"/>
<path d="M66.5939 139.287C66.5939 139.287 73.1444 145.794 76.2957 147.948L75.398 150.005C75.398 150.005 66.1048 146.83 61.8035 141.805L66.5939 139.287Z" fill="#FFB27D"/>
<path d="M73.9602 147.368C73.9602 147.368 76.6379 147.553 77.2185 148.257C77.7992 148.961 78.0895 151.263 77.3722 151.02C76.6548 150.778 72.6453 149.185 72.6453 149.185L73.9602 147.368Z" fill="#FFB27D"/>
<path d="M77.7975 129.443C77.7986 129.341 77.83 129.241 77.8879 129.157C77.9457 129.073 78.0273 129.007 78.1224 128.969C78.2175 128.931 78.3219 128.921 78.4224 128.942C78.5229 128.962 78.615 129.012 78.6872 129.085C78.7593 129.157 78.8083 129.249 78.8279 129.35C78.8475 129.45 78.8369 129.553 78.7974 129.648C78.7579 129.742 78.6912 129.822 78.6058 129.879C78.5204 129.936 78.4201 129.966 78.3175 129.966C78.2488 129.965 78.1809 129.952 78.1176 129.925C78.0543 129.899 77.9969 129.86 77.9486 129.811C77.9003 129.763 77.8621 129.705 77.8362 129.642C77.8102 129.579 77.7971 129.511 77.7975 129.443Z" fill="#C65447"/>
<path d="M77.7975 137.824C77.7986 137.722 77.83 137.622 77.8879 137.538C77.9457 137.454 78.0273 137.388 78.1224 137.35C78.2175 137.312 78.3219 137.302 78.4224 137.323C78.5229 137.343 78.615 137.393 78.6872 137.466C78.7593 137.538 78.8083 137.63 78.8279 137.731C78.8475 137.831 78.8369 137.934 78.7974 138.029C78.7579 138.123 78.6912 138.203 78.6058 138.26C78.5204 138.317 78.4201 138.347 78.3175 138.347C78.2488 138.346 78.1809 138.333 78.1176 138.306C78.0543 138.28 77.9969 138.241 77.9486 138.192C77.9003 138.144 77.8621 138.086 77.8362 138.023C77.8102 137.96 77.7971 137.892 77.7975 137.824Z" fill="#C65447"/>
<path d="M73.3747 106.878C73.3747 106.878 73.8482 105.253 74.9489 105.195C76.0496 105.138 79.6927 107.312 80.7511 106.334C81.8095 105.355 82.548 105.006 83.0061 105.692C83.4641 106.377 83.8432 102.29 83.7107 102.205C83.5783 102.119 74.7742 100.885 74.7742 100.885L72.2754 102.673L71.8949 105.197L73.3747 106.878Z" fill="#1B2E59"/>
<path d="M78.5732 183.719C78.5732 183.719 77.0723 184.345 74.7905 184.362C73.1727 184.373 71.5676 184.078 70.0609 183.492C70.0609 183.492 68.7459 174.231 67.9595 166.309C67.5128 161.805 67.2379 157.733 67.4719 156.045C68.1202 151.389 70.2285 148.698 72.8894 148.922C75.5502 149.147 78.0377 150.999 78.2237 153.246C78.4097 155.494 78.5732 183.719 78.5732 183.719Z" fill="#0052B4"/>
<path d="M87.6686 176.847C87.1923 180.684 86.8033 183.483 86.8033 183.483C82.1088 185.314 78.2909 183.737 78.2909 183.737C78.2909 183.737 78.3487 161.928 78.484 155.123C78.5023 154.188 78.522 153.535 78.5446 153.263C78.7222 151.02 81.204 149.155 83.8634 148.916C86.5228 148.678 88.6411 151.367 89.3035 156.022C89.7347 159.053 88.5495 169.734 87.6686 176.847Z" fill="#0052B4"/>
<path d="M70.2495 130.298L69.263 133.816C68.082 136.178 66.8672 138.671 66.5754 139.458L64.0584 140.788L61.2749 142.259H61.1918C61.0226 141.351 63.9428 124.453 67.8058 121.548C67.9203 121.448 68.0402 121.354 68.1651 121.268C69.4124 123.633 71.7068 128.546 70.2495 130.298Z" fill="#35488B"/>
<path d="M68.5798 140.749L67.3367 141.839L64.1291 144.643C62.3547 144.503 61.0751 142.388 61.0751 142.388C61.7008 141.38 62.6578 140.647 63.6119 140.124C64.61 139.585 65.6821 139.193 66.7941 138.963L68.5798 140.749Z" fill="#35488B"/>
<path d="M68.5798 140.749L67.3367 141.838C65.1833 141.822 63.6105 140.127 63.6105 140.127C64.6086 139.587 65.6807 139.196 66.7927 138.966L68.5798 140.749Z" fill="#233F77"/>
<path d="M95.5053 142.391L92.9122 141.089L91.0673 140.163L89.7327 139.492C89.3353 138.589 88.0006 135.764 87.1733 134.146C87.3594 134.955 87.5412 135.783 87.7173 136.609L85.7922 129.443C84.9367 128.181 86.7435 122.038 87.1226 120.794C87.5403 120.968 87.9181 121.225 88.2332 121.548C88.6264 121.977 89.5128 123.456 90.5346 125.538C92.6796 129.902 95.4222 136.894 95.5053 142.391Z" fill="#35488B"/>
<path d="M95.5053 142.391C95.5053 142.391 94.2228 144.506 92.4513 144.645L88.804 141.453L88.0006 140.752L89.5199 139.022C90.361 139.174 91.1842 139.412 91.9764 139.732C93.2405 140.239 94.6865 141.074 95.5053 142.391Z" fill="#35488B"/>
<path d="M91.9763 139.73C91.9763 139.73 90.2639 141.237 88.8038 141.453L88.0005 140.752L89.5198 139.022C90.3608 139.173 91.184 139.411 91.9763 139.73Z" fill="#233F77"/>
<path d="M87.665 176.847C87.1887 180.684 86.7997 183.482 86.7997 183.482C82.1052 185.314 78.2873 183.736 78.2873 183.736C78.2873 183.736 78.3451 161.927 78.4804 155.123C78.6312 154.463 78.72 154.07 78.7327 154.02C78.7031 154.446 77.3952 174.096 87.665 176.847Z" fill="#4395F2"/>
<path d="M74.7955 184.363C73.1777 184.374 71.5725 184.078 70.0658 183.492C70.0658 183.492 68.7509 174.231 67.9645 166.31C68.0011 166.528 70.7366 179.842 74.7955 184.363Z" fill="#4395F2"/>
<path d="M90.5374 125.544C92.6796 129.902 95.4222 136.901 95.5053 142.391L92.9122 141.089C92.9713 141.036 93.0335 140.986 93.0982 140.94C95.7435 139.037 90.6642 125.871 90.5374 125.544Z" fill="#233F77"/>
<path d="M287.46 187.234C287.431 187.236 287.401 187.236 287.371 187.234C287.26 187.239 287.151 187.207 287.06 187.143C286.97 187.078 286.904 186.986 286.873 186.879L281.225 162.585L280.815 160.815L282.747 160.731L283.375 164.052L287.729 186.906C287.734 186.945 287.73 186.985 287.719 187.023C287.708 187.06 287.689 187.096 287.664 187.126C287.639 187.157 287.608 187.182 287.573 187.2C287.538 187.219 287.5 187.23 287.46 187.234Z" fill="#E5BD9E"/>
<path d="M258.752 160.819L257.822 164.818L252.692 186.885C252.66 186.991 252.594 187.083 252.504 187.148C252.413 187.212 252.304 187.244 252.193 187.24C252.164 187.242 252.134 187.242 252.104 187.24C252.064 187.236 252.025 187.225 251.99 187.206C251.954 187.187 251.923 187.161 251.897 187.129C251.872 187.098 251.854 187.062 251.843 187.024C251.832 186.985 251.829 186.944 251.834 186.905L256.476 162.541L256.82 160.741L258.752 160.819Z" fill="#E5BD9E"/>
<path d="M258.752 160.819L257.822 164.817C257.794 164.358 257.658 163.913 257.424 163.516C257.19 163.119 256.865 162.783 256.476 162.535L256.82 160.735L258.752 160.819Z" fill="#CC9E7F"/>
<path d="M283.375 164.052C282.421 162.65 281.261 162.65 281.225 162.596L280.815 160.826L282.747 160.742L283.375 164.052Z" fill="#CC9E7F"/>
<path d="M254.915 160.993H282.888C283.552 160.993 284.189 160.73 284.658 160.263C285.128 159.796 285.392 159.162 285.392 158.501V156.502C285.392 155.841 285.128 155.207 284.658 154.74C284.189 154.273 283.552 154.01 282.888 154.01H254.915C254.251 154.01 253.615 154.273 253.145 154.74C252.676 155.207 252.412 155.84 252.412 156.5V158.501C252.412 158.828 252.477 159.152 252.602 159.454C252.728 159.757 252.912 160.031 253.145 160.263C253.377 160.494 253.653 160.678 253.957 160.803C254.261 160.928 254.586 160.993 254.915 160.993Z" fill="#C65447"/>
<path d="M268.563 98.8462C268.563 98.8462 263.411 97.7414 260.248 100.088C257.086 102.435 259.218 108.028 257.98 109.482C256.743 110.936 255.303 111.484 256.744 114.389C258.186 117.294 255.303 118.074 255.303 120.169C255.303 122.263 258.299 122.879 258.381 124.742C258.462 126.606 267.808 128.333 271.792 128.402C275.776 128.47 280.378 123.653 280.929 122.713C281.48 121.774 282.92 117.562 280.929 115.423C278.937 113.283 280.519 110.382 279.763 108.725C279.008 107.068 276.121 106.102 276.602 104.721C277.083 103.34 276.052 97.3264 268.563 98.8462Z" fill="#1B2E59"/>
<path d="M278.691 145.796C277.864 141.204 275.449 135.982 275.449 135.982C277.204 128.663 275.413 120.433 275.413 120.433C274.447 120.174 273.463 119.987 272.469 119.872C272.346 119.219 271.991 117.254 271.84 115.562C271.823 115.366 271.809 115.174 271.796 114.987C271.768 114.562 271.768 114.134 271.796 113.709L270.559 113.79L265.452 114.125L265.235 114.139C265.235 114.139 265.266 114.592 265.274 115.278C265.29 116.509 265.229 118.477 264.786 119.89C262.595 120.116 261.111 120.434 261.111 120.434C259.678 120.677 259.983 129.556 262.661 136.458C263.896 139.636 260.406 144.553 260.406 145.796C260.406 147.04 278.991 147.455 278.691 145.796Z" fill="#FFB27D"/>
<path d="M271.836 115.56C271.358 116.12 270.152 117.323 268.615 117.35C266.617 117.385 265.281 115.278 265.281 115.278C265.313 114.89 265.372 114.505 265.458 114.125L270.549 113.787C270.984 114.163 271.4 114.562 271.793 114.98C271.805 115.171 271.819 115.363 271.836 115.56Z" fill="#EF9E67"/>
<path d="M268.577 116.159C265.806 116.159 263.54 113.88 263.54 111.097V106.878C263.538 105.979 263.893 105.116 264.529 104.477C265.164 103.838 266.028 103.475 266.932 103.467H269.988C270.892 103.474 271.756 103.837 272.392 104.476C273.028 105.115 273.383 105.979 273.381 106.878V111.336C273.383 112.608 272.878 113.829 271.978 114.732C271.078 115.636 269.855 116.149 268.577 116.159Z" fill="#FFB27D"/>
<path d="M266.916 113.017C266.916 113.017 267.02 113.686 268.656 113.709C268.656 113.709 270.029 113.728 270.042 113.008C270.042 113 268.755 112.385 266.916 113.017Z" fill="white"/>
<path d="M268.756 102.081C268.756 102.081 268.318 107.311 263.682 108.425C259.047 109.54 263.089 99.5925 266.219 100.358C269.349 101.124 268.756 102.081 268.756 102.081Z" fill="#1B2E59"/>
<path d="M268.202 102.081C268.202 102.081 268.64 107.311 273.276 108.425C277.911 109.54 273.869 99.5925 270.739 100.358C267.609 101.124 268.202 102.081 268.202 102.081Z" fill="#1B2E59"/>
<path d="M254.882 154.013C254.882 154.013 258.271 146.129 261.374 144.588C264.478 143.047 276.833 144.416 278.688 145.797C280.543 147.178 282.916 154.013 282.916 154.013H254.882Z" fill="#22356B"/>
<path d="M257.982 154.012C257.982 154.012 259.19 149.283 261.879 149.077C264.568 148.871 268.157 151.371 269.434 150.698C270.711 150.025 273.145 148.336 275.405 148.767C277.666 149.197 281.067 154.012 281.067 154.012H257.982Z" fill="#1B2E59"/>
<path d="M270.034 183.805L266.827 183.847C266.827 183.847 265.324 178.709 263.663 172.712C263.509 172.151 263.35 171.582 263.194 171.009C261.821 166.009 260.426 160.702 259.743 157.427C259.58 156.642 259.462 155.932 259.393 155.287C258.747 149.658 261.27 149.19 261.874 149.078C262.547 148.956 266.666 147.055 268.969 154.406C269.746 156.882 270.849 163.704 270.435 170.078C270.036 176.205 270.034 183.805 270.034 183.805Z" fill="#FFB27D"/>
<path d="M277.536 170.432C276.2 177.401 274.703 184.003 274.703 184.003L270.981 183.636C270.981 183.636 270.743 177.715 270.172 171.185C270.127 170.666 270.131 170.141 270.113 169.615C269.931 164.659 269.801 159.534 269.878 156.35C270.069 148.527 273.174 148.678 273.856 148.713C274.538 148.748 278.98 147.847 279.544 155.526C279.733 158.024 278.699 164.366 277.536 170.432Z" fill="#FFB27D"/>
<path d="M263.661 172.712C263.507 172.151 263.348 171.581 263.191 171.008C261.819 166.008 260.424 160.702 259.741 157.426C259.578 156.641 259.46 155.932 259.39 155.287C259.461 155.52 263.985 170.275 268.512 171.371C271.416 172.075 267.14 172.497 263.661 172.712Z" fill="#EF9E67"/>
<path d="M270.172 171.185C270.152 170.665 270.131 170.14 270.113 169.615C269.931 164.658 269.802 159.534 269.878 156.35C269.878 156.35 270.805 169.853 275.411 170.888C278.455 171.573 273.724 171.388 270.172 171.185Z" fill="#EF9E67"/>
<path d="M277.538 170.432C276.778 174.388 275.969 178.224 275.41 180.807C274.987 182.77 274.705 184.005 274.705 184.005L270.759 183.701C270.759 183.701 270.416 177.714 270.439 170.073C270.969 170.317 272.174 170.578 274.599 170.559C275.426 170.552 276.399 170.516 277.538 170.432Z" fill="#E9F3FE"/>
<path d="M275.41 180.804C274.987 182.767 274.705 184.002 274.705 184.002L270.759 183.698C270.759 183.698 270.104 177.512 270.126 169.871C270.656 170.115 272.174 170.572 274.6 170.557C274.597 170.557 272.91 178.388 275.41 180.804Z" fill="#C7DCF2"/>
<path d="M274.965 186.083C274.965 186.24 274.965 186.386 274.965 186.513C274.964 186.583 274.948 186.651 274.919 186.714C274.891 186.777 274.85 186.834 274.798 186.881C274.747 186.928 274.687 186.964 274.622 186.987C274.556 187.011 274.486 187.021 274.417 187.017L270.612 186.77C270.476 186.761 270.35 186.7 270.259 186.599C270.169 186.499 270.122 186.366 270.128 186.232C270.142 185.99 270.169 185.749 270.207 185.51C270.291 184.968 270.44 184.438 270.65 183.931C270.68 183.859 270.726 183.795 270.784 183.744C270.843 183.692 270.913 183.655 270.988 183.635C272.922 183.134 274.105 183.635 274.53 183.885C274.587 183.916 274.636 183.959 274.676 184.01C274.716 184.062 274.745 184.12 274.762 184.183C274.908 184.806 274.976 185.444 274.965 186.083Z" fill="#35488B"/>
<path d="M274.611 184.047C274.611 184.047 274.188 183.255 272.928 183.035C272.561 182.97 272.184 182.996 271.83 183.111C271.477 183.226 271.157 183.426 270.9 183.694L270.676 183.869C270.711 183.827 271.58 182.59 272.963 182.832C273.353 182.887 273.722 183.04 274.036 183.277C274.35 183.513 274.598 183.825 274.757 184.183L274.611 184.047Z" fill="#35488B"/>
<path d="M274.966 186.083C274.966 186.24 274.966 186.386 274.966 186.513C274.965 186.582 274.949 186.651 274.92 186.714C274.892 186.777 274.851 186.834 274.799 186.881C274.748 186.928 274.688 186.964 274.623 186.987C274.557 187.011 274.488 187.021 274.418 187.017L270.613 186.77C270.477 186.761 270.351 186.7 270.26 186.599C270.17 186.498 270.123 186.366 270.129 186.231C270.144 185.99 270.17 185.749 270.208 185.509C270.208 185.509 270.407 186.388 272.723 186.508C274.116 186.578 274.715 186.306 274.966 186.083Z" fill="#22356B"/>
<path d="M270.034 183.804L266.793 184.32L265.965 184.46C265.965 184.46 265.03 177.708 263.193 171.015C265.547 171.264 267.927 170.942 270.129 170.077C270.394 176.899 270.034 183.804 270.034 183.804Z" fill="#E9F3FE"/>
<path d="M266.793 184.321L265.965 184.461C265.965 184.461 265.03 177.709 263.193 171.015C264.599 171.173 266.021 171.119 267.41 170.854C267.41 170.854 265.77 180.631 266.793 184.321Z" fill="#C7DCF2"/>
<path d="M270.649 185.615C270.683 185.769 270.711 185.911 270.735 186.035C270.748 186.103 270.748 186.173 270.734 186.241C270.72 186.308 270.692 186.373 270.653 186.43C270.613 186.486 270.563 186.535 270.505 186.572C270.446 186.61 270.381 186.635 270.312 186.647L266.544 187.233C266.41 187.253 266.273 187.221 266.164 187.142C266.054 187.063 265.98 186.945 265.957 186.812C265.918 186.573 265.892 186.332 265.878 186.09C265.843 185.542 265.875 184.993 265.971 184.452C265.985 184.376 266.016 184.303 266.062 184.24C266.108 184.177 266.168 184.126 266.238 184.089C268.018 183.182 269.282 183.416 269.75 183.565C269.812 183.584 269.87 183.615 269.92 183.656C269.969 183.698 270.01 183.749 270.04 183.806C270.316 184.382 270.521 184.989 270.649 185.615Z" fill="#35488B"/>
<path d="M269.865 183.706C269.865 183.699 269.288 183.023 268.004 183.083C267.632 183.099 267.269 183.207 266.948 183.396C266.627 183.585 266.358 183.85 266.165 184.167L265.983 184.386C266.01 184.337 266.594 182.94 267.994 182.876C268.386 182.846 268.779 182.915 269.137 183.078C269.494 183.241 269.804 183.492 270.037 183.807L269.865 183.706Z" fill="#35488B"/>
<path d="M270.649 185.615C270.683 185.769 270.711 185.911 270.735 186.036C270.748 186.104 270.748 186.173 270.734 186.241C270.72 186.309 270.692 186.373 270.653 186.43C270.613 186.487 270.563 186.535 270.505 186.573C270.446 186.61 270.381 186.635 270.312 186.647L266.544 187.233C266.41 187.254 266.273 187.221 266.164 187.143C266.054 187.064 265.98 186.945 265.957 186.812C265.918 186.573 265.892 186.332 265.878 186.09C265.878 186.09 266.26 186.906 268.548 186.511C269.926 186.284 270.452 185.889 270.649 185.615Z" fill="#22356B"/>
<path d="M285.673 142.391L281.238 140.162L279.902 139.492C279.505 138.589 278.169 135.764 277.344 134.146C277.597 135.256 277.845 136.402 278.079 137.527C278.99 141.898 279.68 146.01 279.573 146.89C279.328 148.895 271.54 147.992 269.523 147.51C267.506 147.028 262.943 148.131 259.289 148.061C257.186 148.022 257.831 142.139 258.757 137.154C258.977 135.96 259.217 134.814 259.437 133.816C258.256 136.177 257.041 138.671 256.749 139.458L254.232 140.789L251.377 142.299C251.371 142.287 251.367 142.274 251.365 142.261C251.193 141.363 254.115 124.455 257.979 121.547C258.754 120.931 259.648 120.479 260.605 120.22C261.562 119.96 262.563 119.899 263.545 120.038C263.545 120.038 264.813 122.308 268.477 122.479C269.532 122.538 270.587 122.357 271.561 121.949C272.535 121.541 273.402 120.917 274.096 120.125C274.096 120.125 277.16 120.201 278.396 121.547C279.632 122.893 285.55 134.263 285.673 142.391Z" fill="#0052B4"/>
<path d="M279.57 146.89C279.325 148.895 271.537 147.992 269.52 147.509C267.504 147.027 262.94 148.13 259.286 148.06C257.183 148.021 257.829 142.138 258.755 137.154C258.755 137.154 262.716 144.125 267.654 144.077C272.593 144.029 278.084 137.527 278.084 137.527C278.981 141.9 279.678 146.009 279.57 146.89Z" fill="#B5493F"/>
<path d="M280.164 139.459C280.164 139.459 272.694 144.882 269.256 146.524L269.831 148.696C269.831 148.696 280.532 146.565 285.548 142.262L280.164 139.459Z" fill="#0052B4"/>
<path d="M269.255 146.527C269.255 146.527 266.687 145.728 265.896 146.176C265.106 146.625 264.006 148.665 264.769 148.7C265.531 148.735 269.842 148.7 269.842 148.7L269.255 146.527Z" fill="#0052B4"/>
<path d="M265.089 118.558C265.089 118.558 266.807 121.95 268.481 122.484C268.481 122.484 266.101 123.388 262.631 119.973C262.881 119.544 263.239 119.187 263.67 118.939C264.101 118.691 264.591 118.56 265.089 118.558Z" fill="#E6F1FF"/>
<path d="M259.435 133.816C258.254 136.177 257.039 138.671 256.747 139.457L254.23 140.788C254.054 140.715 253.913 140.578 253.837 140.404C253.08 138.885 259.435 133.816 259.435 133.816Z" fill="#B5493F"/>
<path d="M272.229 118.531C272.229 118.531 270.155 121.951 268.48 122.481C268.48 122.481 271.178 123.577 274.648 120.162C274.648 120.169 273.996 118.569 272.229 118.531Z" fill="#E6F1FF"/>
<path d="M281.917 139.937C281.708 140.059 281.475 140.135 281.234 140.159L279.898 139.489C279.501 138.586 278.165 135.761 277.34 134.143C277.34 134.145 283.669 138.955 281.917 139.937Z" fill="#B5493F"/>
<path d="M256.746 139.459C256.746 139.459 264.215 144.882 267.654 146.524L267.079 148.696C267.079 148.696 256.378 146.565 251.362 142.262L256.746 139.459Z" fill="#FFB27D"/>
<path d="M267.656 146.527C267.656 146.527 270.224 145.728 271.014 146.176C271.805 146.625 272.904 148.665 272.142 148.7C271.379 148.735 267.068 148.7 267.068 148.7L267.656 146.527Z" fill="#FFB27D"/>
<path d="M258.742 140.749L257.499 141.839L254.293 144.643C252.517 144.503 251.238 142.39 251.238 142.39C251.865 141.382 252.82 140.648 253.774 140.125C254.772 139.586 255.845 139.195 256.957 138.964L258.742 140.749Z" fill="#E6F1FF"/>
<path d="M285.673 142.391C285.673 142.391 284.392 144.505 282.619 144.644L278.973 141.453L278.168 140.752L279.687 139.019C280.528 139.172 281.352 139.41 282.144 139.73C283.408 140.239 284.855 141.075 285.673 142.391Z" fill="#E6F1FF"/>
<path d="M282.144 139.73C282.144 139.73 280.431 141.237 278.973 141.453L278.168 140.752L279.687 139.019C280.528 139.172 281.352 139.41 282.144 139.73Z" fill="#C7DCF2"/>
<path d="M258.742 140.749L257.499 141.838C255.346 141.822 253.773 140.127 253.773 140.127C254.771 139.587 255.843 139.196 256.955 138.966L258.742 140.749Z" fill="#C7DCF2"/>
<path d="M268.239 122.469C268.239 122.415 268.256 122.363 268.286 122.318C268.316 122.274 268.359 122.239 268.409 122.219C268.459 122.198 268.514 122.193 268.567 122.204C268.62 122.214 268.668 122.24 268.706 122.279C268.744 122.317 268.77 122.365 268.781 122.418C268.791 122.471 268.786 122.525 268.765 122.575C268.744 122.624 268.709 122.667 268.664 122.697C268.619 122.726 268.566 122.742 268.512 122.742C268.44 122.742 268.37 122.713 268.319 122.662C268.268 122.611 268.239 122.541 268.239 122.469Z" fill="#35488B"/>
<path d="M267.96 129.443C267.961 129.341 267.992 129.241 268.05 129.156C268.107 129.072 268.189 129.006 268.284 128.968C268.379 128.929 268.483 128.92 268.584 128.94C268.685 128.96 268.777 129.01 268.849 129.083C268.921 129.155 268.971 129.247 268.99 129.348C269.01 129.448 268.999 129.552 268.96 129.646C268.921 129.74 268.854 129.821 268.768 129.877C268.683 129.934 268.583 129.964 268.48 129.964C268.342 129.964 268.209 129.908 268.112 129.81C268.014 129.713 267.96 129.58 267.96 129.443Z" fill="#A53D38"/>
<path d="M267.96 137.824C267.961 137.722 267.992 137.622 268.05 137.538C268.108 137.454 268.19 137.388 268.285 137.35C268.38 137.312 268.484 137.302 268.585 137.323C268.685 137.343 268.777 137.393 268.85 137.466C268.922 137.538 268.971 137.63 268.99 137.731C269.01 137.831 268.999 137.934 268.96 138.029C268.92 138.123 268.854 138.203 268.768 138.26C268.683 138.317 268.583 138.347 268.48 138.347C268.411 138.346 268.343 138.333 268.28 138.306C268.217 138.28 268.159 138.241 268.111 138.192C268.063 138.144 268.025 138.086 267.999 138.023C267.973 137.96 267.96 137.892 267.96 137.824Z" fill="#A53D38"/>
<path d="M162.725 98.7281C162.725 98.7281 156.254 97.3849 155.036 102.934C154.027 107.527 158.881 113.44 158.881 113.44H167.478C167.478 113.44 177.085 97.5952 162.725 98.7281Z" fill="#1B2E59"/>
<path d="M182.041 187.234C182.012 187.236 181.982 187.236 181.952 187.234C181.841 187.239 181.732 187.207 181.641 187.143C181.551 187.078 181.485 186.986 181.453 186.879L175.806 162.585L175.396 160.815L177.328 160.731L177.958 164.043L182.315 186.896C182.32 186.936 182.317 186.977 182.306 187.016C182.295 187.056 182.276 187.092 182.251 187.124C182.225 187.155 182.194 187.181 182.157 187.2C182.121 187.219 182.082 187.231 182.041 187.234Z" fill="#E5BD9E"/>
<path d="M153.333 160.819L152.403 164.818L147.273 186.885C147.242 186.991 147.176 187.084 147.085 187.148C146.995 187.212 146.885 187.245 146.774 187.24C146.745 187.242 146.715 187.242 146.686 187.24C146.645 187.236 146.606 187.225 146.571 187.206C146.535 187.187 146.504 187.161 146.479 187.129C146.453 187.098 146.435 187.062 146.424 187.024C146.413 186.985 146.41 186.944 146.415 186.905L151.057 162.541L151.401 160.741L153.333 160.819Z" fill="#E5BD9E"/>
<path d="M153.333 160.819L152.403 164.817C152.375 164.358 152.239 163.913 152.005 163.516C151.771 163.119 151.446 162.783 151.057 162.535L151.401 160.735L153.333 160.819Z" fill="#CC9E7F"/>
<path d="M177.956 164.052C177.002 162.65 175.842 162.65 175.807 162.596L175.396 160.826L177.329 160.742L177.956 164.052Z" fill="#CC9E7F"/>
<path d="M177.464 160.993H149.493C148.11 160.993 146.988 159.877 146.988 158.501V156.502C146.988 155.126 148.11 154.01 149.493 154.01H177.464C178.847 154.01 179.968 155.126 179.968 156.502V158.501C179.968 159.877 178.847 160.993 177.464 160.993Z" fill="#C65447"/>
<path d="M173.272 145.796C172.445 141.204 170.031 135.982 170.031 135.982C171.785 128.663 169.994 120.433 169.994 120.433C169.028 120.174 168.044 119.987 167.05 119.872C166.927 119.219 166.572 117.254 166.421 115.562C166.404 115.366 166.39 115.174 166.378 114.987C166.349 114.562 166.349 114.134 166.378 113.709L165.14 113.79L160.05 114.128L159.833 114.142C159.833 114.142 159.864 114.595 159.872 115.28C159.888 116.511 159.827 118.48 159.385 119.893C157.193 120.119 155.71 120.437 155.71 120.437C154.276 120.68 154.583 129.559 157.261 136.461C158.495 139.638 155.006 144.555 155.006 145.799C155.006 147.043 173.572 147.455 173.272 145.796Z" fill="#FFB27D"/>
<path d="M166.418 115.56C165.94 116.12 164.727 117.323 163.197 117.35C161.199 117.385 159.863 115.278 159.863 115.278C159.895 114.89 159.954 114.505 160.04 114.125L165.131 113.787C165.567 114.163 165.983 114.562 166.377 114.98C166.387 115.171 166.401 115.363 166.418 115.56Z" fill="#EF9E67"/>
<path d="M163.158 116.159C160.387 116.159 158.121 113.88 158.121 111.097V106.878C158.119 105.979 158.474 105.116 159.11 104.477C159.745 103.838 160.61 103.475 161.513 103.467H164.57C165.474 103.475 166.338 103.838 166.974 104.477C167.609 105.116 167.965 105.979 167.962 106.878V111.336C167.964 112.608 167.46 113.829 166.56 114.732C165.659 115.636 164.437 116.149 163.158 116.159Z" fill="#FFB27D"/>
<path d="M149.464 154.013C149.464 154.013 152.846 146.129 155.956 144.588C159.067 143.047 171.415 144.416 173.27 145.797C175.125 147.178 177.498 154.013 177.498 154.013H149.464Z" fill="#22356B"/>
<path d="M152.557 154.012C152.557 154.012 153.765 149.283 156.456 149.077C159.146 148.871 162.734 151.371 164.01 150.698C165.285 150.025 167.72 148.336 169.981 148.767C172.242 149.197 175.644 154.012 175.644 154.012H152.557Z" fill="#1B2E59"/>
<path d="M164.616 183.805L161.409 183.847C161.409 183.847 159.906 178.709 158.245 172.712C158.091 172.151 157.932 171.582 157.775 171.009C156.403 166.009 155.008 160.702 154.325 157.427C154.162 156.642 154.044 155.932 153.975 155.287C153.329 149.658 155.852 149.19 156.456 149.078C157.129 148.956 161.248 147.055 163.551 154.406C164.327 156.882 165.431 163.704 165.017 170.078C164.618 176.205 164.616 183.805 164.616 183.805Z" fill="#FFB27D"/>
<path d="M172.118 170.432C170.782 177.401 169.286 184.003 169.286 184.003L165.563 183.636C165.563 183.636 165.325 177.715 164.755 171.185C164.709 170.666 164.714 170.141 164.695 169.615C164.514 164.659 164.384 159.534 164.46 156.35C164.652 148.527 167.756 148.678 168.439 148.713C169.121 148.748 173.564 147.847 174.132 155.526C174.315 158.024 173.282 164.366 172.118 170.432Z" fill="#FFB27D"/>
<path d="M158.242 172.712C158.088 172.151 157.929 171.581 157.772 171.008C156.4 166.008 155.004 160.702 154.322 157.426C154.159 156.641 154.04 155.932 153.971 155.287C154.042 155.52 158.566 170.275 163.093 171.371C165.997 172.075 161.723 172.497 158.242 172.712Z" fill="#EF9E67"/>
<path d="M164.753 171.185C164.734 170.665 164.712 170.14 164.694 169.615C164.512 164.658 164.383 159.534 164.459 156.35C164.459 156.35 165.386 169.853 169.992 170.888C173.036 171.573 168.305 171.388 164.753 171.185Z" fill="#EF9E67"/>
<path d="M172.115 170.432C171.355 174.388 170.546 178.224 169.987 180.807C169.564 182.77 169.282 184.005 169.282 184.005L165.336 183.701C165.336 183.701 164.993 177.714 165.016 170.073C165.546 170.317 166.752 170.578 169.176 170.559C170.004 170.552 170.976 170.516 172.115 170.432Z" fill="#E9F3FE"/>
<path d="M169.986 180.804C169.563 182.767 169.282 184.002 169.282 184.002L165.335 183.698C165.335 183.698 164.68 177.512 164.703 169.871C165.233 170.115 166.752 170.572 169.176 170.557C169.173 170.557 167.486 178.388 169.986 180.804Z" fill="#C7DCF2"/>
<path d="M169.546 186.083C169.546 186.24 169.546 186.386 169.546 186.513C169.545 186.583 169.529 186.651 169.5 186.714C169.472 186.777 169.431 186.834 169.38 186.881C169.328 186.928 169.268 186.964 169.203 186.987C169.137 187.011 169.068 187.021 168.998 187.017L165.193 186.77C165.057 186.762 164.931 186.7 164.84 186.6C164.75 186.499 164.704 186.366 164.711 186.232C164.755 185.441 164.931 184.664 165.232 183.931C165.262 183.859 165.308 183.795 165.366 183.744C165.424 183.692 165.494 183.655 165.569 183.635C167.503 183.134 168.687 183.635 169.111 183.885C169.168 183.916 169.218 183.959 169.257 184.01C169.297 184.062 169.327 184.12 169.343 184.183C169.489 184.806 169.557 185.444 169.546 186.083Z" fill="#35488B"/>
<path d="M169.192 184.047C169.192 184.047 168.769 183.255 167.509 183.035C167.142 182.97 166.766 182.996 166.412 183.111C166.058 183.226 165.738 183.426 165.481 183.694L165.257 183.869C165.293 183.827 166.162 182.59 167.544 182.832C167.934 182.887 168.303 183.04 168.617 183.277C168.931 183.513 169.179 183.825 169.338 184.183L169.192 184.047Z" fill="#35488B"/>
<path d="M169.542 186.083C169.542 186.24 169.542 186.386 169.542 186.513C169.541 186.582 169.525 186.651 169.497 186.714C169.468 186.777 169.427 186.834 169.376 186.881C169.325 186.928 169.264 186.964 169.199 186.987C169.133 187.011 169.064 187.021 168.994 187.017L165.189 186.77C165.054 186.761 164.927 186.7 164.837 186.599C164.746 186.498 164.7 186.366 164.707 186.231C164.72 185.989 164.746 185.748 164.785 185.509C164.785 185.509 164.983 186.388 167.3 186.508C168.694 186.578 169.292 186.306 169.542 186.083Z" fill="#22356B"/>
<path d="M164.615 183.804L161.373 184.32L160.546 184.46C160.546 184.46 159.61 177.708 157.774 171.015C160.128 171.264 162.508 170.942 164.711 170.077C164.974 176.899 164.615 183.804 164.615 183.804Z" fill="#E9F3FE"/>
<path d="M161.374 184.321L160.547 184.461C160.547 184.461 159.611 177.709 157.774 171.015C159.18 171.173 160.602 171.119 161.991 170.854C161.991 170.854 160.351 180.631 161.374 184.321Z" fill="#C7DCF2"/>
<path d="M165.23 185.615C165.264 185.769 165.292 185.911 165.316 186.035C165.33 186.103 165.329 186.173 165.315 186.241C165.301 186.308 165.273 186.373 165.234 186.43C165.195 186.486 165.144 186.535 165.086 186.572C165.027 186.61 164.962 186.635 164.893 186.647L161.125 187.233C160.991 187.253 160.855 187.221 160.745 187.142C160.635 187.063 160.561 186.945 160.538 186.812C160.5 186.573 160.473 186.332 160.46 186.09C160.425 185.542 160.456 184.993 160.553 184.452C160.566 184.376 160.598 184.303 160.644 184.24C160.69 184.177 160.75 184.126 160.819 184.089C162.599 183.182 163.863 183.416 164.331 183.565C164.393 183.584 164.451 183.615 164.501 183.657C164.551 183.698 164.592 183.749 164.623 183.806C164.898 184.382 165.102 184.99 165.23 185.615Z" fill="#35488B"/>
<path d="M164.444 183.706C164.444 183.699 163.867 183.023 162.583 183.083C162.212 183.101 161.851 183.208 161.531 183.397C161.212 183.586 160.944 183.851 160.751 184.167L160.57 184.386C160.596 184.337 161.18 182.94 162.581 182.876C162.972 182.846 163.366 182.915 163.723 183.078C164.08 183.241 164.39 183.492 164.623 183.807L164.444 183.706Z" fill="#35488B"/>
<path d="M165.23 185.615C165.264 185.769 165.292 185.911 165.316 186.036C165.33 186.104 165.329 186.173 165.315 186.241C165.301 186.309 165.273 186.373 165.234 186.43C165.195 186.487 165.144 186.535 165.086 186.573C165.027 186.61 164.962 186.635 164.893 186.647L161.125 187.233C160.991 187.254 160.855 187.221 160.745 187.143C160.635 187.064 160.561 186.945 160.538 186.812C160.5 186.573 160.473 186.332 160.46 186.09C160.46 186.09 160.841 186.906 163.129 186.511C164.507 186.284 165.033 185.889 165.23 185.615Z" fill="#22356B"/>
<path d="M180.249 142.391L175.811 140.162L174.476 139.492C174.08 138.589 172.744 135.764 171.918 134.146C172.172 135.256 172.421 136.402 172.654 137.527C173.564 141.898 174.255 146.01 174.148 146.89C173.903 148.895 166.108 147.992 164.098 147.51C162.088 147.028 157.518 148.131 153.863 148.061C151.761 148.022 152.406 142.139 153.332 137.154C153.552 135.96 153.792 134.814 154.011 133.816C152.83 136.177 151.616 138.671 151.324 139.458L148.807 140.789L145.953 142.299C145.946 142.287 145.942 142.274 145.94 142.261C145.768 141.363 148.69 124.455 152.554 121.547C153.329 120.931 154.223 120.479 155.18 120.22C156.137 119.96 157.138 119.899 158.12 120.038C158.12 120.038 159.388 122.308 163.052 122.479C164.107 122.538 165.162 122.357 166.136 121.949C167.109 121.541 167.977 120.917 168.671 120.125C168.671 120.125 171.734 120.201 172.97 121.547C174.206 122.893 180.126 134.263 180.249 142.391Z" fill="#0052B4"/>
<path d="M174.152 146.89C173.907 148.895 166.112 147.992 164.102 147.509C162.093 147.027 157.522 148.13 153.868 148.06C151.765 148.021 152.411 142.138 153.337 137.154C153.337 137.154 157.298 144.125 162.236 144.077C167.175 144.029 172.666 137.527 172.666 137.527C173.565 141.9 174.259 146.009 174.152 146.89Z" fill="#B5493F"/>
<path d="M174.746 139.459C174.746 139.459 167.276 144.882 163.838 146.524L164.413 148.696C164.413 148.696 175.114 146.565 180.13 142.262L174.746 139.459Z" fill="#FFB27D"/>
<path d="M163.838 146.527C163.838 146.527 161.27 145.728 160.479 146.176C159.689 146.625 158.59 148.665 159.345 148.7C160.1 148.735 164.419 148.7 164.419 148.7L163.838 146.527Z" fill="#0052B4"/>
<path d="M159.666 118.558C159.666 118.558 161.385 121.95 163.058 122.484C163.058 122.484 160.678 123.388 157.208 119.973C157.458 119.544 157.816 119.187 158.247 118.939C158.678 118.691 159.168 118.56 159.666 118.558Z" fill="#E6F1FF"/>
<path d="M154.012 133.816C152.831 136.177 151.616 138.671 151.324 139.457L148.807 140.788C148.631 140.715 148.49 140.577 148.414 140.404C147.657 138.885 154.012 133.816 154.012 133.816Z" fill="#B5493F"/>
<path d="M166.882 118.558C166.882 118.558 164.733 121.95 163.058 122.484C163.058 122.484 165.868 123.388 169.338 119.973C169.089 119.544 168.731 119.187 168.3 118.939C167.869 118.691 167.38 118.559 166.882 118.558Z" fill="#E6F1FF"/>
<path d="M176.498 139.937C176.289 140.059 176.055 140.135 175.813 140.159L174.479 139.489C174.083 138.586 172.747 135.761 171.921 134.143C171.921 134.145 178.25 138.955 176.498 139.937Z" fill="#B5493F"/>
<path d="M151.327 139.459C151.327 139.459 158.797 144.882 162.236 146.524L161.661 148.696C161.661 148.696 150.96 146.565 145.944 142.262L151.327 139.459Z" fill="#FFB27D"/>
<path d="M162.233 146.527C162.233 146.527 164.801 145.728 165.591 146.176C166.382 146.625 167.481 148.665 166.719 148.7C165.956 148.735 161.645 148.7 161.645 148.7L162.233 146.527Z" fill="#FFB27D"/>
<path d="M153.323 140.749L152.08 141.839L148.874 144.643C147.098 144.503 145.819 142.39 145.819 142.39C146.446 141.382 147.401 140.648 148.356 140.125C149.354 139.586 150.426 139.195 151.538 138.964L153.323 140.749Z" fill="#E6F1FF"/>
<path d="M180.249 142.391C180.249 142.391 178.968 144.505 177.195 144.644L173.549 141.453L172.744 140.752L174.265 139.019C175.107 139.172 175.93 139.41 176.723 139.73C177.984 140.239 179.432 141.075 180.249 142.391Z" fill="#E6F1FF"/>
<path d="M176.725 139.73C176.725 139.73 175.011 141.237 173.552 141.453L172.748 140.752L174.268 139.019C175.11 139.172 175.933 139.41 176.725 139.73Z" fill="#C7DCF2"/>
<path d="M153.323 140.749L152.08 141.838C149.927 141.822 148.354 140.127 148.354 140.127C149.352 139.587 150.424 139.196 151.536 138.966L153.323 140.749Z" fill="#C7DCF2"/>
<path d="M162.82 122.469C162.821 122.415 162.837 122.363 162.867 122.318C162.897 122.274 162.94 122.239 162.99 122.219C163.04 122.198 163.095 122.193 163.148 122.204C163.201 122.214 163.249 122.24 163.287 122.279C163.326 122.317 163.351 122.365 163.362 122.418C163.372 122.471 163.367 122.525 163.346 122.575C163.325 122.624 163.29 122.667 163.245 122.697C163.2 122.726 163.148 122.742 163.094 122.742C163.022 122.74 162.953 122.711 162.902 122.66C162.851 122.609 162.822 122.541 162.82 122.469Z" fill="#35488B"/>
<path d="M162.541 129.443C162.542 129.341 162.573 129.241 162.631 129.156C162.688 129.072 162.77 129.006 162.865 128.968C162.96 128.929 163.065 128.92 163.165 128.94C163.266 128.96 163.358 129.01 163.43 129.083C163.503 129.155 163.552 129.247 163.571 129.348C163.591 129.448 163.581 129.552 163.541 129.646C163.502 129.74 163.435 129.821 163.35 129.877C163.264 129.934 163.164 129.964 163.061 129.964C162.923 129.964 162.79 129.908 162.693 129.81C162.595 129.713 162.541 129.58 162.541 129.443Z" fill="#A53D38"/>
<path d="M162.541 137.824C162.542 137.722 162.574 137.622 162.631 137.538C162.689 137.454 162.771 137.388 162.866 137.35C162.961 137.312 163.065 137.302 163.166 137.323C163.267 137.343 163.359 137.393 163.431 137.466C163.503 137.538 163.552 137.63 163.572 137.731C163.591 137.831 163.581 137.934 163.541 138.029C163.502 138.123 163.435 138.203 163.349 138.26C163.264 138.317 163.164 138.347 163.061 138.347C162.992 138.346 162.925 138.333 162.861 138.306C162.798 138.28 162.741 138.241 162.692 138.192C162.644 138.144 162.606 138.086 162.58 138.023C162.554 137.96 162.541 137.892 162.541 137.824Z" fill="#A53D38"/>
<path d="M156.482 104.987C156.482 104.987 150.353 105.613 151.983 111.577C153.614 117.541 152.777 118.564 152.777 118.564C153.254 118.537 153.705 118.338 154.045 118.003C154.045 118.003 153.763 118.454 152.699 120.13C150.454 123.673 156.172 125.748 156.172 125.748C156.172 125.748 155.259 123.409 156.807 122.59C159.767 121.023 161.014 116.95 159.158 115.15C154.901 111.019 156.482 104.987 156.482 104.987Z" fill="#1B2E59"/>
<path d="M169.332 104.987C169.332 104.987 175.463 105.613 173.832 111.577C172.202 117.541 173.037 118.564 173.037 118.564C172.56 118.537 172.109 118.338 171.769 118.003C171.769 118.003 172.051 118.454 173.116 120.13C175.361 123.673 169.642 125.748 169.642 125.748C169.642 125.748 170.556 123.409 169.008 122.59C166.048 121.023 164.8 116.95 166.657 115.15C170.921 111.019 169.332 104.987 169.332 104.987Z" fill="#1B2E59"/>
<path d="M158.122 107.996C158.122 107.996 161.448 108.348 162.56 107.614C162.56 107.614 163.29 105.411 162.56 104.836C162.56 104.836 163.926 106.018 163.67 107.581C163.67 107.581 165.744 107.518 166.207 107.263C166.207 107.263 166.066 106.273 165.793 105.861C165.793 105.861 166.506 106.659 166.664 107.234C166.664 107.234 168.189 107.394 168.506 106.813C168.823 106.233 166.061 99.242 161.676 101.195C157.292 103.148 156.86 106.784 158.122 107.996Z" fill="#1B2E59"/>
<path d="M154.924 104.849C154.924 104.849 154.29 105.23 154.332 105.636C154.374 106.041 155.871 107.444 155.871 107.444L154.924 104.849Z" fill="#C65447"/>
<path d="M170.58 104.849C170.58 104.849 171.213 105.23 171.171 105.636C171.128 106.041 169.633 107.444 169.633 107.444L170.58 104.849Z" fill="#C65447"/>
<path d="M44.8973 99.9791C44.8973 99.9791 41.3275 97.9055 38.8372 99.3706C36.3469 100.836 33.3083 109.997 33.7748 111.874C34.2413 113.752 36.2666 115.159 36.2666 115.159C36.2666 115.159 35.9748 114.049 36.2666 113.273C36.2666 113.273 36.5639 115.409 38.172 116.078C39.78 116.746 45.812 117.24 47.0508 116.938C48.4728 116.591 49.3283 116.129 49.93 114.537C50.5318 112.944 54.2525 98.5476 44.8973 99.9791Z" fill="#1B2E59"/>
<path d="M61.7375 187.234C61.7079 187.236 61.6782 187.236 61.6486 187.234C61.5376 187.239 61.428 187.207 61.3375 187.143C61.2471 187.078 61.1809 186.986 61.1498 186.879L55.5012 162.585L55.0911 160.815L57.0218 160.731L57.6532 164.043L62.008 186.896C62.0135 186.936 62.0108 186.977 62.0001 187.016C61.9893 187.055 61.9707 187.091 61.9454 187.123C61.9201 187.154 61.8886 187.18 61.8529 187.2C61.8171 187.219 61.7779 187.23 61.7375 187.234Z" fill="#E5BD9E"/>
<path d="M33.0268 160.819L32.0981 164.818L26.9667 186.885C26.9355 186.991 26.8694 187.084 26.7789 187.148C26.6885 187.213 26.5789 187.245 26.4678 187.24C26.4382 187.242 26.4085 187.242 26.379 187.24C26.3389 187.236 26.2999 187.225 26.2644 187.206C26.229 187.187 26.1977 187.161 26.1726 187.129C26.1475 187.098 26.1289 187.062 26.1181 187.023C26.1073 186.985 26.1045 186.944 26.1098 186.905L30.7507 162.541L31.096 160.741L33.0268 160.819Z" fill="#E5BD9E"/>
<path d="M33.0268 160.819L32.0981 164.817C32.0698 164.358 31.9331 163.912 31.699 163.516C31.4649 163.119 31.14 162.783 30.7507 162.535L31.096 160.735L33.0268 160.819Z" fill="#CC9E7F"/>
<path d="M57.6494 164.052C56.6938 162.65 55.5354 162.65 55.4987 162.596L55.0886 160.826L57.0194 160.742L57.6494 164.052Z" fill="#CC9E7F"/>
<path d="M57.1622 160.993H29.1912C27.808 160.993 26.6868 159.877 26.6868 158.501V156.502C26.6868 155.126 27.808 154.01 29.1912 154.01H57.1622C58.5453 154.01 59.6666 155.126 59.6666 156.502V158.501C59.6666 159.877 58.5453 160.993 57.1622 160.993Z" fill="#C65447"/>
<path d="M52.9656 145.796C52.137 141.204 49.7242 135.982 49.7242 135.982C51.4802 128.663 49.6875 120.433 49.6875 120.433C48.7218 120.174 47.7382 119.987 46.7448 119.872C46.6208 119.219 46.2657 117.254 46.1149 115.562C46.0994 115.366 46.0853 115.174 46.0726 114.987C46.0439 114.562 46.0439 114.134 46.0726 113.709L44.8366 113.79L39.7447 114.128L39.529 114.142C39.529 114.142 39.5601 114.595 39.5685 115.28C39.584 116.511 39.5234 118.48 39.0795 119.893C36.8894 120.119 35.4053 120.437 35.4053 120.437C33.972 120.68 34.2779 129.559 36.9556 136.461C38.1888 139.638 34.7007 144.555 34.7007 145.799C34.7007 147.043 53.2644 147.455 52.9656 145.796Z" fill="#FFB27D"/>
<path d="M46.1104 115.56C45.6326 116.12 44.4277 117.323 42.8915 117.35C40.8917 117.385 39.557 115.278 39.557 115.278C39.5885 114.89 39.6474 114.505 39.7332 114.125L44.8251 113.787C45.2596 114.165 45.6745 114.565 46.0682 114.985C46.0808 115.171 46.0949 115.363 46.1104 115.56Z" fill="#EF9E67"/>
<path d="M42.0417 116.13C39.3076 115.68 37.4374 113.063 37.8841 110.315L38.5606 106.147C38.703 105.26 39.1933 104.466 39.9239 103.938C40.6545 103.411 41.5657 103.193 42.4574 103.333L45.4734 103.828C46.3646 103.982 47.1586 104.48 47.683 105.213C48.2074 105.946 48.4197 106.856 48.2737 107.744L47.5578 112.139C47.3582 113.396 46.6649 114.523 45.6304 115.271C44.596 116.019 43.305 116.328 42.0417 116.13Z" fill="#FFB27D"/>
<path d="M40.9098 112.758C40.9098 112.758 40.9098 113.435 42.5164 113.723C42.5164 113.723 43.868 113.965 43.9976 113.25C43.9976 113.25 42.8265 112.434 40.9098 112.758Z" fill="white"/>
<path d="M29.1598 154.013C29.1598 154.013 32.5492 146.129 35.6526 144.588C38.7559 143.047 51.113 144.416 52.9676 145.797C54.8223 147.178 57.1956 154.013 57.1956 154.013H29.1598Z" fill="#22356B"/>
<path d="M32.2502 154.012C32.2502 154.012 33.4594 149.283 36.1484 149.077C38.8374 148.871 42.427 151.371 43.7024 150.698C44.9778 150.025 47.4146 148.336 49.6751 148.767C51.9357 149.197 55.3365 154.012 55.3365 154.012H32.2502Z" fill="#1B2E59"/>
<path d="M52.5379 169.875C52.4872 176.97 52.2109 183.735 52.2109 183.735L48.4861 184.054C48.4861 184.054 47.1782 178.277 45.4348 171.959C45.2939 171.459 45.2051 170.942 45.091 170.427C44.0156 165.587 42.9587 160.572 42.4569 157.427C41.2294 149.699 44.3088 149.28 44.9853 149.19C45.6617 149.1 49.87 147.401 51.8177 154.847C52.4505 157.266 52.5802 163.696 52.5379 169.875Z" fill="#FFB27D"/>
<path d="M45.4358 171.959C45.3212 171.452 45.2066 170.941 45.0919 170.426C44.0166 165.586 42.9596 160.571 42.4579 157.426C42.4579 157.426 45.8163 170.534 50.532 170.709C53.6494 170.827 48.9648 171.51 45.4358 171.959Z" fill="#EF9E67"/>
<path d="M52.5402 169.873C52.512 173.902 52.4092 177.822 52.3274 180.46C52.2654 182.468 52.2132 183.734 52.2132 183.734L48.2756 184.155C48.2756 184.155 46.855 178.332 45.4921 170.814C46.0559 170.954 47.2904 170.994 49.6708 170.534C50.4868 170.377 51.4367 170.162 52.5402 169.873Z" fill="#E9F3FE"/>
<path d="M52.3261 180.457C52.2641 182.464 52.212 183.73 52.212 183.73L48.2743 184.151C48.2743 184.151 46.5098 178.189 45.1484 170.672C45.7121 170.812 47.2892 170.99 49.6695 170.531C49.6695 170.533 49.43 178.543 52.3261 180.457Z" fill="#C7DCF2"/>
<path d="M52.8456 185.733C52.8738 185.887 52.8977 186.03 52.9175 186.154C52.9284 186.222 52.9254 186.292 52.9087 186.359C52.8919 186.427 52.8617 186.49 52.8199 186.545C52.7781 186.601 52.7255 186.647 52.6653 186.682C52.6051 186.717 52.5384 186.739 52.4693 186.748L48.6838 187.202C48.5491 187.219 48.4133 187.182 48.306 187.099C48.1988 187.016 48.1289 186.895 48.1117 186.761C48.0134 185.975 48.0458 185.178 48.2075 184.402C48.2239 184.326 48.2579 184.254 48.3068 184.193C48.3557 184.132 48.4182 184.082 48.4894 184.049C50.3003 183.208 51.5547 183.488 52.0127 183.648C52.0741 183.669 52.1307 183.702 52.1791 183.745C52.2275 183.788 52.2667 183.841 52.2946 183.899C52.5528 184.486 52.7379 185.102 52.8456 185.733Z" fill="#35488B"/>
<path d="M52.1337 183.797C52.1337 183.797 51.5799 183.096 50.2946 183.108C49.9219 183.111 49.5558 183.206 49.2288 183.384C48.9018 183.562 48.624 183.817 48.4201 184.128L48.2313 184.341C48.2595 184.293 48.8895 182.918 50.2932 182.902C50.6859 182.885 51.0764 182.968 51.4278 183.143C51.7793 183.319 52.08 183.58 52.3015 183.903L52.1337 183.797Z" fill="#35488B"/>
<path d="M52.8456 185.732C52.8738 185.886 52.8977 186.029 52.9175 186.153C52.9284 186.221 52.9254 186.291 52.9087 186.359C52.8919 186.426 52.8617 186.489 52.8199 186.545C52.7781 186.6 52.7255 186.646 52.6653 186.681C52.6051 186.716 52.5384 186.739 52.4693 186.747L48.6838 187.202C48.5491 187.218 48.4133 187.181 48.306 187.098C48.1988 187.016 48.1289 186.894 48.1117 186.76C48.0808 186.519 48.0629 186.278 48.0581 186.035C48.0581 186.035 48.4118 186.865 50.7105 186.557C52.1001 186.374 52.6398 185.999 52.8456 185.732Z" fill="#22356B"/>
<path d="M38.3676 184.452L35.2671 183.622C35.2671 183.622 35.2008 178.266 35.2107 172.041C35.2107 171.459 35.2107 170.868 35.2107 170.274C35.2318 165.086 35.3122 159.599 35.5349 156.26C35.5884 155.46 35.6687 154.745 35.7716 154.105C36.6623 148.51 39.2174 148.743 39.8291 148.799C40.5084 148.863 44.9872 148.149 45.2324 155.847C45.3156 158.441 44.5447 165.309 42.4349 171.334C40.4097 177.133 38.3676 184.452 38.3676 184.452Z" fill="#FFB27D"/>
<path d="M35.2079 172.044C35.2079 171.463 35.2079 170.872 35.2079 170.278C35.229 165.09 35.3094 159.603 35.5321 156.264C35.5856 155.464 35.6659 154.749 35.7688 154.109C35.7688 154.352 36.1691 169.787 40.2336 172.07C42.8465 173.531 38.6199 172.781 35.2079 172.044Z" fill="#EF9E67"/>
<path d="M38.3665 184.451L35.1053 184.068L34.2738 183.972C34.2738 183.972 35.1857 177.215 35.2153 170.273C36.5257 170.806 37.9092 171.139 39.3192 171.262C40.377 171.328 41.4386 171.301 42.4916 171.182C40.9118 177.831 38.3665 184.451 38.3665 184.451Z" fill="#E9F3FE"/>
<path d="M35.1028 184.068L34.2712 183.972C34.2712 183.972 35.1831 177.215 35.2127 170.273C36.5231 170.806 37.9066 171.139 39.3167 171.262C39.3167 171.262 35.1098 180.236 35.1028 184.068Z" fill="#C7DCF2"/>
<path d="M38.6111 186.266C38.6223 186.423 38.6294 186.568 38.6336 186.697C38.6365 186.766 38.6253 186.835 38.6008 186.9C38.5763 186.965 38.5389 187.024 38.4909 187.074C38.443 187.124 38.3853 187.164 38.3215 187.192C38.2576 187.22 38.1888 187.234 38.1192 187.235H34.3055C34.1702 187.235 34.0403 187.182 33.9438 187.088C33.8473 186.993 33.792 186.865 33.7897 186.73C33.7868 186.487 33.7971 186.244 33.8207 186.003C33.8691 185.456 33.9832 184.918 34.1604 184.399C34.1853 184.325 34.2269 184.258 34.2819 184.204C34.3368 184.149 34.4038 184.107 34.4775 184.082C36.3745 183.455 37.5879 183.88 38.0276 184.097C38.0861 184.125 38.1385 184.164 38.1818 184.212C38.2251 184.261 38.2585 184.317 38.2799 184.378C38.4671 184.991 38.5783 185.626 38.6111 186.266Z" fill="#35488B"/>
<path d="M38.1264 184.259C38.1264 184.259 37.6585 183.496 36.3803 183.36C36.01 183.319 35.6352 183.369 35.2894 183.507C34.9436 183.645 34.6376 183.866 34.3987 184.151L34.1873 184.34C34.2211 184.295 35.0075 183.004 36.4028 183.154C36.795 183.183 37.1732 183.312 37.5017 183.527C37.8301 183.743 38.098 184.038 38.28 184.385L38.1264 184.259Z" fill="#35488B"/>
<path d="M38.6111 186.266C38.6223 186.423 38.6294 186.568 38.6336 186.697C38.6365 186.766 38.6253 186.835 38.6008 186.9C38.5763 186.965 38.5389 187.024 38.4909 187.074C38.443 187.124 38.3853 187.165 38.3215 187.192C38.2576 187.22 38.1888 187.234 38.1192 187.235H34.3055C34.1702 187.235 34.0403 187.182 33.9438 187.088C33.8473 186.993 33.792 186.865 33.7897 186.73C33.7868 186.487 33.7971 186.245 33.8207 186.003C33.8207 186.003 34.0758 186.869 36.3956 186.834C37.7965 186.816 38.3757 186.506 38.6111 186.266Z" fill="#22356B"/>
<path d="M58.5468 139.797L53.3802 139.881C52.9856 138.978 52.295 135.968 51.6129 134.151C51.8666 135.261 52.116 136.407 52.3486 137.532C53.2604 141.903 53.951 146.015 53.8439 146.895C53.5987 148.9 45.8022 147.997 43.7925 147.515C41.7828 147.033 37.2138 148.136 33.558 148.066C31.4566 148.027 32.1007 142.144 33.0266 137.159C33.2479 135.965 33.4861 134.819 33.7073 133.821C32.5263 136.182 31.9893 139.094 31.7032 139.881C31.7032 139.881 26.6565 139.553 26.655 139.54C26.4845 138.644 28.3843 124.453 32.2501 121.552C33.0252 120.936 33.9188 120.484 34.8759 120.225C35.8331 119.965 36.8335 119.903 37.8155 120.043C37.8155 120.043 39.0839 122.313 42.7482 122.484C43.8032 122.543 44.8578 122.362 45.8316 121.954C46.8054 121.546 47.6727 120.922 48.3672 120.13C48.3672 120.13 51.4297 120.206 52.6671 121.552C53.9045 122.898 56.6414 127.725 58.5468 139.797Z" fill="#C65447"/>
<path d="M53.845 146.89C53.5998 148.895 45.8034 147.992 43.7936 147.509C41.7839 147.027 37.2149 148.13 33.5591 148.06C31.4578 148.021 32.1018 142.138 33.0278 137.154C33.0278 137.154 36.9894 144.125 41.9277 144.077C46.866 144.029 52.3497 137.527 52.3497 137.527C53.2615 141.9 53.9521 146.009 53.845 146.89Z" fill="#B5493F"/>
<path d="M39.3637 118.558C39.3637 118.558 41.0817 121.95 42.756 122.484C42.756 122.484 40.3756 123.388 36.9058 119.973C37.155 119.544 37.5132 119.187 37.9446 118.939C38.3759 118.69 38.8653 118.559 39.3637 118.558Z" fill="#E6F1FF"/>
<path d="M46.5838 118.558C46.5838 118.558 44.4345 121.95 42.7617 122.484C42.7617 122.484 45.5719 123.388 49.0417 119.973C48.7923 119.544 48.434 119.187 48.0027 118.939C47.5714 118.691 47.0821 118.56 46.5838 118.558Z" fill="#E6F1FF"/>
<path d="M42.5138 122.469C42.5141 122.415 42.5304 122.363 42.5606 122.318C42.5909 122.274 42.6338 122.239 42.6839 122.219C42.734 122.198 42.7889 122.193 42.8419 122.204C42.8949 122.215 42.9435 122.241 42.9815 122.279C43.0196 122.317 43.0454 122.366 43.0556 122.419C43.0659 122.472 43.0602 122.526 43.0392 122.576C43.0183 122.625 42.983 122.668 42.9379 122.697C42.8928 122.727 42.8399 122.743 42.7858 122.742C42.7499 122.742 42.7144 122.735 42.6813 122.721C42.6482 122.707 42.6181 122.687 42.5929 122.662C42.5676 122.636 42.5476 122.606 42.5341 122.573C42.5205 122.54 42.5136 122.505 42.5138 122.469Z" fill="#35488B"/>
<path d="M42.2346 129.443C42.2354 129.341 42.2667 129.241 42.3243 129.156C42.382 129.072 42.4635 129.006 42.5585 128.968C42.6536 128.929 42.7581 128.92 42.8587 128.94C42.9593 128.96 43.0516 129.01 43.1239 129.083C43.1962 129.155 43.2453 129.247 43.265 129.348C43.2847 129.448 43.2742 129.552 43.2347 129.646C43.1952 129.74 43.1286 129.821 43.0431 129.877C42.9577 129.934 42.8573 129.964 42.7547 129.964C42.6162 129.964 42.4838 129.908 42.3863 129.81C42.2888 129.713 42.2342 129.58 42.2346 129.443Z" fill="#A53D38"/>
<path d="M42.2346 137.824C42.2357 137.722 42.2672 137.622 42.325 137.538C42.3828 137.454 42.4644 137.388 42.5595 137.35C42.6547 137.312 42.759 137.302 42.8595 137.323C42.96 137.343 43.0522 137.393 43.1244 137.466C43.1965 137.538 43.2455 137.63 43.2651 137.731C43.2847 137.831 43.2741 137.934 43.2346 138.029C43.1951 138.123 43.1284 138.203 43.043 138.26C42.9576 138.317 42.8573 138.347 42.7547 138.347C42.686 138.346 42.6181 138.333 42.5548 138.306C42.4915 138.28 42.4341 138.241 42.3858 138.192C42.3375 138.144 42.2993 138.086 42.2734 138.023C42.2474 137.96 42.2343 137.892 42.2346 137.824Z" fill="#A53D38"/>
<path d="M57.6363 153.507L57.6504 152.048C57.6504 152.048 59.6544 139.664 58.2662 139.28C56.8781 138.896 54.2666 140.215 54.2666 140.215L55.0882 152.048C55.0744 152.32 55.0342 152.59 54.9684 152.855C54.9332 152.855 54.898 152.869 54.8641 152.878C53.5013 153.268 54.3201 156.085 55.3363 156.134C56.0818 156.17 57.0458 155.047 57.6997 154.662C57.983 154.494 57.8998 153.706 57.6363 153.507Z" fill="#FFB27D"/>
<path d="M53.3808 139.875C53.3808 139.875 53.0581 141.621 53.8544 141.876C54.6507 142.131 58.718 142.259 58.9717 141.876C59.2253 141.493 58.873 138.563 58.267 138.347C57.661 138.131 53.76 138.932 53.3808 139.875Z" fill="#B5493F"/>
<path d="M30.2213 152.878C30.1874 152.868 30.1522 152.861 30.1184 152.854C30.0526 152.59 30.0125 152.32 29.9986 152.048L30.8202 140.215C30.8202 140.215 28.2073 138.897 26.8191 139.279C25.431 139.662 27.4364 152.048 27.4364 152.048L27.4491 153.506C27.1856 153.705 27.1024 154.488 27.3871 154.661C28.0396 155.047 29.0036 156.17 29.7492 156.134C30.7653 156.085 31.5841 153.268 30.2213 152.878Z" fill="#FFB27D"/>
<path d="M31.7056 139.875C31.7056 139.875 32.0284 141.621 31.2321 141.876C30.4358 142.131 26.3685 142.259 26.1148 141.876C25.8611 141.493 26.2149 138.563 26.8195 138.347C27.4241 138.131 31.3279 138.932 31.7056 139.875Z" fill="#B5493F"/>
<path d="M44.5095 104.353C44.5095 104.353 44.8195 107.157 46.6235 108.227C46.6235 108.227 45.985 106.536 46.4205 105.832C46.4205 105.832 46.7841 108.996 47.8637 110.241C47.8637 110.241 50.6654 104.266 45.6397 103.116C40.6141 101.967 38.1392 104.308 37.7954 106.225C37.5919 107.397 37.652 108.6 37.9715 109.747C37.9715 109.747 39.106 106.278 41.4949 105.605C43.8837 104.932 44.5095 104.353 44.5095 104.353Z" fill="#1B2E59"/>
<path d="M323.83 79.0146C323.83 79.0146 315.206 96.3693 314.105 99.1468C313.683 100.215 298.356 95.4818 298.356 95.4818C298.356 95.4818 297.052 94.3462 296.934 93.0759C296.904 92.7534 296.52 92.4029 295.957 92.0678L291.367 93.3857C291.824 94.534 292.396 95.6585 292.717 95.9473C293.384 96.5516 297.368 98.3014 297.368 98.3014C299.829 100.716 315.136 106.927 316.503 106.188C317.939 105.411 324.578 93.3885 327.149 90.2143C329.719 87.04 328.7 76.6339 323.83 79.0146Z" fill="#FFB27D"/>
<path d="M280.008 77.4211L275.368 78.6647L284.077 95.1529L295.21 92.4568L304.523 89.1072L298.17 72.2391L289.176 79.1484L280.008 77.4211Z" fill="#A03732"/>
<path d="M295.212 92.1681L288.87 76.9025C288.87 76.9025 281.156 74.139 276.186 77.4395L284.289 93.7132C284.289 93.7132 288.642 90.4688 295.212 92.1681Z" fill="#E9F3FE"/>
<path d="M298.649 70.9925C292.156 70.6083 288.871 76.9022 288.871 76.9022L295.213 92.1678C297.199 88.7033 305.296 88.4173 305.296 88.4173L298.649 70.9925Z" fill="#C7DCF2"/>
<path d="M304.403 178.634C304.403 178.634 305.319 182.981 304.403 184.173C303.487 185.364 300.988 185.648 301.045 187.355H313.151C313.151 187.355 312.739 184.297 311.46 182.995C310.18 181.692 308.91 174.089 308.91 174.089L304.403 178.634Z" fill="#163560"/>
<path d="M321.239 178.634C321.239 178.634 322.157 182.981 321.239 184.173C320.322 185.364 317.826 185.648 317.882 187.355H329.988C329.988 187.355 329.577 184.297 328.297 182.995C327.017 181.692 325.747 174.089 325.747 174.089L321.239 178.634Z" fill="#163560"/>
<path d="M345.947 141.331C345.102 141.511 344.248 141.64 343.388 141.718C339.019 142.192 330.833 142.559 322.962 142.64C320.165 142.671 317.408 142.667 314.873 142.621H314.84C312.639 142.579 310.612 142.504 308.865 142.395C306.937 142.276 305.364 142.106 304.318 141.887C303.556 141.73 303.071 141.545 302.923 141.327C301.67 139.504 298.554 135.87 298.951 133.105C299.029 132.525 299.281 131.983 299.674 131.549C299.674 131.549 301.814 130.737 305.171 129.586C311.836 127.319 323.312 123.746 332.501 122.59C337.925 121.905 342.553 122.062 344.924 123.829C353.346 130.107 351.314 140.019 345.947 141.331Z" fill="#B23636"/>
<path d="M327.127 176.207C325.803 179.088 321.433 179.23 321.433 179.23C320.438 176.956 319.514 174.786 318.661 172.722C312.722 158.376 310 148.896 308.905 142.66C308.89 142.57 308.876 142.486 308.862 142.398C307.161 132.432 309.685 130.916 309.685 130.916L309.837 130.886C311.915 130.451 314.081 130.85 315.865 131.996C318.875 133.897 321.162 137.744 322.878 142.413C322.903 142.488 322.931 142.565 322.959 142.643C325.165 148.744 326.402 156.204 327.005 162.552C327.675 169.584 327.564 175.254 327.127 176.207Z" fill="#892828"/>
<path d="M341.963 76.0691C341.963 76.0691 342.368 76.1153 342.977 76.2093C344.445 76.4532 347.096 77.0183 348.059 78.0236C349.422 79.4452 356.57 98.5946 356.196 101.372C355.823 104.15 347.819 108.416 345.099 108.744L341.963 76.0621V76.0691Z" fill="#0052B4"/>
<path d="M332.322 78.9266C332.294 78.9504 332.345 83.0458 335.87 82.1653C338.185 81.5877 342.648 77.7236 341.8 75.8056C341.396 74.8943 339.132 72.7743 337.64 67.1913L337.237 67.3918L330.472 70.7722C330.472 70.7722 331.248 72.9861 331.83 75.1186C332.325 76.8992 332.677 78.6237 332.322 78.9266Z" fill="#F4A269"/>
<path d="M327.578 72.2174C327.578 72.2174 337.75 74.5224 339.085 68.1332C340.419 61.744 342.632 57.7398 336.191 55.9942C329.751 54.2486 327.978 56.4148 327.015 58.4436C326.053 60.4724 324.965 71.4463 327.578 72.2174Z" fill="#FFB27D"/>
<path d="M348.057 131.986C348.057 131.986 341.844 137.079 342.206 140.602C342.569 144.125 337.295 139.901 337.295 139.901L339.698 131.989L348.057 131.986Z" fill="#A03732"/>
<path d="M335.496 68.3595C337.929 69.1909 341.646 64.3917 342.712 61.5946C344.018 58.1693 341.021 51.3722 333.199 52.3648C331.622 52.5581 330.11 53.104 328.775 53.9618C327.063 55.0834 322.508 57.9871 329.87 61.0856C332.634 62.2493 333.375 67.6346 335.496 68.3595Z" fill="#1C468A"/>
<path d="M336.41 141.331C334.589 141.778 329.223 142.172 322.881 142.414C320.317 142.51 317.59 142.585 314.873 142.624C314.862 142.625 314.851 142.625 314.84 142.624C312.838 142.653 310.836 142.669 308.908 142.66C307.62 142.66 306.372 142.643 305.165 142.618C305.647 143.953 306.083 145.351 306.476 146.789C309.871 159.217 310.084 174.567 309.335 176.192C308.011 179.073 303.64 179.213 303.64 179.213C299.536 169.82 296.677 162.213 294.715 156.064C287.874 134.642 291.896 130.903 291.896 130.903C291.896 130.903 295.42 128.722 300.626 127.389C310.304 124.912 324.955 120.818 332.513 122.6C333.661 122.867 334.634 123.274 335.395 123.84C337.745 125.589 339.277 127.626 340.153 129.667C342.417 134.969 340.28 140.385 336.41 141.331Z" fill="#A03732"/>
<path d="M350.677 130.036C350.144 130.784 349.237 131.438 348.06 131.986C339.638 135.933 319.475 127.2 320.437 121.355C320.775 119.296 322.371 119.309 323.615 115.948C324.582 113.338 325.277 110.892 325.244 108.501C325.234 107.474 325.075 106.454 324.772 105.472C324.014 103.033 323.318 99.1096 322.875 94.9286C322.123 87.8076 322.689 80.5898 324.382 78.0577C324.621 77.7001 338.536 73.7842 349.338 77.3188C349.338 77.3188 350.192 89.9275 347.725 103.084C347.392 104.838 347.549 106.65 348.178 108.321C350.14 113.531 354.013 125.356 350.677 130.036Z" fill="#0052B4"/>
<path d="M329.372 105.653C330.827 101.084 331.249 95.4183 328.288 89.5633C326.152 90.9905 324.311 92.8125 322.866 94.9304C323.309 99.1114 324.005 103.034 324.763 105.474C325.074 106.481 325.233 107.529 325.235 108.582C325.235 108.643 325.235 108.701 325.235 108.762C325.235 108.902 325.235 109.035 325.225 109.173C325.225 109.231 325.225 109.29 325.225 109.348C325.215 109.527 325.203 109.708 325.184 109.888C325.184 109.946 325.172 110.005 325.166 110.063C325.152 110.203 325.135 110.331 325.117 110.465C325.108 110.534 325.099 110.605 325.087 110.673C325.063 110.837 325.037 110.999 325.008 111.163C324.997 111.224 324.984 111.284 324.973 111.346C324.945 111.486 324.915 111.642 324.883 111.789C324.867 111.863 324.85 111.937 324.834 112.012C324.803 112.152 324.772 112.278 324.738 112.413C324.722 112.474 324.708 112.535 324.693 112.596C324.646 112.777 324.597 112.958 324.552 113.14C324.531 113.215 324.509 113.289 324.487 113.365C324.45 113.492 324.411 113.621 324.371 113.75L324.305 113.968C324.247 114.153 324.187 114.338 324.125 114.528L324.061 114.715C324.012 114.855 323.963 115.005 323.91 115.151L323.839 115.356C323.768 115.553 323.698 115.752 323.622 115.954C322.377 119.319 319.385 121.03 319.394 122.725C319.406 127.108 339.654 135.939 348.076 131.992C328.423 135.019 329.369 105.777 329.372 105.653Z" fill="#4395F2"/>
<path d="M325.885 57.9826C325.885 57.9826 326.946 65.6505 332.864 68.4378C332.864 68.4378 329 59.5543 330.957 57.8592C332.915 56.1641 325.885 57.9826 325.885 57.9826Z" fill="#1C468A"/>
<path d="M331.721 64.474C331.721 64.474 332.736 62.3962 333.679 62.7916C334.622 63.187 333.317 66.5463 332.692 66.5084C332.068 66.4706 331.721 64.474 331.721 64.474Z" fill="#FFB27D"/>
<path d="M330.536 90.0932C328.959 91.2542 326.243 97.4302 322.451 101.775C322.445 101.785 322.438 101.793 322.431 101.802C321.738 102.605 320.978 103.347 320.158 104.021C313.856 109.107 309.06 107.73 309.06 107.73C305.857 105.953 304.832 102.286 304.524 99.7969C304.413 98.9534 304.372 98.1023 304.401 97.2522C304.401 97.2522 312.253 98.6921 313.062 98.5827C313.87 98.4734 321.864 79.8512 322.951 78.7408C325.302 76.3475 334.939 75.7502 334.939 75.7502C337.488 74.6678 332.414 88.7066 330.536 90.0932Z" fill="#0052B4"/>
<path d="M322.452 101.776C322.446 101.785 322.439 101.794 322.432 101.803C321.739 102.606 320.979 103.348 320.159 104.022C313.858 109.107 309.062 107.73 309.062 107.73C305.858 105.954 304.834 102.286 304.525 99.7976C305.542 100.773 312.879 107.269 322.452 101.776Z" fill="#4395F2"/>
<path d="M356.826 76.8644C352.505 73.6929 347.93 69.8317 348.859 66.5144C351.012 58.8255 344.703 49.4962 338.148 52.247C334.625 53.7248 331.769 73.034 336.622 78.3478C336.192 77.2766 335.718 75.3824 335.522 72.0175C335.555 72.3498 335.997 76.5994 337.378 79.0278C344.449 88.3851 331.717 88.4889 336.86 96.9895C336.86 96.9895 337.298 99.9339 348.953 96.7189C351.008 96.1602 352.848 95.0048 354.24 93.4003C355.212 92.2702 356.097 90.8976 356.213 89.5656C356.169 91.5036 355.569 93.3888 354.483 94.9986C358.035 93.7368 360.346 90.1615 360.825 86.0591C361.193 82.99 360.47 79.5409 356.826 76.8644Z" fill="#1C468A"/>
<path d="M355.771 144.124H305.648C305.648 144.124 306.815 139.244 335.843 139.97C338.148 140.029 340.186 140.126 341.991 140.251C356.254 141.257 355.771 144.124 355.771 144.124Z" fill="#E5BD9E"/>
<path d="M317.596 187.96C323.426 161.882 321.927 145.885 321.92 145.684C321.906 145.282 322.743 144.917 323.188 144.905C323.634 144.892 325.657 144.787 325.89 145.13C326.194 145.58 327.37 165.293 318.681 187.96H317.596Z" fill="#A06B47"/>
<path d="M303.77 187.96C309.599 161.882 308.101 145.885 308.094 145.684C308.078 145.282 308.915 144.917 309.362 144.905C309.809 144.892 311.83 144.787 312.062 145.13C312.368 145.58 313.542 165.293 304.854 187.96H303.77Z" fill="#A06B47"/>
<path d="M356.525 144.904C356.526 145.109 356.446 145.306 356.301 145.452C356.157 145.598 355.96 145.682 355.754 145.685H305.356C305.255 145.685 305.155 145.665 305.061 145.625C304.968 145.586 304.884 145.528 304.814 145.455C304.706 145.346 304.633 145.208 304.603 145.059C304.573 144.909 304.588 144.754 304.645 144.612C304.703 144.471 304.801 144.35 304.928 144.263C305.054 144.177 305.203 144.129 305.356 144.126H355.754C355.856 144.126 355.956 144.147 356.049 144.186C356.143 144.226 356.227 144.283 356.298 144.355C356.444 144.501 356.525 144.698 356.525 144.904Z" fill="#CE9A78"/>
<path d="M343.54 144.124H305.643C305.643 144.124 306.813 139.244 335.931 139.97C338.244 140.029 340.29 140.126 342.1 140.251C342.01 140.86 341.859 142.846 343.54 144.124Z" fill="#D6A685"/>
<path d="M356.525 144.904C356.524 145.111 356.441 145.309 356.294 145.455C356.147 145.601 355.948 145.684 355.74 145.685H328.849C328.746 145.685 328.644 145.665 328.549 145.625C328.454 145.586 328.368 145.528 328.296 145.455C328.186 145.346 328.11 145.208 328.08 145.056C328.049 144.905 328.064 144.748 328.123 144.605C328.183 144.463 328.283 144.341 328.412 144.256C328.542 144.17 328.693 144.125 328.849 144.126H355.74C355.948 144.126 356.147 144.209 356.294 144.355C356.367 144.427 356.425 144.513 356.464 144.607C356.504 144.701 356.525 144.802 356.525 144.904Z" fill="#7C4F31"/>
<path d="M354.964 145H354.975C355.426 145 355.787 144.663 355.78 144.262C355.322 115.674 366.323 93.6929 366.434 93.4742C366.62 93.1083 366.585 92.2923 365.399 92.1871C364.363 92.0974 363.72 92.3273 363.534 92.6905C363.506 92.7452 361.051 97.9762 358.32 107.069C355.805 115.451 353.898 129.178 354.141 144.283C354.154 144.682 354.519 145 354.964 145Z" fill="#7C4F31"/>
<path d="M330.432 145H330.443C330.894 145 331.254 144.663 331.248 144.262C330.79 115.674 341.791 93.6929 341.903 93.4742C342.087 93.1083 342.052 92.2923 340.867 92.1871C339.831 92.0974 339.188 92.3273 339.002 92.6905C338.974 92.7452 336.519 97.9762 333.788 107.069C331.275 115.451 329.368 129.178 329.61 144.283C329.622 144.682 329.987 145 330.432 145Z" fill="#7C4F31"/>
<path d="M362.229 102.255C362.413 102.261 362.593 102.205 362.74 102.094C362.886 101.984 362.99 101.826 363.033 101.649C363.109 101.253 362.811 100.878 362.366 100.808C361.661 100.7 344.975 98.197 337.505 100.285C337.083 100.405 336.836 100.813 336.971 101.196C337.051 101.388 337.201 101.544 337.39 101.632C337.579 101.72 337.795 101.735 337.994 101.673C345.088 99.6887 361.922 102.215 362.094 102.24C362.139 102.248 362.184 102.253 362.229 102.255Z" fill="#7C4F31"/>
<path d="M360.325 107.069C360.509 107.075 360.689 107.019 360.835 106.908C360.982 106.798 361.085 106.641 361.128 106.463C361.204 106.068 360.906 105.692 360.462 105.622C359.757 105.514 343.069 103.01 335.601 105.099C335.171 105.219 334.932 105.627 335.067 106.011C335.147 106.203 335.296 106.359 335.486 106.447C335.675 106.535 335.891 106.549 336.09 106.487C343.186 104.501 360.018 107.029 360.19 107.048C360.234 107.058 360.279 107.065 360.325 107.069Z" fill="#7C4F31"/>
<path d="M360.019 187.96C354.19 161.882 355.688 145.885 355.696 145.684C355.71 145.282 354.873 144.917 354.428 144.905C353.983 144.892 351.96 144.787 351.728 145.13C351.422 145.58 350.248 165.293 358.936 187.96H360.019Z" fill="#7C4F31"/>
<path d="M337.295 187.961C331.466 161.567 332.964 145.372 332.971 145.167C332.987 144.761 332.149 144.392 331.703 144.379C331.256 144.367 329.235 144.259 329.001 144.606C328.697 145.062 327.523 165.018 336.211 187.961H337.295Z" fill="#7C4F31"/>
<path d="M284.721 93.4303L285.065 94.144C285.065 94.144 292.766 92.0619 295.212 92.1671C295.211 92.1671 289.75 90.3556 284.721 93.4303Z" fill="#C7DCF2"/>
<path d="M295.213 92.1677L304.035 88.9149L303.881 88.5279C303.881 88.5279 297.103 88.9149 295.213 92.1677Z" fill="#ADC7E0"/>
<path d="M297.027 93.5292C297.027 93.5292 296.869 91.1947 295.487 90.3535C294.875 90.0254 294.375 89.7759 294.037 89.6146C293.973 89.5856 293.903 89.5736 293.833 89.5801C293.764 89.5865 293.697 89.611 293.64 89.6512C293.583 89.6914 293.537 89.7459 293.508 89.8091C293.479 89.8723 293.466 89.9421 293.473 90.0114C293.511 90.3324 293.66 90.63 293.896 90.8526C294.6 91.5621 294.784 92.7426 294.784 92.7426L297.027 93.5292Z" fill="#FFB27D"/>
</svg>
