<svg width="240" height="119" viewBox="0 0 240 119" fill="none" xmlns="http://www.w3.org/2000/svg">
<path d="M21.2926 19.4119C21.1316 18.8153 20.8949 18.2898 20.5824 17.8352C20.2699 17.3712 19.8864 16.9782 19.4318 16.6562C18.9773 16.3343 18.4564 16.0928 17.8693 15.9318C17.2822 15.7614 16.6383 15.6761 15.9375 15.6761C14.5265 15.6761 13.3049 16.017 12.2727 16.6989C11.25 17.3807 10.4593 18.375 9.90057 19.6818C9.34186 20.9792 9.0625 22.5559 9.0625 24.4119C9.0625 26.2775 9.33239 27.8684 9.87216 29.1847C10.4119 30.5009 11.1932 31.5047 12.2159 32.196C13.2386 32.8873 14.4792 33.233 15.9375 33.233C17.2254 33.233 18.3144 33.0246 19.2045 32.608C20.1042 32.1818 20.786 31.5805 21.25 30.804C21.714 30.0275 21.946 29.1136 21.946 28.0625L23.2528 28.2188H16.179V23.0909H28.7216V26.9403C28.7216 29.5445 28.1676 31.7746 27.0597 33.6307C25.9612 35.4867 24.446 36.9119 22.5142 37.9062C20.5919 38.9006 18.3807 39.3977 15.8807 39.3977C13.1061 39.3977 10.6676 38.7964 8.56534 37.5938C6.46307 36.3911 4.82481 34.6771 3.65057 32.4517C2.47633 30.2169 1.8892 27.5653 1.8892 24.4972C1.8892 22.1108 2.24432 19.9943 2.95455 18.1477C3.66477 16.2917 4.65436 14.7197 5.9233 13.4318C7.2017 12.1439 8.67898 11.1686 10.3551 10.5057C12.0407 9.8428 13.8542 9.51136 15.7955 9.51136C17.4811 9.51136 19.0483 9.75284 20.4972 10.2358C21.9555 10.7188 23.2434 11.4006 24.3608 12.2812C25.4877 13.1619 26.4015 14.2083 27.1023 15.4205C27.803 16.6326 28.2386 17.9631 28.4091 19.4119H21.2926ZM60.3232 24.4545C60.3232 27.6553 59.7076 30.3684 58.4766 32.5938C57.2455 34.8191 55.5788 36.5095 53.4766 37.6648C51.3838 38.8201 49.0353 39.3977 46.4311 39.3977C43.8175 39.3977 41.4643 38.8153 39.3714 37.6506C37.2786 36.4858 35.6167 34.7955 34.3857 32.5795C33.1641 30.3542 32.5533 27.6458 32.5533 24.4545C32.5533 21.2538 33.1641 18.5407 34.3857 16.3153C35.6167 14.09 37.2786 12.3996 39.3714 11.2443C41.4643 10.089 43.8175 9.51136 46.4311 9.51136C49.0353 9.51136 51.3838 10.089 53.4766 11.2443C55.5788 12.3996 57.2455 14.09 58.4766 16.3153C59.7076 18.5407 60.3232 21.2538 60.3232 24.4545ZM53.1357 24.4545C53.1357 22.5606 52.8658 20.9602 52.326 19.6534C51.7957 18.3466 51.0286 17.357 50.0249 16.6847C49.0305 16.0123 47.8326 15.6761 46.4311 15.6761C45.0391 15.6761 43.8411 16.0123 42.8374 16.6847C41.8336 17.357 41.0618 18.3466 40.522 19.6534C39.9917 20.9602 39.7266 22.5606 39.7266 24.4545C39.7266 26.3485 39.9917 27.9489 40.522 29.2557C41.0618 30.5625 41.8336 31.5521 42.8374 32.2244C43.8411 32.8968 45.0391 33.233 46.4311 33.233C47.8326 33.233 49.0305 32.8968 50.0249 32.2244C51.0286 31.5521 51.7957 30.5625 52.326 29.2557C52.8658 27.9489 53.1357 26.3485 53.1357 24.4545ZM64.4283 39V9.90909H71.4595V33.2898H83.5618V39H64.4283ZM97.9545 39H87.2017V9.90909H97.9403C100.904 9.90909 103.456 10.4915 105.597 11.6562C107.746 12.8116 109.403 14.4782 110.568 16.6562C111.733 18.8248 112.315 21.4195 112.315 24.4403C112.315 27.4706 111.733 30.0748 110.568 32.2528C109.413 34.4309 107.76 36.1023 105.611 37.267C103.461 38.4223 100.909 39 97.9545 39ZM94.233 33.0057H97.6847C99.3134 33.0057 100.691 32.7311 101.818 32.1818C102.955 31.6231 103.812 30.7188 104.389 29.4688C104.976 28.2093 105.27 26.5331 105.27 24.4403C105.27 22.3475 104.976 20.6809 104.389 19.4403C103.802 18.1903 102.936 17.2907 101.79 16.7415C100.653 16.1828 99.2519 15.9034 97.5852 15.9034H94.233V33.0057Z" fill="url(#paint0_linear_514_3)"/>
<path d="M2.2017 78V48.9091H22.4858V54.6193H9.23295V60.5852H21.4489V66.3097H9.23295V72.2898H22.4858V78H2.2017ZM37.642 78H26.8892V48.9091H37.6278C40.5919 48.9091 43.1439 49.4915 45.2841 50.6562C47.4337 51.8116 49.0909 53.4782 50.2557 55.6562C51.4205 57.8248 52.0028 60.4195 52.0028 63.4403C52.0028 66.4706 51.4205 69.0748 50.2557 71.2528C49.1004 73.4309 47.4479 75.1023 45.2983 76.267C43.1487 77.4223 40.5966 78 37.642 78ZM33.9205 72.0057H37.3722C39.0009 72.0057 40.3788 71.7311 41.5057 71.1818C42.642 70.6231 43.4991 69.7188 44.0767 68.4688C44.6638 67.2093 44.9574 65.5331 44.9574 63.4403C44.9574 61.3475 44.6638 59.6809 44.0767 58.4403C43.4896 57.1903 42.6231 56.2907 41.4773 55.7415C40.3409 55.1828 38.9394 54.9034 37.2727 54.9034H33.9205V72.0057ZM73.7074 48.9091H80.7244V67.6733C80.7244 69.8419 80.2083 71.7311 79.1761 73.3409C78.1439 74.9413 76.7045 76.1818 74.858 77.0625C73.0114 77.9337 70.8665 78.3693 68.4233 78.3693C65.9517 78.3693 63.7926 77.9337 61.946 77.0625C60.0994 76.1818 58.6648 74.9413 57.642 73.3409C56.6193 71.7311 56.108 69.8419 56.108 67.6733V48.9091H63.1392V67.0625C63.1392 68.0663 63.357 68.9612 63.7926 69.7472C64.2377 70.5331 64.858 71.1487 65.6534 71.5938C66.4489 72.0388 67.3722 72.2614 68.4233 72.2614C69.4744 72.2614 70.393 72.0388 71.179 71.5938C71.9744 71.1487 72.5947 70.5331 73.0398 69.7472C73.4848 68.9612 73.7074 68.0663 73.7074 67.0625V48.9091ZM111.538 59.4489H104.435C104.341 58.7197 104.147 58.0616 103.853 57.4744C103.559 56.8873 103.171 56.3854 102.688 55.9688C102.205 55.5521 101.632 55.2348 100.969 55.017C100.316 54.7898 99.5916 54.6761 98.7962 54.6761C97.3852 54.6761 96.1683 55.0218 95.1456 55.7131C94.1323 56.4044 93.3511 57.4034 92.8018 58.7102C92.2621 60.017 91.9922 61.5985 91.9922 63.4545C91.9922 65.3864 92.2668 67.0057 92.8161 68.3125C93.3748 69.6098 94.156 70.59 95.1598 71.2528C96.1731 71.9062 97.371 72.233 98.7536 72.233C99.5301 72.233 100.236 72.1335 100.87 71.9347C101.514 71.7358 102.077 71.447 102.56 71.0682C103.053 70.6799 103.455 70.2112 103.768 69.6619C104.09 69.1032 104.312 68.4735 104.435 67.7727L111.538 67.8153C111.415 69.1032 111.04 70.3722 110.415 71.6222C109.8 72.8722 108.952 74.0133 107.873 75.0455C106.793 76.0682 105.477 76.8826 103.924 77.4886C102.38 78.0947 100.61 78.3977 98.6115 78.3977C95.9789 78.3977 93.621 77.8201 91.5376 76.6648C89.4638 75.5 87.8255 73.8049 86.6229 71.5795C85.4202 69.3542 84.8189 66.6458 84.8189 63.4545C84.8189 60.2538 85.4297 57.5407 86.6513 55.3153C87.8729 53.09 89.5253 51.3996 91.6087 50.2443C93.692 49.089 96.0263 48.5114 98.6115 48.5114C100.373 48.5114 102.002 48.7576 103.498 49.25C104.994 49.733 106.31 50.4432 107.447 51.3807C108.583 52.3087 109.506 53.4498 110.217 54.804C110.927 56.1581 111.367 57.7064 111.538 59.4489ZM121.112 78H113.555L123.37 48.9091H132.731L142.546 78H134.989L128.157 56.2386H127.93L121.112 78ZM120.103 66.5511H135.898V71.892H120.103V66.5511ZM141.094 54.6193V48.9091H165.682V54.6193H156.861V78H149.929V54.6193H141.094ZM176.147 48.9091V78H169.116V48.9091H176.147ZM208.018 63.4545C208.018 66.6553 207.403 69.3684 206.172 71.5938C204.941 73.8191 203.274 75.5095 201.172 76.6648C199.079 77.8201 196.731 78.3977 194.126 78.3977C191.513 78.3977 189.16 77.8153 187.067 76.6506C184.974 75.4858 183.312 73.7955 182.081 71.5795C180.859 69.3542 180.249 66.6458 180.249 63.4545C180.249 60.2538 180.859 57.5407 182.081 55.3153C183.312 53.09 184.974 51.3996 187.067 50.2443C189.16 49.089 191.513 48.5114 194.126 48.5114C196.731 48.5114 199.079 49.089 201.172 50.2443C203.274 51.3996 204.941 53.09 206.172 55.3153C207.403 57.5407 208.018 60.2538 208.018 63.4545ZM200.831 63.4545C200.831 61.5606 200.561 59.9602 200.021 58.6534C199.491 57.3466 198.724 56.357 197.72 55.6847C196.726 55.0123 195.528 54.6761 194.126 54.6761C192.734 54.6761 191.536 55.0123 190.533 55.6847C189.529 56.357 188.757 57.3466 188.217 58.6534C187.687 59.9602 187.422 61.5606 187.422 63.4545C187.422 65.3485 187.687 66.9489 188.217 68.2557C188.757 69.5625 189.529 70.5521 190.533 71.2244C191.536 71.8968 192.734 72.233 194.126 72.233C195.528 72.233 196.726 71.8968 197.72 71.2244C198.724 70.5521 199.491 69.5625 200.021 68.2557C200.561 66.9489 200.831 65.3485 200.831 63.4545ZM236.882 48.9091V78H230.916L219.339 61.2102H219.155V78H212.124V48.9091H218.175L229.624 65.6705H229.865V48.9091H236.882Z" fill="url(#paint1_linear_514_3)"/>
<path d="M135.318 87.9091L140.631 97.0994H140.858L146.227 87.9091H154.097L145.318 102.455L154.381 117H146.312L140.858 107.71H140.631L135.176 117H127.165L136.185 102.455L127.392 87.9091H135.318ZM156.781 93.6193V87.9091H181.369V93.6193H172.548V117H165.616V93.6193H156.781ZM184.803 117V87.9091H196.82C198.998 87.9091 200.878 88.3021 202.46 89.0881C204.05 89.8646 205.277 90.982 206.138 92.4403C207 93.8892 207.431 95.608 207.431 97.5966C207.431 99.6136 206.991 101.328 206.11 102.739C205.229 104.14 203.979 105.21 202.36 105.949C200.741 106.678 198.823 107.043 196.607 107.043H189.008V101.503H195.3C196.361 101.503 197.246 101.366 197.957 101.091C198.676 100.807 199.221 100.381 199.59 99.8125C199.96 99.2348 200.144 98.4962 200.144 97.5966C200.144 96.697 199.96 95.9536 199.59 95.3665C199.221 94.7699 198.676 94.3248 197.957 94.0312C197.237 93.7282 196.352 93.5767 195.3 93.5767H191.835V117H184.803ZM201.181 103.705L208.425 117H200.755L193.653 103.705H201.181ZM217.58 117H210.023L219.839 87.9091H229.2L239.015 117H231.458L224.626 95.2386H224.398L217.58 117ZM216.572 105.551H232.367V110.892H216.572V105.551Z" fill="url(#paint2_linear_514_3)"/>
<rect x="3" y="87" width="121" height="6" fill="#5754FF"/>
<rect x="3" y="111" width="121" height="6" fill="#5754FF"/>
<rect x="3" y="99" width="121" height="6" fill="#5754FF"/>
<rect x="126" y="13" width="106" height="21" stroke="#5754FF" stroke-width="10"/>
<defs>
<linearGradient id="paint0_linear_514_3" x1="124" y1="24" x2="-46.5" y2="24" gradientUnits="userSpaceOnUse">
<stop stop-color="#5754FF"/>
<stop offset="1" stop-color="#27FDFD"/>
<stop offset="1" stop-color="#10051E" stop-opacity="0.73"/>
</linearGradient>
<linearGradient id="paint1_linear_514_3" x1="241.5" y1="63" x2="-72.5" y2="63" gradientUnits="userSpaceOnUse">
<stop stop-color="#5754FF"/>
<stop offset="1" stop-color="#27FDFD"/>
<stop offset="1" stop-color="#27FDFD"/>
</linearGradient>
<linearGradient id="paint2_linear_514_3" x1="276" y1="99" x2="95.5" y2="99" gradientUnits="userSpaceOnUse">
<stop offset="0.132344" stop-color="#5754FF"/>
<stop offset="1" stop-color="#27FDFD"/>
</linearGradient>
</defs>
</svg>
