<svg width="170" height="87" viewBox="0 0 170 87" fill="none" xmlns="http://www.w3.org/2000/svg">
<path d="M0 20C0 8.95433 8.95431 0 20 0H170V86.2281H20C8.9543 86.2281 0 77.2738 0 66.2281V20Z" fill="#242424"/>
<path d="M95.5 13.7478L109.5 13.7478L155 72.5945L140 72.5945L95.5 13.7478Z" fill="#0086FD"/>
<path d="M132 13.7476L145 13.707L110.5 63.171L94.9999 63.171L132 13.7476Z" fill="#0086FD"/>
<rect x="64" y="13.707" width="10" height="49.4235" fill="white"/>
<path d="M74 13.707H92.674L99.8084 23.1711H74V13.707Z" fill="white"/>
<path d="M73.8833 52.6149H99.7683L91.8833 63.1305H73.8833V52.6149Z" fill="white"/>
<path d="M74 32.6353H107L111 37.8931L107 43.1509H74V32.6353Z" fill="white"/>
<path d="M134 32.6353H144V43.1509H134L130 37.8931L134 32.6353Z" fill="white"/>
<path d="M13 24.2227C13 18.415 17.708 13.707 23.5156 13.707H61V24.2227H13V24.2227Z" fill="white"/>
<path d="M13 52.6149H61V63.1305H23.5156C17.708 63.1305 13 58.4225 13 52.6149V52.6149Z" fill="white"/>
<rect x="13" y="23.1711" width="14" height="30.4953" fill="white"/>
<path d="M49 33H61V54H49V33Z" fill="white"/>
<rect x="35" y="33" width="15" height="10" fill="white"/>
<path d="M18.815 67.1818C18.7747 67.0327 18.7155 66.9013 18.6374 66.7877C18.5593 66.6717 18.4634 66.5734 18.3498 66.4929C18.2361 66.4124 18.1059 66.3521 17.9591 66.3118C17.8123 66.2692 17.6514 66.2479 17.4762 66.2479C17.1234 66.2479 16.818 66.3331 16.56 66.5036C16.3043 66.674 16.1066 66.9226 15.9669 67.2493C15.8273 67.5736 15.7574 67.9678 15.7574 68.4318C15.7574 68.8982 15.8249 69.296 15.9598 69.625C16.0948 69.9541 16.2901 70.205 16.5458 70.3779C16.8015 70.5507 17.1116 70.6371 17.4762 70.6371C17.7981 70.6371 18.0704 70.585 18.2929 70.4808C18.5178 70.3743 18.6883 70.224 18.8043 70.0299C18.9203 69.8357 18.9783 69.6073 18.9783 69.3445L19.305 69.3835H17.5365V68.1016H20.6722V69.0639C20.6722 69.715 20.5337 70.2725 20.2567 70.7365C19.9821 71.2005 19.6033 71.5568 19.1203 71.8054C18.6398 72.054 18.087 72.1783 17.462 72.1783C16.7683 72.1783 16.1587 72.028 15.6331 71.7273C15.1076 71.4266 14.698 70.9981 14.4044 70.4418C14.1109 69.8831 13.9641 69.2202 13.9641 68.4531C13.9641 67.8566 14.0529 67.3274 14.2304 66.8658C14.408 66.4018 14.6554 66.0088 14.9726 65.6868C15.2922 65.3648 15.6615 65.121 16.0806 64.9553C16.502 64.7896 16.9553 64.7067 17.4407 64.7067C17.8621 64.7067 18.2539 64.7671 18.6161 64.8878C18.9807 65.0085 19.3026 65.179 19.582 65.3992C19.8637 65.6193 20.0922 65.8809 20.2674 66.184C20.4426 66.487 20.5515 66.8196 20.5941 67.1818H18.815ZM28.7726 68.4425C28.7726 69.2427 28.6187 69.921 28.3109 70.4773C28.0032 71.0336 27.5865 71.4562 27.0609 71.7451C26.5377 72.0339 25.9506 72.1783 25.2996 72.1783C24.6462 72.1783 24.0579 72.0327 23.5347 71.7415C23.0115 71.4503 22.596 71.0277 22.2882 70.4737C21.9828 69.9174 21.8301 69.2403 21.8301 68.4425C21.8301 67.6423 21.9828 66.964 22.2882 66.4077C22.596 65.8513 23.0115 65.4288 23.5347 65.1399C24.0579 64.8511 24.6462 64.7067 25.2996 64.7067C25.9506 64.7067 26.5377 64.8511 27.0609 65.1399C27.5865 65.4288 28.0032 65.8513 28.3109 66.4077C28.6187 66.964 28.7726 67.6423 28.7726 68.4425ZM26.9757 68.4425C26.9757 67.969 26.9082 67.5689 26.7733 67.2422C26.6407 66.9155 26.449 66.6681 26.198 66.5C25.9494 66.3319 25.65 66.2479 25.2996 66.2479C24.9516 66.2479 24.6521 66.3319 24.4011 66.5C24.1502 66.6681 23.9572 66.9155 23.8223 67.2422C23.6897 67.5689 23.6234 67.969 23.6234 68.4425C23.6234 68.916 23.6897 69.3161 23.8223 69.6428C23.9572 69.9695 24.1502 70.2169 24.4011 70.385C24.6521 70.5531 24.9516 70.6371 25.2996 70.6371C25.65 70.6371 25.9494 70.5531 26.198 70.385C26.449 70.2169 26.6407 69.9695 26.7733 69.6428C26.9082 69.3161 26.9757 68.916 26.9757 68.4425ZM29.9989 72.0789V64.8061H31.7567V70.6513H34.7822V72.0789H29.9989ZM38.5804 72.0789H35.8922V64.8061H38.5769C39.3179 64.8061 39.9559 64.9517 40.4909 65.2429C41.0284 65.5317 41.4427 65.9484 41.7338 66.4929C42.025 67.0351 42.1706 67.6837 42.1706 68.4389C42.1706 69.1965 42.025 69.8476 41.7338 70.3921C41.445 70.9366 41.0319 71.3544 40.4945 71.6456C39.9571 71.9344 39.3191 72.0789 38.5804 72.0789ZM37.65 70.5803H38.513C38.9202 70.5803 39.2646 70.5116 39.5463 70.3743C39.8304 70.2346 40.0447 70.0085 40.1891 69.696C40.3359 69.3812 40.4093 68.9621 40.4093 68.4389C40.4093 67.9157 40.3359 67.4991 40.1891 67.1889C40.0423 66.8764 39.8257 66.6515 39.5392 66.5142C39.2552 66.3745 38.9048 66.3047 38.4881 66.3047H37.65V70.5803ZM43.3969 72.0789V64.8061H48.4679V66.2337H45.1547V67.7252H48.2087V69.1563H45.1547V70.6513H48.4679V72.0789H43.3969ZM52.457 72.0789H49.7688V64.8061H52.4534C53.1944 64.8061 53.8325 64.9517 54.3675 65.2429C54.9049 65.5317 55.3192 65.9484 55.6104 66.4929C55.9016 67.0351 56.0472 67.6837 56.0472 68.4389C56.0472 69.1965 55.9016 69.8476 55.6104 70.3921C55.3216 70.9366 54.9085 71.3544 54.3711 71.6456C53.8337 71.9344 53.1956 72.0789 52.457 72.0789ZM51.5266 70.5803H52.3895C52.7967 70.5803 53.1412 70.5116 53.4229 70.3743C53.707 70.2346 53.9212 70.0085 54.0657 69.696C54.2124 69.3812 54.2858 68.9621 54.2858 68.4389C54.2858 67.9157 54.2124 67.4991 54.0657 67.1889C53.9189 66.8764 53.7023 66.6515 53.4158 66.5142C53.1317 66.3745 52.7813 66.3047 52.3647 66.3047H51.5266V70.5803ZM61.6733 64.8061H63.4276V69.4972C63.4276 70.0393 63.2986 70.5116 63.0405 70.9141C62.7825 71.3142 62.4226 71.6243 61.961 71.8445C61.4993 72.0623 60.9631 72.1712 60.3523 72.1712C59.7344 72.1712 59.1946 72.0623 58.733 71.8445C58.2713 71.6243 57.9127 71.3142 57.657 70.9141C57.4013 70.5116 57.2735 70.0393 57.2735 69.4972V64.8061H59.0313V69.3445C59.0313 69.5954 59.0857 69.8192 59.1946 70.0156C59.3059 70.2121 59.461 70.366 59.6598 70.4773C59.8587 70.5886 60.0895 70.6442 60.3523 70.6442C60.6151 70.6442 60.8447 70.5886 61.0412 70.4773C61.2401 70.366 61.3952 70.2121 61.5064 70.0156C61.6177 69.8192 61.6733 69.5954 61.6733 69.3445V64.8061ZM71.3309 67.4411H69.5553C69.5317 67.2588 69.4831 67.0942 69.4097 66.9475C69.3363 66.8007 69.2393 66.6752 69.1185 66.571C68.9978 66.4669 68.8546 66.3876 68.6889 66.3331C68.5255 66.2763 68.3444 66.2479 68.1455 66.2479C67.7928 66.2479 67.4886 66.3343 67.2329 66.5071C66.9796 66.6799 66.7843 66.9297 66.6469 67.2564C66.512 67.5831 66.4445 67.9785 66.4445 68.4425C66.4445 68.9254 66.5132 69.3303 66.6505 69.657C66.7902 69.9813 66.9855 70.2263 67.2364 70.3921C67.4898 70.5554 67.7892 70.6371 68.1349 70.6371C68.329 70.6371 68.5054 70.6122 68.664 70.5625C68.825 70.5128 68.9658 70.4406 69.0866 70.3459C69.2097 70.2488 69.3103 70.1317 69.3884 69.9943C69.4689 69.8547 69.5246 69.6972 69.5553 69.522L71.3309 69.5327C71.3001 69.8547 71.2066 70.1719 71.0504 70.4844C70.8965 70.7969 70.6846 71.0822 70.4147 71.3402C70.1448 71.5959 69.8157 71.7995 69.4275 71.951C69.0416 72.1025 68.5989 72.1783 68.0994 72.1783C67.4412 72.1783 66.8517 72.0339 66.3309 71.7451C65.8124 71.4539 65.4029 71.0301 65.1022 70.4737C64.8015 69.9174 64.6512 69.2403 64.6512 68.4425C64.6512 67.6423 64.8039 66.964 65.1093 66.4077C65.4147 65.8513 65.8278 65.4288 66.3487 65.1399C66.8695 64.8511 67.4531 64.7067 68.0994 64.7067C68.5397 64.7067 68.9469 64.7683 69.321 64.8914C69.695 65.0121 70.0241 65.1897 70.3082 65.424C70.5923 65.656 70.8231 65.9413 71.0006 66.2799C71.1782 66.6184 71.2883 67.0055 71.3309 67.4411ZM73.9244 72.0789H72.0352L74.489 64.8061H76.8292L79.283 72.0789H77.3938L75.6857 66.6385H75.6289L73.9244 72.0789ZM73.6722 69.2166H77.6211V70.5519H73.6722V69.2166ZM79.1199 66.2337V64.8061H85.2669V66.2337H83.0617V72.0789H81.3287V66.2337H79.1199ZM88.0832 64.8061V72.0789H86.3254V64.8061H88.0832ZM96.2511 68.4425C96.2511 69.2427 96.0972 69.921 95.7895 70.4773C95.4817 71.0336 95.065 71.4562 94.5395 71.7451C94.0163 72.0339 93.4291 72.1783 92.7781 72.1783C92.1247 72.1783 91.5364 72.0327 91.0132 71.7415C90.49 71.4503 90.0745 71.0277 89.7667 70.4737C89.4613 69.9174 89.3086 69.2403 89.3086 68.4425C89.3086 67.6423 89.4613 66.964 89.7667 66.4077C90.0745 65.8513 90.49 65.4288 91.0132 65.1399C91.5364 64.8511 92.1247 64.7067 92.7781 64.7067C93.4291 64.7067 94.0163 64.8511 94.5395 65.1399C95.065 65.4288 95.4817 65.8513 95.7895 66.4077C96.0972 66.964 96.2511 67.6423 96.2511 68.4425ZM94.4542 68.4425C94.4542 67.969 94.3868 67.5689 94.2518 67.2422C94.1192 66.9155 93.9275 66.6681 93.6765 66.5C93.4279 66.3319 93.1285 66.2479 92.7781 66.2479C92.4301 66.2479 92.1306 66.3319 91.8797 66.5C91.6287 66.6681 91.4358 66.9155 91.3008 67.2422C91.1682 67.5689 91.102 67.969 91.102 68.4425C91.102 68.916 91.1682 69.3161 91.3008 69.6428C91.4358 69.9695 91.6287 70.2169 91.8797 70.385C92.1306 70.5531 92.4301 70.6371 92.7781 70.6371C93.1285 70.6371 93.4279 70.5531 93.6765 70.385C93.9275 70.2169 94.1192 69.9695 94.2518 69.6428C94.3868 69.3161 94.4542 68.916 94.4542 68.4425ZM103.667 64.8061V72.0789H102.176L99.2814 67.8814H99.2352V72.0789H97.4774V64.8061H98.9902L101.852 68.9965H101.913V64.8061H103.667ZM106.751 64.8061L108.08 67.1037H108.136L109.479 64.8061H111.446L109.251 68.4425L111.517 72.0789H109.5L108.136 69.7564H108.08L106.716 72.0789H104.713L106.968 68.4425L104.77 64.8061H106.751ZM112.317 66.2337V64.8061H118.464V66.2337H116.259V72.0789H114.526V66.2337H112.317ZM119.523 72.0789V64.8061H122.527C123.071 64.8061 123.541 64.9044 123.937 65.1009C124.334 65.295 124.641 65.5744 124.857 65.9389C125.072 66.3012 125.18 66.7308 125.18 67.228C125.18 67.7323 125.07 68.1608 124.849 68.5135C124.629 68.8639 124.317 69.1314 123.912 69.3161C123.507 69.4984 123.028 69.5895 122.474 69.5895H120.574V68.2046H122.147C122.412 68.2046 122.633 68.1702 122.811 68.1016C122.991 68.0306 123.127 67.924 123.219 67.782C123.312 67.6376 123.358 67.4529 123.358 67.228C123.358 67.0031 123.312 66.8173 123.219 66.6705C123.127 66.5213 122.991 66.4101 122.811 66.3367C122.631 66.2609 122.41 66.223 122.147 66.223H121.281V72.0789H119.523ZM123.617 68.755L125.428 72.0789H123.511L121.735 68.755H123.617ZM127.917 72.0789H126.028L128.482 64.8061H130.822L133.276 72.0789H131.386L129.678 66.6385H129.621L127.917 72.0789ZM127.665 69.2166H131.614V70.5519H127.665V69.2166Z" fill="#0086FD"/>
</svg>
