<svg width="202" height="86" viewBox="0 0 202 86" fill="none" xmlns="http://www.w3.org/2000/svg">
<path d="M13 0H182C193.046 0 202 8.95431 202 20V66C202 77.0457 193.046 86 182 86H13V0Z" fill="#242424"/>
<path d="M26.6176 31V13.5455H30.8363V20.5511H37.7142V13.5455H41.9244V31H37.7142V23.9858H30.8363V31H26.6176ZM61.5251 22.2727C61.5251 24.1932 61.1558 25.821 60.4172 27.1562C59.6786 28.4915 58.6786 29.5057 57.4172 30.1989C56.1615 30.892 54.7524 31.2386 53.1899 31.2386C51.6217 31.2386 50.2098 30.8892 48.9541 30.1903C47.6984 29.4915 46.7013 28.4773 45.9626 27.1477C45.2297 25.8125 44.8632 24.1875 44.8632 22.2727C44.8632 20.3523 45.2297 18.7244 45.9626 17.3892C46.7013 16.054 47.6984 15.0398 48.9541 14.3466C50.2098 13.6534 51.6217 13.3068 53.1899 13.3068C54.7524 13.3068 56.1615 13.6534 57.4172 14.3466C58.6786 15.0398 59.6786 16.054 60.4172 17.3892C61.1558 18.7244 61.5251 20.3523 61.5251 22.2727ZM57.2126 22.2727C57.2126 21.1364 57.0507 20.1761 56.7268 19.392C56.4087 18.608 55.9484 18.0142 55.3462 17.6108C54.7496 17.2074 54.0308 17.0057 53.1899 17.0057C52.3547 17.0057 51.6359 17.2074 51.0337 17.6108C50.4314 18.0142 49.9683 18.608 49.6445 19.392C49.3263 20.1761 49.1672 21.1364 49.1672 22.2727C49.1672 23.4091 49.3263 24.3693 49.6445 25.1534C49.9683 25.9375 50.4314 26.5312 51.0337 26.9347C51.6359 27.3381 52.3547 27.5398 53.1899 27.5398C54.0308 27.5398 54.7496 27.3381 55.3462 26.9347C55.9484 26.5312 56.4087 25.9375 56.7268 25.1534C57.0507 24.3693 57.2126 23.4091 57.2126 22.2727ZM64.4682 13.5455H69.6926L74.1245 24.3523H74.329L78.7608 13.5455H83.9853V31H79.8773V20.2784H79.7324L75.5392 30.8892H72.9142L68.7211 20.2188H68.5762V31H64.4682V13.5455ZM87.0966 31V13.5455H99.2671V16.9716H91.3154V20.5511H98.6449V23.9858H91.3154V27.5739H99.2671V31H87.0966ZM106.574 31L101.494 13.5455H106.156L108.79 24.983H108.935L111.943 13.5455H115.744L118.753 25.0085H118.898L121.54 13.5455H126.193L121.122 31H117.057L113.912 20.4148H113.776L110.631 31H106.574ZM143.859 22.2727C143.859 24.1932 143.49 25.821 142.751 27.1562C142.013 28.4915 141.013 29.5057 139.751 30.1989C138.496 30.892 137.086 31.2386 135.524 31.2386C133.956 31.2386 132.544 30.8892 131.288 30.1903C130.033 29.4915 129.035 28.4773 128.297 27.1477C127.564 25.8125 127.197 24.1875 127.197 22.2727C127.197 20.3523 127.564 18.7244 128.297 17.3892C129.035 16.054 130.033 15.0398 131.288 14.3466C132.544 13.6534 133.956 13.3068 135.524 13.3068C137.086 13.3068 138.496 13.6534 139.751 14.3466C141.013 15.0398 142.013 16.054 142.751 17.3892C143.49 18.7244 143.859 20.3523 143.859 22.2727ZM139.547 22.2727C139.547 21.1364 139.385 20.1761 139.061 19.392C138.743 18.608 138.283 18.0142 137.68 17.6108C137.084 17.2074 136.365 17.0057 135.524 17.0057C134.689 17.0057 133.97 17.2074 133.368 17.6108C132.765 18.0142 132.302 18.608 131.979 19.392C131.66 20.1761 131.501 21.1364 131.501 22.2727C131.501 23.4091 131.66 24.3693 131.979 25.1534C132.302 25.9375 132.765 26.5312 133.368 26.9347C133.97 27.3381 134.689 27.5398 135.524 27.5398C136.365 27.5398 137.084 27.3381 137.68 26.9347C138.283 26.5312 138.743 25.9375 139.061 25.1534C139.385 24.3693 139.547 23.4091 139.547 22.2727ZM146.802 31V13.5455H154.012C155.319 13.5455 156.447 13.7812 157.396 14.2528C158.351 14.7187 159.086 15.3892 159.603 16.2642C160.12 17.1335 160.379 18.1648 160.379 19.358C160.379 20.5682 160.115 21.5966 159.586 22.4432C159.058 23.2841 158.308 23.9261 157.336 24.3693C156.365 24.8068 155.214 25.0256 153.885 25.0256H149.325V21.7017H153.101C153.737 21.7017 154.268 21.6193 154.694 21.4545C155.126 21.2841 155.453 21.0284 155.674 20.6875C155.896 20.3409 156.007 19.8977 156.007 19.358C156.007 18.8182 155.896 18.3722 155.674 18.0199C155.453 17.6619 155.126 17.3949 154.694 17.2188C154.262 17.0369 153.731 16.946 153.101 16.946H151.021V31H146.802ZM156.629 23.0227L160.976 31H156.373L152.112 23.0227H156.629ZM163.173 31V13.5455H167.392V20.9261H167.622L173.392 13.5455H178.36L172.173 21.3352L178.471 31H173.426L169.079 24.1392L167.392 26.2699V31H163.173Z" fill="#0086FD"/>
<path d="M25.9126 52V37.4545H31.9211C33.0101 37.4545 33.95 37.6676 34.7407 38.0938C35.5362 38.5152 36.1493 39.1046 36.5802 39.8622C37.0111 40.6151 37.2265 41.491 37.2265 42.4901C37.2265 43.4938 37.0063 44.3722 36.566 45.125C36.1304 45.8731 35.5077 46.4531 34.6981 46.8651C33.8884 47.277 32.9273 47.483 31.8146 47.483H28.1072V44.7131H31.1612C31.6915 44.7131 32.1342 44.6207 32.4893 44.4361C32.8491 44.2514 33.1214 43.9934 33.306 43.6619C33.4907 43.3258 33.583 42.9351 33.583 42.4901C33.583 42.0402 33.4907 41.652 33.306 41.3253C33.1214 40.9938 32.8491 40.7382 32.4893 40.5582C32.1294 40.3783 31.6867 40.2884 31.1612 40.2884H29.4282V52H25.9126ZM39.3594 52V37.4545H42.8751V49.1449H48.9262V52H39.3594ZM54.4878 52H50.7094L55.617 37.4545H60.2974L65.2051 52H61.4267L58.0105 41.1193H57.8969L54.4878 52ZM53.9835 46.2756H61.8813V48.946H53.9835V46.2756ZM64.8789 40.3097V37.4545H77.1729V40.3097H72.7624V52H69.2965V40.3097H64.8789ZM79.2899 52V37.4545H89.2189V40.3097H82.8055V43.2926H88.5868V46.1548H82.8055V52H79.2899ZM105.118 44.7273C105.118 46.3277 104.81 47.6842 104.195 48.7969C103.579 49.9096 102.746 50.7547 101.695 51.3324C100.648 51.91 99.4739 52.1989 98.1718 52.1989C96.865 52.1989 95.6884 51.9077 94.642 51.3253C93.5956 50.7429 92.7646 49.8977 92.1491 48.7898C91.5383 47.6771 91.2329 46.3229 91.2329 44.7273C91.2329 43.1269 91.5383 41.7704 92.1491 40.6577C92.7646 39.545 93.5956 38.6998 94.642 38.1222C95.6884 37.5445 96.865 37.2557 98.1718 37.2557C99.4739 37.2557 100.648 37.5445 101.695 38.1222C102.746 38.6998 103.579 39.545 104.195 40.6577C104.81 41.7704 105.118 43.1269 105.118 44.7273ZM101.524 44.7273C101.524 43.7803 101.389 42.9801 101.119 42.3267C100.854 41.6733 100.471 41.1785 99.9687 40.8423C99.4715 40.5062 98.8726 40.3381 98.1718 40.3381C97.4758 40.3381 96.8768 40.5062 96.3749 40.8423C95.873 41.1785 95.4871 41.6733 95.2173 42.3267C94.9521 42.9801 94.8195 43.7803 94.8195 44.7273C94.8195 45.6742 94.9521 46.4744 95.2173 47.1278C95.4871 47.7812 95.873 48.276 96.3749 48.6122C96.8768 48.9484 97.4758 49.1165 98.1718 49.1165C98.8726 49.1165 99.4715 48.9484 99.9687 48.6122C100.471 48.276 100.854 47.7812 101.119 47.1278C101.389 46.4744 101.524 45.6742 101.524 44.7273ZM107.57 52V37.4545H113.579C114.668 37.4545 115.608 37.651 116.399 38.044C117.194 38.4323 117.807 38.991 118.238 39.7202C118.669 40.4446 118.884 41.304 118.884 42.2983C118.884 43.3068 118.664 44.1638 118.224 44.8693C117.783 45.5701 117.158 46.1051 116.349 46.4744C115.539 46.839 114.58 47.0213 113.472 47.0213H109.673V44.2514H112.819C113.349 44.2514 113.792 44.1828 114.147 44.0455C114.507 43.9034 114.779 43.6903 114.964 43.4062C115.149 43.1174 115.241 42.7481 115.241 42.2983C115.241 41.8485 115.149 41.4768 114.964 41.1832C114.779 40.8849 114.507 40.6624 114.147 40.5156C113.787 40.3641 113.345 40.2884 112.819 40.2884H111.086V52H107.57ZM115.759 45.3523L119.381 52H115.546L111.995 45.3523H115.759ZM121.213 37.4545H125.566L129.259 46.4602H129.43L133.123 37.4545H137.477V52H134.053V43.0653H133.933L130.438 51.9077H128.251L124.757 43.0156H124.636V52H121.213V37.4545ZM144.766 52V37.4545H154.695V40.3097H148.282V43.2926H154.063V46.1548H148.282V52H144.766ZM170.594 44.7273C170.594 46.3277 170.287 47.6842 169.671 48.7969C169.056 49.9096 168.222 50.7547 167.171 51.3324C166.125 51.91 164.95 52.1989 163.648 52.1989C162.342 52.1989 161.165 51.9077 160.119 51.3253C159.072 50.7429 158.241 49.8977 157.626 48.7898C157.015 47.6771 156.709 46.3229 156.709 44.7273C156.709 43.1269 157.015 41.7704 157.626 40.6577C158.241 39.545 159.072 38.6998 160.119 38.1222C161.165 37.5445 162.342 37.2557 163.648 37.2557C164.95 37.2557 166.125 37.5445 167.171 38.1222C168.222 38.6998 169.056 39.545 169.671 40.6577C170.287 41.7704 170.594 43.1269 170.594 44.7273ZM167.001 44.7273C167.001 43.7803 166.866 42.9801 166.596 42.3267C166.331 41.6733 165.947 41.1785 165.445 40.8423C164.948 40.5062 164.349 40.3381 163.648 40.3381C162.952 40.3381 162.353 40.5062 161.851 40.8423C161.35 41.1785 160.964 41.6733 160.694 42.3267C160.429 42.9801 160.296 43.7803 160.296 44.7273C160.296 45.6742 160.429 46.4744 160.694 47.1278C160.964 47.7812 161.35 48.276 161.851 48.6122C162.353 48.9484 162.952 49.1165 163.648 49.1165C164.349 49.1165 164.948 48.9484 165.445 48.6122C165.947 48.276 166.331 47.7812 166.596 47.1278C166.866 46.4744 167.001 45.6742 167.001 44.7273ZM173.047 52V37.4545H179.055C180.144 37.4545 181.084 37.651 181.875 38.044C182.671 38.4323 183.284 38.991 183.715 39.7202C184.145 40.4446 184.361 41.304 184.361 42.2983C184.361 43.3068 184.141 44.1638 183.7 44.8693C183.26 45.5701 182.635 46.1051 181.825 46.4744C181.016 46.839 180.057 47.0213 178.949 47.0213H175.149V44.2514H178.296C178.826 44.2514 179.269 44.1828 179.624 44.0455C179.983 43.9034 180.256 43.6903 180.44 43.4062C180.625 43.1174 180.717 42.7481 180.717 42.2983C180.717 41.8485 180.625 41.4768 180.44 41.1832C180.256 40.8849 179.983 40.6624 179.624 40.5156C179.264 40.3641 178.821 40.2884 178.296 40.2884H176.563V52H173.047ZM181.236 45.3523L184.858 52H181.023L177.472 45.3523H181.236Z" fill="#0086FD"/>
<path d="M33.7974 62.8153C33.7501 62.2945 33.5394 61.8897 33.1653 61.6009C32.796 61.3073 32.2681 61.1605 31.5815 61.1605C31.127 61.1605 30.7482 61.2197 30.4452 61.3381C30.1421 61.4564 29.9149 61.6198 29.7634 61.8281C29.6118 62.0317 29.5337 62.2661 29.529 62.5312C29.5195 62.7491 29.5621 62.9408 29.6568 63.1065C29.7562 63.2723 29.8983 63.419 30.083 63.5469C30.2723 63.67 30.4996 63.7789 30.7648 63.8736C31.0299 63.9683 31.3282 64.0511 31.6597 64.1222L32.9097 64.4062C33.6294 64.5625 34.2638 64.7708 34.8131 65.0312C35.367 65.2917 35.8311 65.6018 36.2051 65.9616C36.5839 66.3215 36.8704 66.7358 37.0645 67.2045C37.2586 67.6733 37.358 68.1989 37.3628 68.7812C37.358 69.6998 37.126 70.4882 36.6668 71.1463C36.2075 71.8045 35.547 72.3087 34.6852 72.6591C33.8282 73.0095 32.7937 73.1847 31.5815 73.1847C30.3647 73.1847 29.3041 73.0024 28.3997 72.6378C27.4954 72.2732 26.7922 71.7192 26.2903 70.9759C25.7884 70.2325 25.5304 69.2926 25.5162 68.1562H28.8827C28.9111 68.625 29.0366 69.0156 29.2591 69.3281C29.4816 69.6406 29.787 69.8774 30.1753 70.0384C30.5683 70.1993 31.0228 70.2798 31.5389 70.2798C32.0124 70.2798 32.4149 70.2159 32.7463 70.0881C33.0825 69.9602 33.3405 69.7827 33.5205 69.5554C33.7004 69.3281 33.7927 69.0677 33.7974 68.7741C33.7927 68.4995 33.7075 68.2652 33.5418 68.071C33.376 67.8722 33.1204 67.7017 32.7747 67.5597C32.4338 67.4129 31.9982 67.2779 31.4679 67.1548L29.948 66.7997C28.6885 66.5109 27.6966 66.0445 26.9722 65.4006C26.2477 64.7519 25.8879 63.8759 25.8926 62.7727C25.8879 61.8731 26.1294 61.0848 26.617 60.4077C27.1047 59.7306 27.7794 59.2027 28.6412 58.8239C29.5029 58.4451 30.4854 58.2557 31.5886 58.2557C32.7155 58.2557 33.6933 58.4474 34.5219 58.831C35.3552 59.2098 36.0015 59.7424 36.4608 60.429C36.9201 61.1155 37.1544 61.911 37.1639 62.8153H33.7974ZM39.0625 61.3097V58.4545H51.3565V61.3097H46.946V73H43.4801V61.3097H39.0625ZM62.2732 58.4545H65.7817V67.8366C65.7817 68.9209 65.5237 69.8655 65.0076 70.6705C64.4915 71.4706 63.7718 72.0909 62.8485 72.5312C61.9252 72.9669 60.8528 73.1847 59.6312 73.1847C58.3954 73.1847 57.3158 72.9669 56.3925 72.5312C55.4692 72.0909 54.7519 71.4706 54.2406 70.6705C53.7292 69.8655 53.4735 68.9209 53.4735 67.8366V58.4545H56.9891V67.5312C56.9891 68.0331 57.098 68.4806 57.3158 68.8736C57.5384 69.2666 57.8485 69.5743 58.2462 69.7969C58.644 70.0194 59.1056 70.1307 59.6312 70.1307C60.1567 70.1307 60.616 70.0194 61.009 69.7969C61.4067 69.5743 61.7169 69.2666 61.9394 68.8736C62.162 68.4806 62.2732 68.0331 62.2732 67.5312V58.4545ZM73.7617 73H68.3852V58.4545H73.7545C75.2366 58.4545 76.5126 58.7457 77.5827 59.3281C78.6575 59.9058 79.4861 60.7391 80.0685 61.8281C80.6509 62.9124 80.942 64.2098 80.942 65.7202C80.942 67.2353 80.6509 68.5374 80.0685 69.6264C79.4908 70.7154 78.6646 71.5511 77.5898 72.1335C76.515 72.7112 75.2389 73 73.7617 73ZM71.9009 70.0028H73.6267C74.4411 70.0028 75.13 69.8655 75.6935 69.5909C76.2617 69.3116 76.6902 68.8594 76.979 68.2344C77.2725 67.6046 77.4193 66.7666 77.4193 65.7202C77.4193 64.6738 77.2725 63.8404 76.979 63.2202C76.6854 62.5952 76.2522 62.1454 75.6793 61.8707C75.1111 61.5914 74.4103 61.4517 73.577 61.4517H71.9009V70.0028ZM83.3946 73V58.4545H93.5366V61.3097H86.9102V64.2926H93.0182V67.1548H86.9102V70.1449H93.5366V73H83.3946ZM108.518 58.4545V73H105.535L99.7463 64.6051H99.654V73H96.1384V58.4545H99.1639L104.888 66.8352H105.009V58.4545H108.518ZM110.652 61.3097V58.4545H122.946V61.3097H118.536V73H115.07V61.3097H110.652ZM132.926 62.8153C132.878 62.2945 132.668 61.8897 132.293 61.6009C131.924 61.3073 131.396 61.1605 130.71 61.1605C130.255 61.1605 129.876 61.2197 129.573 61.3381C129.27 61.4564 129.043 61.6198 128.891 61.8281C128.74 62.0317 128.662 62.2661 128.657 62.5312C128.648 62.7491 128.69 62.9408 128.785 63.1065C128.884 63.2723 129.026 63.419 129.211 63.5469C129.4 63.67 129.628 63.7789 129.893 63.8736C130.158 63.9683 130.456 64.0511 130.788 64.1222L132.038 64.4062C132.757 64.5625 133.392 64.7708 133.941 65.0312C134.495 65.2917 134.959 65.6018 135.333 65.9616C135.712 66.3215 135.998 66.7358 136.193 67.2045C136.387 67.6733 136.486 68.1989 136.491 68.7812C136.486 69.6998 136.254 70.4882 135.795 71.1463C135.336 71.8045 134.675 72.3087 133.813 72.6591C132.956 73.0095 131.922 73.1847 130.71 73.1847C129.493 73.1847 128.432 73.0024 127.528 72.6378C126.623 72.2732 125.92 71.7192 125.418 70.9759C124.917 70.2325 124.659 69.2926 124.644 68.1562H128.011C128.039 68.625 128.165 69.0156 128.387 69.3281C128.61 69.6406 128.915 69.8774 129.303 70.0384C129.696 70.1993 130.151 70.2798 130.667 70.2798C131.141 70.2798 131.543 70.2159 131.874 70.0881C132.211 69.9602 132.469 69.7827 132.649 69.5554C132.829 69.3281 132.921 69.0677 132.926 68.7741C132.921 68.4995 132.836 68.2652 132.67 68.071C132.504 67.8722 132.248 67.7017 131.903 67.5597C131.562 67.4129 131.126 67.2779 130.596 67.1548L129.076 66.7997C127.817 66.5109 126.825 66.0445 126.1 65.4006C125.376 64.7519 125.016 63.8759 125.021 62.7727C125.016 61.8731 125.257 61.0848 125.745 60.4077C126.233 59.7306 126.908 59.2027 127.769 58.8239C128.631 58.4451 129.614 58.2557 130.717 58.2557C131.844 58.2557 132.821 58.4474 133.65 58.831C134.483 59.2098 135.13 59.7424 135.589 60.429C136.048 61.1155 136.283 61.911 136.292 62.8153H132.926Z" fill="white"/>
<rect x="142" y="58" width="43" height="16" rx="8" fill="white"/>
<rect x="146" y="61" width="35" height="10" rx="5" fill="#242424"/>
</svg>
