<svg width="190" height="86" viewBox="0 0 190 86" fill="none" xmlns="http://www.w3.org/2000/svg">
<path d="M4 20C4 8.9543 12.9543 0 24 0H95H117.75H129.125C131.547 0 132.986 2.7065 131.631 4.71454L95 59L142.46 4.29603C144.828 1.56734 148.262 0 151.875 0H163.25H166C177.046 0 186 8.95431 186 20V66C186 77.0457 177.046 86 166 86H95H72.25H60.875C58.5184 86 57.1641 83.319 58.5626 81.4222L95 32L47.7252 81.8723C45.2273 84.5075 41.756 86 38.125 86H26.75H24C12.9543 86 4 77.0457 4 66V20Z" fill="#242424"/>
<path d="M27.1723 27.008V44H21.8443V37.376H16.7803V44H11.4523V27.008H16.7803V33.128H21.8443V27.008H27.1723ZM40.2495 44.168C38.6495 44.168 37.1775 43.792 35.8335 43.04C34.5055 42.288 33.4495 41.248 32.6655 39.92C31.8815 38.592 31.4895 37.096 31.4895 35.432C31.4895 33.768 31.8815 32.272 32.6655 30.944C33.4495 29.616 34.5055 28.584 35.8335 27.848C37.1775 27.096 38.6495 26.72 40.2495 26.72C41.8495 26.72 43.3135 27.096 44.6415 27.848C45.9695 28.584 47.0175 29.616 47.7855 30.944C48.5695 32.272 48.9615 33.768 48.9615 35.432C48.9615 37.096 48.5695 38.592 47.7855 39.92C47.0175 41.248 45.9615 42.288 44.6175 43.04C43.2895 43.792 41.8335 44.168 40.2495 44.168ZM40.2495 39.2C41.3055 39.2 42.1215 38.864 42.6975 38.192C43.2735 37.504 43.5615 36.584 43.5615 35.432C43.5615 34.264 43.2735 33.344 42.6975 32.672C42.1215 31.984 41.3055 31.64 40.2495 31.64C39.1775 31.64 38.3535 31.984 37.7775 32.672C37.2015 33.344 36.9135 34.264 36.9135 35.432C36.9135 36.584 37.2015 37.504 37.7775 38.192C38.3535 38.864 39.1775 39.2 40.2495 39.2ZM73.7076 27.008V44H68.4036V35.528L65.7876 44H61.2276L58.6116 35.528V44H53.2836V27.008H59.8116L63.5556 37.208L67.2036 27.008H73.7076ZM83.8397 31.256V33.344H89.1197V37.352H83.8397V39.752H89.8397V44H78.5117V27.008H89.8397V31.256H83.8397ZM118.728 27.008L114.84 44H108.216L106.248 34.352L104.28 44H97.6557L93.7677 27.008H99.5037L101.04 37.712L103.344 27.008H109.152L111.456 37.712L112.992 27.008H118.728ZM131.318 44.168C129.718 44.168 128.246 43.792 126.902 43.04C125.574 42.288 124.518 41.248 123.734 39.92C122.95 38.592 122.558 37.096 122.558 35.432C122.558 33.768 122.95 32.272 123.734 30.944C124.518 29.616 125.574 28.584 126.902 27.848C128.246 27.096 129.718 26.72 131.318 26.72C132.918 26.72 134.382 27.096 135.71 27.848C137.038 28.584 138.086 29.616 138.854 30.944C139.638 32.272 140.03 33.768 140.03 35.432C140.03 37.096 139.638 38.592 138.854 39.92C138.086 41.248 137.03 42.288 135.686 43.04C134.358 43.792 132.902 44.168 131.318 44.168ZM131.318 39.2C132.374 39.2 133.19 38.864 133.766 38.192C134.342 37.504 134.63 36.584 134.63 35.432C134.63 34.264 134.342 33.344 133.766 32.672C133.19 31.984 132.374 31.64 131.318 31.64C130.246 31.64 129.422 31.984 128.846 32.672C128.27 33.344 127.982 34.264 127.982 35.432C127.982 36.584 128.27 37.504 128.846 38.192C129.422 38.864 130.246 39.2 131.318 39.2ZM152.896 44L149.704 37.904H149.68V44H144.352V27.008H152.272C153.648 27.008 154.824 27.256 155.8 27.752C156.776 28.232 157.504 28.896 157.984 29.744C158.48 30.576 158.728 31.52 158.728 32.576C158.728 33.712 158.408 34.72 157.768 35.6C157.144 36.48 156.24 37.112 155.056 37.496L158.752 44H152.896ZM149.68 34.352H151.792C152.304 34.352 152.688 34.24 152.944 34.016C153.2 33.776 153.328 33.408 153.328 32.912C153.328 32.464 153.192 32.112 152.92 31.856C152.664 31.6 152.288 31.472 151.792 31.472H149.68V34.352ZM173.102 44L168.158 36.632V44H162.83V27.008H168.158V34.16L173.03 27.008H179.054L173.198 35.144L179.438 44H173.102Z" fill="white"/>
<path d="M42.0644 52.84C42.0644 53.912 41.8164 54.888 41.3204 55.768C40.8244 56.632 40.0884 57.32 39.1124 57.832C38.1524 58.344 36.9844 58.6 35.6084 58.6H33.4964V64H28.1684V47.008H35.6084C37.6884 47.008 39.2804 47.536 40.3844 48.592C41.5044 49.648 42.0644 51.064 42.0644 52.84ZM35.0084 54.4C36.1124 54.4 36.6644 53.88 36.6644 52.84C36.6644 51.8 36.1124 51.28 35.0084 51.28H33.4964V54.4H35.0084ZM49.5624 59.968H54.6984V64H44.2344V47.008H49.5624V59.968ZM67.751 61.432H62.087L61.247 64H55.655L61.871 47.008H68.015L74.207 64H68.591L67.751 61.432ZM66.455 57.424L64.919 52.696L63.383 57.424H66.455ZM89.2415 47.008V51.232H84.7295V64H79.4015V51.232H74.9375V47.008H89.2415ZM103.167 47.008V51.232H96.4946V53.584H101.295V57.592H96.4946V64H91.1666V47.008H103.167ZM113.731 64.168C112.131 64.168 110.659 63.792 109.315 63.04C107.987 62.288 106.931 61.248 106.147 59.92C105.363 58.592 104.971 57.096 104.971 55.432C104.971 53.768 105.363 52.272 106.147 50.944C106.931 49.616 107.987 48.584 109.315 47.848C110.659 47.096 112.131 46.72 113.731 46.72C115.331 46.72 116.795 47.096 118.123 47.848C119.451 48.584 120.499 49.616 121.267 50.944C122.051 52.272 122.443 53.768 122.443 55.432C122.443 57.096 122.051 58.592 121.267 59.92C120.499 61.248 119.443 62.288 118.099 63.04C116.771 63.792 115.315 64.168 113.731 64.168ZM113.731 59.2C114.787 59.2 115.603 58.864 116.179 58.192C116.755 57.504 117.043 56.584 117.043 55.432C117.043 54.264 116.755 53.344 116.179 52.672C115.603 51.984 114.787 51.64 113.731 51.64C112.659 51.64 111.835 51.984 111.259 52.672C110.683 53.344 110.395 54.264 110.395 55.432C110.395 56.584 110.683 57.504 111.259 58.192C111.835 58.864 112.659 59.2 113.731 59.2ZM133.389 64L130.197 57.904H130.173V64H124.845V47.008H132.765C134.141 47.008 135.317 47.256 136.293 47.752C137.269 48.232 137.997 48.896 138.477 49.744C138.973 50.576 139.221 51.52 139.221 52.576C139.221 53.712 138.901 54.72 138.261 55.6C137.637 56.48 136.733 57.112 135.549 57.496L139.245 64H133.389ZM130.173 54.352H132.285C132.797 54.352 133.181 54.24 133.437 54.016C133.693 53.776 133.821 53.408 133.821 52.912C133.821 52.464 133.685 52.112 133.413 51.856C133.157 51.6 132.781 51.472 132.285 51.472H130.173V54.352ZM161.827 47.008V64H156.523V55.528L153.907 64H149.347L146.731 55.528V64H141.403V47.008H147.931L151.675 57.208L155.323 47.008H161.827Z" fill="white"/>
</svg>
