<svg width="54" height="38" viewBox="0 0 54 38" fill="none" xmlns="http://www.w3.org/2000/svg">
<g clip-path="url(#clip0_632_7)">
<path d="M18.1461 4.45751H27.6265C27.9979 4.45751 28.3628 4.47395 28.7277 4.50353C29.5988 4.57585 30.4338 4.15509 30.871 3.39902C31.683 1.9855 30.756 0.20381 29.1321 0.065745C28.6357 0.0230108 28.1327 0 27.6265 0H18.2118C8.37635 0 0.0727525 8.04719 0.141785 17.8794C0.174657 22.7346 2.16016 27.1231 5.34222 30.3085C8.55386 33.5201 12.9916 35.5056 17.8962 35.5056H27.6265C28.1327 35.5056 28.6357 35.4826 29.1321 35.4431C30.756 35.3051 31.683 33.5201 30.871 32.1099C30.4371 31.3538 29.5988 30.933 28.7277 31.0053C28.3628 31.0349 27.9979 31.0514 27.6265 31.0514H17.8962C10.4539 31.0514 4.42179 24.9108 4.60258 17.4323C4.77681 10.1708 10.8878 4.45751 18.1461 4.45751Z" fill="#0086FD"/>
<path d="M5.26698 27.1658L2.06191 35.3576C1.54581 36.6758 2.92317 37.9348 4.18876 37.3037L13.1728 32.8363L5.26698 27.1658Z" fill="#0086FD"/>
<path d="M30.5029 27V9.54545H38.037C39.3325 9.54545 40.466 9.80114 41.4376 10.3125C42.4092 10.8239 43.1649 11.5426 43.7046 12.4688C44.2444 13.3949 44.5143 14.4773 44.5143 15.7159C44.5143 16.9659 44.2359 18.0483 43.6791 18.9631C43.1279 19.8778 42.3524 20.5824 41.3524 21.0767C40.358 21.571 39.1961 21.8182 37.8666 21.8182H33.3666V18.1364H36.912C37.4688 18.1364 37.9433 18.0398 38.3353 17.8466C38.733 17.6477 39.037 17.3665 39.2472 17.0028C39.4632 16.6392 39.5711 16.2102 39.5711 15.7159C39.5711 15.2159 39.4632 14.7898 39.2472 14.4375C39.037 14.0795 38.733 13.8068 38.3353 13.6193C37.9433 13.4261 37.4688 13.3295 36.912 13.3295H35.2416V27H30.5029Z" fill="#0086FD"/>
<path d="M12.5029 27V9.54545H17.2416V16.3636H23.5143V9.54545H28.2529V27H23.5143V20.1818H17.2416V27H12.5029Z" fill="#0086FD"/>
<path d="M37.034 5.3122C35.5679 5.3122 34.3779 4.12221 34.3779 2.6561C34.3779 1.18998 35.5679 0 37.034 0C38.5001 0 39.6901 1.18998 39.6901 2.6561C39.6901 4.12221 38.5001 5.3122 37.034 5.3122Z" fill="#4F3FF0"/>
<path d="M37.034 35.3122C35.5679 35.3122 34.3779 34.1222 34.3779 32.6561C34.3779 31.19 35.5679 30 37.034 30C38.5001 30 39.6901 31.19 39.6901 32.6561C39.6901 34.1222 38.5001 35.3122 37.034 35.3122Z" fill="#4F3FF0"/>
</g>
<path d="M54.0001 17.4298C54.0001 23.8103 50.6372 29.3986 45.5913 32.5314C45.2297 32.7549 44.8286 32.8601 44.4309 32.8601C43.6584 32.8601 42.9023 32.4558 42.4848 31.7392C41.88 30.684 42.2416 29.3559 43.2738 28.7116C47.0344 26.3645 49.5425 22.1864 49.5425 17.4331C49.5425 12.6797 47.0377 8.4983 43.2738 6.15121C42.5834 5.71729 42.189 4.97766 42.189 4.2183C42.189 3.84684 42.2876 3.46881 42.4848 3.12365C43.1127 2.03228 44.5229 1.6674 45.5913 2.33471C46.7582 3.06119 47.8365 3.91259 48.7996 4.88233C52.0146 8.09069 54.0001 12.5285 54.0001 17.4298Z" fill="#0086FD"/>
<defs>
<clipPath id="clip0_632_7">
<rect width="45.2359" height="37.4714" fill="white" transform="translate(0.14209)"/>
</clipPath>
</defs>
</svg>
