<svg width="145" height="38" viewBox="0 0 145 38" fill="none" xmlns="http://www.w3.org/2000/svg">
<path d="M18.7681 4.45751H28.2486C28.62 4.45751 28.9849 4.47395 29.3498 4.50353C30.2209 4.57585 31.0559 4.15508 31.4931 3.39902C32.305 1.9855 31.378 0.20381 29.7541 0.065745C29.2577 0.0230108 28.7548 0 28.2486 0H18.8339C8.99842 0 0.694823 8.04719 0.763855 17.8794C0.796728 22.7346 2.78223 27.1231 5.96429 30.3085C9.17593 33.5201 13.6137 35.5056 18.5183 35.5056H28.2486C28.7548 35.5056 29.2577 35.4826 29.7541 35.4431C31.378 35.3051 32.305 33.5201 31.4931 32.1099C31.0592 31.3538 30.2209 30.933 29.3498 31.0053C28.9849 31.0349 28.62 31.0514 28.2486 31.0514H18.5183C11.076 31.0514 5.04386 24.9108 5.22465 17.4323C5.39888 10.1708 11.5099 4.45751 18.7681 4.45751Z" fill="#0086FD"/>
<path d="M5.88905 27.1658L2.68398 35.3576C2.16788 36.6758 3.54524 37.9348 4.81083 37.3037L13.7949 32.8363L5.88905 27.1658Z" fill="#0086FD"/>
<path d="M31.125 27V9.54545H38.6591C39.9545 9.54545 41.0881 9.80114 42.0597 10.3125C43.0313 10.8239 43.7869 11.5426 44.3267 12.4688C44.8665 13.3949 45.1364 14.4773 45.1364 15.7159C45.1364 16.9659 44.858 18.0483 44.3011 18.9631C43.75 19.8778 42.9744 20.5824 41.9744 21.0767C40.9801 21.571 39.8182 21.8182 38.4886 21.8182H33.9886V18.1364H37.5341C38.0909 18.1364 38.5653 18.0398 38.9574 17.8466C39.3551 17.6477 39.6591 17.3665 39.8693 17.0028C40.0852 16.6392 40.1932 16.2102 40.1932 15.7159C40.1932 15.2159 40.0852 14.7898 39.8693 14.4375C39.6591 14.0795 39.3551 13.8068 38.9574 13.6193C38.5653 13.4261 38.0909 13.3295 37.5341 13.3295H35.8636V27H31.125ZM51.6477 9.54545V27H46.9432V9.54545H51.6477ZM57.6925 27.2045C56.8572 27.2045 56.1186 27.0682 55.4766 26.7955C54.8402 26.517 54.3402 26.0966 53.9766 25.5341C53.6129 24.9716 53.4311 24.2557 53.4311 23.3864C53.4311 22.6705 53.5533 22.0597 53.7976 21.554C54.0419 21.0426 54.3828 20.625 54.8203 20.3011C55.2578 19.9773 55.7663 19.7301 56.3459 19.5597C56.9311 19.3892 57.5618 19.2784 58.2379 19.2273C58.9709 19.1705 59.5589 19.1023 60.0021 19.0227C60.451 18.9375 60.7749 18.821 60.9737 18.6733C61.1726 18.5199 61.272 18.3182 61.272 18.0682V18.0341C61.272 17.6932 61.1413 17.4318 60.88 17.25C60.6186 17.0682 60.2834 16.9773 59.8743 16.9773C59.4254 16.9773 59.0589 17.0767 58.7749 17.2756C58.4964 17.4687 58.3288 17.767 58.272 18.1705H53.9425C53.9993 17.375 54.2521 16.642 54.701 15.9716C55.1555 15.2955 55.8175 14.7557 56.6868 14.3523C57.5561 13.9432 58.6413 13.7386 59.9425 13.7386C60.88 13.7386 61.7209 13.8494 62.4652 14.071C63.2095 14.2869 63.843 14.5909 64.3658 14.983C64.8885 15.3693 65.2862 15.8239 65.5589 16.3466C65.8374 16.8636 65.9766 17.4261 65.9766 18.0341V27H61.5788V25.1591H61.4766C61.2152 25.6477 60.897 26.0426 60.522 26.3438C60.1527 26.6449 59.7294 26.8636 59.2521 27C58.7805 27.1364 58.2607 27.2045 57.6925 27.2045ZM59.2266 24.2386C59.5845 24.2386 59.9197 24.1648 60.2322 24.017C60.5504 23.8693 60.8089 23.6562 61.0078 23.3778C61.2067 23.0994 61.3061 22.7614 61.3061 22.3636V21.2727C61.1811 21.3239 61.0476 21.3722 60.9055 21.4176C60.7692 21.4631 60.6214 21.5057 60.4624 21.5455C60.3089 21.5852 60.1442 21.6222 59.968 21.6562C59.7976 21.6903 59.6186 21.7216 59.4311 21.75C59.0675 21.8068 58.7692 21.9006 58.5362 22.0312C58.3089 22.1562 58.1385 22.3125 58.0249 22.5C57.9169 22.6818 57.8629 22.8864 57.8629 23.1136C57.8629 23.4773 57.9908 23.7557 58.2464 23.9489C58.5021 24.142 58.8288 24.2386 59.2266 24.2386ZM76.0312 13.9091V17.3182H67.4062V13.9091H76.0312ZM69.0767 10.7727H73.7812V22.7898C73.7812 22.9716 73.8125 23.125 73.875 23.25C73.9375 23.3693 74.0341 23.4602 74.1648 23.5227C74.2955 23.5795 74.4631 23.608 74.6676 23.608C74.8097 23.608 74.9744 23.5909 75.1619 23.5568C75.3551 23.5227 75.4972 23.4943 75.5881 23.4716L76.2699 26.7784C76.0597 26.8409 75.7585 26.9176 75.3665 27.0085C74.9801 27.0994 74.5199 27.1591 73.9858 27.1875C72.9063 27.2443 72 27.1335 71.267 26.8551C70.5341 26.571 69.983 26.125 69.6136 25.517C69.2443 24.9091 69.0653 24.1477 69.0767 23.233V10.7727ZM85.7919 13.9091V17.3182H77.0305V13.9091H85.7919ZM78.701 27V13.5341C78.701 12.4545 78.8942 11.5597 79.2805 10.8494C79.6669 10.1392 80.2124 9.60795 80.9169 9.25568C81.6214 8.90341 82.451 8.72727 83.4055 8.72727C84.0021 8.72727 84.5817 8.77273 85.1442 8.86364C85.7124 8.95455 86.1328 9.03409 86.4055 9.10227L85.7237 12.4773C85.5533 12.4261 85.3544 12.3864 85.1271 12.358C84.8999 12.3239 84.701 12.3068 84.5305 12.3068C84.0874 12.3068 83.7891 12.4006 83.6357 12.5881C83.4822 12.7756 83.4055 13.0227 83.4055 13.3295V27H78.701ZM93.5156 27.2386C92.0952 27.2386 90.8793 26.9574 89.8679 26.3949C88.8565 25.8267 88.081 25.0369 87.5412 24.0256C87.0014 23.0085 86.7315 21.8295 86.7315 20.4886C86.7315 19.1477 87.0014 17.9716 87.5412 16.9602C88.081 15.9432 88.8565 15.1534 89.8679 14.5909C90.8793 14.0227 92.0952 13.7386 93.5156 13.7386C94.9361 13.7386 96.152 14.0227 97.1634 14.5909C98.1747 15.1534 98.9503 15.9432 99.4901 16.9602C100.03 17.9716 100.3 19.1477 100.3 20.4886C100.3 21.8295 100.03 23.0085 99.4901 24.0256C98.9503 25.0369 98.1747 25.8267 97.1634 26.3949C96.152 26.9574 94.9361 27.2386 93.5156 27.2386ZM93.5497 23.7614C93.9474 23.7614 94.2912 23.6278 94.581 23.3608C94.8707 23.0937 95.0952 22.7131 95.2543 22.2188C95.4134 21.7244 95.4929 21.1364 95.4929 20.4545C95.4929 19.767 95.4134 19.179 95.2543 18.6903C95.0952 18.196 94.8707 17.8153 94.581 17.5483C94.2912 17.2812 93.9474 17.1477 93.5497 17.1477C93.1293 17.1477 92.7685 17.2812 92.4673 17.5483C92.1662 17.8153 91.9361 18.196 91.777 18.6903C91.6179 19.179 91.5384 19.767 91.5384 20.4545C91.5384 21.1364 91.6179 21.7244 91.777 22.2188C91.9361 22.7131 92.1662 23.0937 92.4673 23.3608C92.7685 23.6278 93.1293 23.7614 93.5497 23.7614ZM102.209 27V13.9091H106.777V16.3977H106.913C107.152 15.4773 107.53 14.804 108.047 14.3778C108.57 13.9517 109.18 13.7386 109.879 13.7386C110.084 13.7386 110.286 13.7557 110.484 13.7898C110.689 13.8182 110.885 13.8608 111.072 13.9176V17.9318C110.839 17.8523 110.553 17.7926 110.212 17.7528C109.871 17.7131 109.578 17.6932 109.334 17.6932C108.874 17.6932 108.459 17.7983 108.089 18.0085C107.726 18.2131 107.439 18.5028 107.229 18.8778C107.018 19.2472 106.913 19.6818 106.913 20.1818V27H102.209ZM112.615 27V13.9091H117.081V16.3977H117.217C117.49 15.5795 117.956 14.9318 118.615 14.4545C119.274 13.9773 120.058 13.7386 120.967 13.7386C121.888 13.7386 122.68 13.983 123.345 14.4716C124.01 14.9545 124.411 15.5966 124.547 16.3977H124.683C124.905 15.5966 125.376 14.9545 126.098 14.4716C126.82 13.983 127.666 13.7386 128.638 13.7386C129.893 13.7386 130.911 14.142 131.689 14.9489C132.473 15.7557 132.865 16.8295 132.865 18.1705V27H128.161V19.3636C128.161 18.7898 128.016 18.3409 127.726 18.017C127.436 17.6875 127.047 17.5227 126.558 17.5227C126.075 17.5227 125.692 17.6875 125.408 18.017C125.129 18.3409 124.99 18.7898 124.99 19.3636V27H120.49V19.3636C120.49 18.7898 120.345 18.3409 120.055 18.017C119.766 17.6875 119.376 17.5227 118.888 17.5227C118.564 17.5227 118.286 17.5966 118.053 17.7443C117.82 17.892 117.638 18.1051 117.507 18.3835C117.382 18.6562 117.32 18.983 117.32 19.3636V27H112.615Z" fill="#0086FD"/>
<path d="M13.125 27V9.54545H17.8636V16.3636H24.1364V9.54545H28.875V27H24.1364V20.1818H17.8636V27H13.125Z" fill="#0086FD"/>
<path d="M37.6561 5.3122C36.19 5.3122 35 4.12221 35 2.6561C35 1.18998 36.19 0 37.6561 0C39.1222 0 40.3122 1.18998 40.3122 2.6561C40.3122 4.12221 39.1222 5.3122 37.6561 5.3122Z" fill="#4F3FF0"/>
<path d="M65.6561 5.3122C64.19 5.3122 63 4.12221 63 2.6561C63 1.18998 64.19 0 65.6561 0C67.1222 0 68.3122 1.18998 68.3122 2.6561C68.3122 4.12221 67.1222 5.3122 65.6561 5.3122Z" fill="#4F3FF0"/>
<path d="M65.6561 36.3122C64.19 36.3122 63 35.1222 63 33.6561C63 32.19 64.19 31 65.6561 31C67.1222 31 68.3122 32.19 68.3122 33.6561C68.3122 35.1222 67.1222 36.3122 65.6561 36.3122Z" fill="#4F3FF0"/>
<path d="M96.6561 5.3122C95.19 5.3122 94 4.12221 94 2.6561C94 1.18998 95.19 0 96.6561 0C98.1222 0 99.3122 1.18998 99.3122 2.6561C99.3122 4.12221 98.1222 5.3122 96.6561 5.3122Z" fill="#4F3FF0"/>
<path d="M96.6561 36.3122C95.19 36.3122 94 35.1222 94 33.6561C94 32.19 95.19 31 96.6561 31C98.1222 31 99.3122 32.19 99.3122 33.6561C99.3122 35.1222 98.1222 36.3122 96.6561 36.3122Z" fill="#4F3FF0"/>
<path d="M126.656 5.3122C125.19 5.3122 124 4.12221 124 2.6561C124 1.18998 125.19 0 126.656 0C128.122 0 129.312 1.18998 129.312 2.6561C129.312 4.12221 128.122 5.3122 126.656 5.3122Z" fill="#4F3FF0"/>
<path d="M126.656 36.3122C125.19 36.3122 124 35.1222 124 33.6561C124 32.19 125.19 31 126.656 31C128.122 31 129.312 32.19 129.312 33.6561C129.312 35.1222 128.122 36.3122 126.656 36.3122Z" fill="#4F3FF0"/>
<path d="M37.6561 36.3122C36.19 36.3122 35 35.1222 35 33.6561C35 32.19 36.19 31 37.6561 31C39.1222 31 40.3122 32.19 40.3122 33.6561C40.3122 35.1222 39.1222 36.3122 37.6561 36.3122Z" fill="#4F3FF0"/>
<path d="M144.811 18.4298C144.811 24.8103 141.448 30.3986 136.402 33.5314C136.041 33.7549 135.64 33.8601 135.242 33.8601C134.469 33.8601 133.713 33.4558 133.296 32.7392C132.691 31.684 133.053 30.3559 134.085 29.7116C137.845 27.3645 140.354 23.1864 140.354 18.4331C140.354 13.6797 137.849 9.4983 134.085 7.15121C133.394 6.71729 133 5.97766 133 5.2183C133 4.84684 133.099 4.46881 133.296 4.12365C133.924 3.03228 135.334 2.6674 136.402 3.33471C137.569 4.06119 138.647 4.91259 139.611 5.88233C142.826 9.09069 144.811 13.5285 144.811 18.4298Z" fill="#0086FD"/>
<path d="M43 2.25C43 1.00736 44.0074 0 45.25 0H56.75C57.9926 0 59 1.00736 59 2.25V2.25C59 3.49264 57.9926 4.5 56.75 4.5H45.25C44.0074 4.5 43 3.49264 43 2.25V2.25Z" fill="#0086FD"/>
<path d="M43 33.25C43 32.0074 44.0074 31 45.25 31H56.75C57.9926 31 59 32.0074 59 33.25V33.25C59 34.4926 57.9926 35.5 56.75 35.5H45.25C44.0074 35.5 43 34.4926 43 33.25V33.25Z" fill="#0086FD"/>
<path d="M73 2.25C73 1.00736 74.0074 0 75.25 0H86.75C87.9926 0 89 1.00736 89 2.25V2.25C89 3.49264 87.9926 4.5 86.75 4.5H75.25C74.0074 4.5 73 3.49264 73 2.25V2.25Z" fill="#0086FD"/>
<path d="M73 33.25C73 32.0074 74.0074 31 75.25 31H86.75C87.9926 31 89 32.0074 89 33.25V33.25C89 34.4926 87.9926 35.5 86.75 35.5H75.25C74.0074 35.5 73 34.4926 73 33.25V33.25Z" fill="#0086FD"/>
<path d="M104 2.25C104 1.00736 105.007 0 106.25 0H117.75C118.993 0 120 1.00736 120 2.25V2.25C120 3.49264 118.993 4.5 117.75 4.5H106.25C105.007 4.5 104 3.49264 104 2.25V2.25Z" fill="#0086FD"/>
<path d="M104 33.25C104 32.0074 105.007 31 106.25 31H117.75C118.993 31 120 32.0074 120 33.25V33.25C120 34.4926 118.993 35.5 117.75 35.5H106.25C105.007 35.5 104 34.4926 104 33.25V33.25Z" fill="#0086FD"/>
</svg>
