<?xml version="1.0" encoding="UTF-8"?>
<svg version="1.1" xmlns="http://www.w3.org/2000/svg" width="500" height="500">
<path d="M0 0 C4.12769559 2.77987662 5.25790504 5.58121755 7.0078125 10.11328125 C10.29839104 16.37056248 17.1476381 21.11118028 22.43359375 25.65234375 C23.31248398 26.40849619 24.18017851 27.18017851 25 28 C25.99 25.525 25.99 25.525 27 23 C34.52969652 22.97473352 42.0593822 22.95716859 49.58911133 22.94506836 C52.15291757 22.9400263 54.71672091 22.93319286 57.28051758 22.92456055 C60.95655021 22.91248936 64.63254498 22.90677058 68.30859375 22.90234375 C70.03981728 22.89460182 70.03981728 22.89460182 71.80601501 22.88670349 C72.86703934 22.88662796 73.92806366 22.88655243 75.02124023 22.88647461 C75.96055893 22.884254 76.89987762 22.88203339 77.86766052 22.87974548 C80 23 80 23 81 24 C81.07319621 26.69654854 81.09242537 29.36691458 81.0625 32.0625 C81.05798828 32.82111328 81.05347656 33.57972656 81.04882812 34.36132812 C81.0370068 36.24091871 81.01907078 38.12046899 81 40 C79.02 40 77.04 40 75 40 C75 50.23 75 60.46 75 71 C76.32 71.66 77.64 72.32 79 73 C80.13610572 73.83728798 81.24539297 74.71193685 82.328125 75.6171875 C82.9557373 76.13611572 83.58334961 76.65504395 84.22998047 77.18969727 C84.89658691 77.74584717 85.56319336 78.30199707 86.25 78.875 C92.65121195 84.1677094 99.18458222 89.21551872 105.94628906 94.04052734 C106.58018555 94.50281738 107.21408203 94.96510742 107.8671875 95.44140625 C108.42519043 95.84045166 108.98319336 96.23949707 109.55810547 96.65063477 C112.07875182 99.00952613 112.92852697 101.26326092 113.26069641 104.6872406 C113.2653038 105.71140579 113.26991119 106.73557098 113.2746582 107.79077148 C113.28419022 108.95555527 113.29372223 110.12033905 113.30354309 111.32041931 C113.30217598 113.20175316 113.30217598 113.20175316 113.30078125 115.12109375 C113.30506638 116.41314224 113.3093515 117.70519073 113.31376648 119.03639221 C113.32121925 121.7691763 113.32094434 124.50183117 113.31567383 127.23461914 C113.30988053 130.72950454 113.32681063 134.22385973 113.3500185 137.71865749 C113.36832879 141.06115822 113.36456994 144.40354317 113.36328125 147.74609375 C113.372491 148.99829208 113.38170074 150.25049042 113.39118958 151.54063416 C113.38496078 152.7085701 113.37873199 153.87650604 113.37231445 155.07983398 C113.37294388 156.10479477 113.3735733 157.12975555 113.3742218 158.18577576 C112.9390173 161.45860233 111.91838475 163.33698595 110 166 C106.2464504 168.64080629 102.73901378 168.04857077 98.33984375 167.77734375 C95.42981804 168.05425772 94.90290852 168.87140961 93 171 C85.75748618 174.95575052 76.31674577 179.29052952 68 178 C60.03037063 174.76574973 53.1582287 169.36547093 46.20092773 164.40551758 C37.77934376 158.40192833 30.88254318 153.92142498 20.65234375 151.72265625 C17.40809232 150.83872913 15.32880095 149.41197241 13 147 C11.94875399 156.74279789 12 166.11639397 12 176 C0.12 176 -11.76 176 -24 176 C-24 170.06 -24 164.12 -24 158 C-24.33 155.36 -24.66 152.72 -25 150 C-25.48726563 150.3403125 -25.97453125 150.680625 -26.4765625 151.03125 C-38.49105034 159.24479078 -50.83757157 165.44334343 -64.20507812 171.14331055 C-70.76488524 173.94122227 -70.76488524 173.94122227 -77.0546875 177.28515625 C-80.92603169 179.53916168 -82.56084255 179.8005038 -87 179 C-91.14428556 176.89850676 -95.04672376 174.4366741 -99 172 C-104.63860337 168.82725816 -109.67272014 166.72010856 -116.0234375 165.51953125 C-119.73528984 164.54388627 -122.14605647 162.40743896 -124.10699463 159.17549133 C-125.13433248 156.67274649 -125.28966335 154.7684468 -125.35058594 152.06713867 C-125.37691101 151.08899704 -125.40323608 150.11085541 -125.43035889 149.10307312 C-125.4481842 148.05198868 -125.46600952 147.00090424 -125.484375 145.91796875 C-125.5084845 144.83042801 -125.53259399 143.74288727 -125.55743408 142.62239075 C-125.60571501 140.32184185 -125.64911 138.02118599 -125.68798828 135.72045898 C-125.74958867 132.2109347 -125.8327254 128.70237961 -125.91796875 125.19335938 C-125.96224265 122.95575461 -126.00525266 120.71812441 -126.046875 118.48046875 C-126.07279724 117.435457 -126.09871948 116.39044525 -126.12542725 115.31376648 C-126.30041341 102.71456984 -126.30041341 102.71456984 -121.80859375 97.4140625 C-118.60969581 94.66452296 -115.375876 91.98508133 -112.0625 89.375 C-111.40862305 88.85574951 -110.75474609 88.33649902 -110.08105469 87.80151367 C-105.06478345 83.82336206 -100.02309075 79.87749191 -94.98388672 75.9284668 C-89.5921585 71.69558731 -84.28821865 67.36141745 -79 63 C-77.67734544 61.91634667 -76.35440799 60.83303858 -75.03125 59.75 C-63.21925035 50.07023703 -51.53423628 40.27100219 -40.22265625 30.0078125 C-38.18794248 28.16977581 -36.13245111 26.36063935 -34.0625 24.5625 C-33.42957031 24.00433594 -32.79664063 23.44617188 -32.14453125 22.87109375 C-30.51311987 21.44769475 -28.86076785 20.04825654 -27.19921875 18.66015625 C-21.9329607 14.13326688 -17.97970497 10.50344992 -15.78125 3.8125 C-13.25771713 -2.04209627 -5.20117961 -0.67566068 0 0 Z M-8 158 C-8 158.33 -8 158.66 -8 159 C-6.35 159 -4.7 159 -3 159 C-3 158.67 -3 158.34 -3 158 C-4.65 158 -6.3 158 -8 158 Z " fill="#4745D2" transform="translate(256,100)"/>
<path d="M0 0 C4.12769559 2.77987662 5.25790504 5.58121755 7.0078125 10.11328125 C10.29839104 16.37056248 17.1476381 21.11118028 22.43359375 25.65234375 C23.31248398 26.40849619 24.18017851 27.18017851 25 28 C25.99 25.525 25.99 25.525 27 23 C34.52969652 22.97473352 42.0593822 22.95716859 49.58911133 22.94506836 C52.15291757 22.9400263 54.71672091 22.93319286 57.28051758 22.92456055 C60.95655021 22.91248936 64.63254498 22.90677058 68.30859375 22.90234375 C70.03981728 22.89460182 70.03981728 22.89460182 71.80601501 22.88670349 C72.86703934 22.88662796 73.92806366 22.88655243 75.02124023 22.88647461 C75.96055893 22.884254 76.89987762 22.88203339 77.86766052 22.87974548 C80 23 80 23 81 24 C81.07319621 26.69654854 81.09242537 29.36691458 81.0625 32.0625 C81.05798828 32.82111328 81.05347656 33.57972656 81.04882812 34.36132812 C81.0370068 36.24091871 81.01907078 38.12046899 81 40 C79.02 40 77.04 40 75 40 C75 50.23 75 60.46 75 71 C76.32 71.66 77.64 72.32 79 73 C80.13610572 73.83728798 81.24539297 74.71193685 82.328125 75.6171875 C82.9557373 76.13611572 83.58334961 76.65504395 84.22998047 77.18969727 C84.89658691 77.74584717 85.56319336 78.30199707 86.25 78.875 C92.65121195 84.1677094 99.18458222 89.21551872 105.94628906 94.04052734 C106.58018555 94.50281738 107.21408203 94.96510742 107.8671875 95.44140625 C108.42519043 95.84045166 108.98319336 96.23949707 109.55810547 96.65063477 C112.07875182 99.00952613 112.92852697 101.26326092 113.26069641 104.6872406 C113.2653038 105.71140579 113.26991119 106.73557098 113.2746582 107.79077148 C113.28419022 108.95555527 113.29372223 110.12033905 113.30354309 111.32041931 C113.30217598 113.20175316 113.30217598 113.20175316 113.30078125 115.12109375 C113.30506638 116.41314224 113.3093515 117.70519073 113.31376648 119.03639221 C113.32121925 121.7691763 113.32094434 124.50183117 113.31567383 127.23461914 C113.30988053 130.72950454 113.32681063 134.22385973 113.3500185 137.71865749 C113.36832879 141.06115822 113.36456994 144.40354317 113.36328125 147.74609375 C113.372491 148.99829208 113.38170074 150.25049042 113.39118958 151.54063416 C113.38496078 152.7085701 113.37873199 153.87650604 113.37231445 155.07983398 C113.37294388 156.10479477 113.3735733 157.12975555 113.3742218 158.18577576 C112.9390173 161.45860233 111.91838475 163.33698595 110 166 C106.2464504 168.64080629 102.73901378 168.04857077 98.33984375 167.77734375 C95.42981804 168.05425772 94.90290852 168.87140961 93 171 C85.75748618 174.95575052 76.31674577 179.29052952 68 178 C60.03037063 174.76574973 53.1582287 169.36547093 46.20092773 164.40551758 C37.77934376 158.40192833 30.88254318 153.92142498 20.65234375 151.72265625 C17.40809232 150.83872913 15.32880095 149.41197241 13 147 C11.94875399 156.74279789 12 166.11639397 12 176 C0.12 176 -11.76 176 -24 176 C-24 170.06 -24 164.12 -24 158 C-24.33 155.36 -24.66 152.72 -25 150 C-25.48726563 150.3403125 -25.97453125 150.680625 -26.4765625 151.03125 C-38.49105034 159.24479078 -50.83757157 165.44334343 -64.20507812 171.14331055 C-70.76488524 173.94122227 -70.76488524 173.94122227 -77.0546875 177.28515625 C-80.92603169 179.53916168 -82.56084255 179.8005038 -87 179 C-91.14428556 176.89850676 -95.04672376 174.4366741 -99 172 C-104.63860337 168.82725816 -109.67272014 166.72010856 -116.0234375 165.51953125 C-119.73528984 164.54388627 -122.14605647 162.40743896 -124.10699463 159.17549133 C-125.13433248 156.67274649 -125.28966335 154.7684468 -125.35058594 152.06713867 C-125.37691101 151.08899704 -125.40323608 150.11085541 -125.43035889 149.10307312 C-125.4481842 148.05198868 -125.46600952 147.00090424 -125.484375 145.91796875 C-125.5084845 144.83042801 -125.53259399 143.74288727 -125.55743408 142.62239075 C-125.60571501 140.32184185 -125.64911 138.02118599 -125.68798828 135.72045898 C-125.74958867 132.2109347 -125.8327254 128.70237961 -125.91796875 125.19335938 C-125.96224265 122.95575461 -126.00525266 120.71812441 -126.046875 118.48046875 C-126.07279724 117.435457 -126.09871948 116.39044525 -126.12542725 115.31376648 C-126.30041341 102.71456984 -126.30041341 102.71456984 -121.80859375 97.4140625 C-118.60969581 94.66452296 -115.375876 91.98508133 -112.0625 89.375 C-111.40862305 88.85574951 -110.75474609 88.33649902 -110.08105469 87.80151367 C-105.06478345 83.82336206 -100.02309075 79.87749191 -94.98388672 75.9284668 C-89.5921585 71.69558731 -84.28821865 67.36141745 -79 63 C-77.67734544 61.91634667 -76.35440799 60.83303858 -75.03125 59.75 C-63.21925035 50.07023703 -51.53423628 40.27100219 -40.22265625 30.0078125 C-38.18794248 28.16977581 -36.13245111 26.36063935 -34.0625 24.5625 C-33.42957031 24.00433594 -32.79664063 23.44617188 -32.14453125 22.87109375 C-30.51311987 21.44769475 -28.86076785 20.04825654 -27.19921875 18.66015625 C-21.9329607 14.13326688 -17.97970497 10.50344992 -15.78125 3.8125 C-13.25771713 -2.04209627 -5.20117961 -0.67566068 0 0 Z M-15 5 C-15.391875 6.216875 -15.78375 7.43375 -16.1875 8.6875 C-17.845839 13.662517 -21.12917194 16.19820921 -25.05859375 19.515625 C-27.71405871 21.75848783 -30.25503 24.07175717 -32.78710938 26.44995117 C-38.04430384 31.38751444 -43.42931775 36.0715074 -49.0546875 40.58984375 C-52.59918197 43.49031203 -56.04962546 46.48875618 -59.5 49.5 C-65.57185742 54.78927257 -71.73787383 59.93664765 -78 65 C-79.21283208 65.99406922 -80.42502948 66.98891311 -81.63671875 67.984375 C-88.60482577 73.69673318 -95.63746771 79.29921891 -102.8125 84.75 C-107.71808802 88.48310623 -112.6181516 92.21834612 -117.4375 96.0625 C-118.28183594 96.73410156 -119.12617188 97.40570313 -119.99609375 98.09765625 C-122.64781668 100.61498386 -123.85257566 102.67738324 -124.26069641 106.33883667 C-124.2653038 107.20010162 -124.26991119 108.06136658 -124.2746582 108.94873047 C-124.28419022 109.93009979 -124.29372223 110.91146912 -124.30354309 111.9225769 C-124.30263168 112.9767984 -124.30172028 114.0310199 -124.30078125 115.1171875 C-124.30506638 116.20709991 -124.3093515 117.29701233 -124.31376648 118.41995239 C-124.31950759 120.72478542 -124.32001166 123.02963656 -124.31567383 125.33447266 C-124.3125181 128.85480817 -124.33596197 132.37429988 -124.36132812 135.89453125 C-124.3636016 138.13541561 -124.36430439 140.37630222 -124.36328125 142.6171875 C-124.372491 143.66736053 -124.38170074 144.71753357 -124.39118958 145.79953003 C-124.34822336 152.61250554 -123.53399908 157.08206167 -118.9375 162.375 C-114.46780768 164.84759575 -110.98444482 165.09397966 -106 164 C-101.33852659 161.82093142 -97.1968944 158.9515646 -93 156 C-91.65130994 155.07252644 -90.30234094 154.14545839 -88.953125 153.21875 C-72.25175078 141.65062346 -56.31228904 129.24684309 -40.83959961 116.08789062 C-37.38842206 113.15682372 -33.89768068 110.28274209 -30.375 107.4375 C-25.52675027 103.5049519 -20.95376301 99.3423484 -16.41015625 95.06640625 C-13.06138554 92.195256 -11.02425609 91.09483853 -6.625 90.6875 C0.27719841 91.2825171 4.43521774 95.00706557 9.1875 99.625 C14.03176298 104.21419262 18.98895574 108.5463862 24.1953125 112.7265625 C26.74312191 114.79177848 29.24293449 116.89975685 31.73364258 119.03271484 C38.07601341 124.46094655 44.56709611 129.64005899 51.23291016 134.66699219 C53.13133039 136.09906935 55.02455083 137.53787945 56.91796875 138.9765625 C65.13769018 145.20287548 73.4456343 151.23847437 82 157 C82.59087402 157.40943848 83.18174805 157.81887695 83.79052734 158.24072266 C85.62137258 159.50890136 87.46511196 160.75607881 89.3125 162 C90.94638672 163.11375 90.94638672 163.11375 92.61328125 164.25 C96.71948074 166.37177321 99.39692304 166.82459954 104 167 C108.07761214 164.96119393 110.35383085 163.23444913 112 159 C112.30787958 156.4105546 112.30787958 156.4105546 112.2746582 153.57641602 C112.28419022 152.49171524 112.29372223 151.40701447 112.30354309 150.28944397 C112.30263168 149.12271652 112.30172028 147.95598907 112.30078125 146.75390625 C112.30720894 144.94900978 112.30720894 144.94900978 112.31376648 143.10765076 C112.31950898 140.56322865 112.32001064 138.01879013 112.31567383 135.47436523 C112.31251495 131.58093261 112.33597157 127.68826049 112.36132812 123.79492188 C112.36360121 121.32291763 112.36430457 118.85091133 112.36328125 116.37890625 C112.37709587 114.63185143 112.37709587 114.63185143 112.39118958 112.84950256 C112.38496078 111.76164963 112.37873199 110.67379669 112.37231445 109.55297852 C112.37294388 108.5990773 112.3735733 107.64517609 112.3742218 106.66236877 C111.62262475 101.31519632 108.6279885 98.41096112 104.46875 95.20751953 C103.8809375 94.76778809 103.293125 94.32805664 102.6875 93.875 C101.43083156 92.91166443 100.17432599 91.94811638 98.91796875 90.984375 C98.27263184 90.49388672 97.62729492 90.00339844 96.96240234 89.49804688 C93.78376054 87.07155445 90.64278522 84.59763561 87.5 82.125 C86.65634888 81.46540283 86.65634888 81.46540283 85.7956543 80.79248047 C83.05106658 78.64177003 80.36085051 76.45554042 77.71875 74.1796875 C75.32070077 71.79149502 75.32070077 71.79149502 73 72 C73 82.23 73 92.46 73 103 C71.68 102.01 70.36 101.02 69 100 C68.34 100 67.68 100 67 100 C66.814375 99.4225 66.62875 98.845 66.4375 98.25 C64.7260212 95.57116361 62.80836637 94.7531915 60.0793457 93.24902344 C56.09041199 90.85294678 52.51614887 87.88635018 48.875 85 C48.08996094 84.38382812 47.30492187 83.76765625 46.49609375 83.1328125 C43.32515015 80.64097486 40.17069881 78.14202141 37.0703125 75.5625 C35.16623058 73.7991977 35.16623058 73.7991977 33 74 C33 62.45 33 50.9 33 39 C31.02 39 29.04 39 27 39 C27.185625 37.453125 27.185625 37.453125 27.375 35.875 C26.88950961 30.85826596 24.68717817 29.04799324 21 26 C20.40711182 25.47946045 19.81422363 24.9589209 19.20336914 24.42260742 C16.68012474 22.21747389 14.10842696 20.08711371 11.49609375 17.98828125 C7.03013455 14.35280402 4.96176633 11.31597774 2.84375 5.95703125 C1.67752531 3.25203788 0.73546471 2.13977696 -2 1 C-7.75599749 0.36044472 -10.99381483 0.42150266 -15 5 Z M-8 158 C-8 158.33 -8 158.66 -8 159 C-6.35 159 -4.7 159 -3 159 C-3 158.67 -3 158.34 -3 158 C-4.65 158 -6.3 158 -8 158 Z " fill="#E5E0FC" transform="translate(256,100)"/>
<path d="M0 0 C4.94743622 4.24065962 9.81593647 8.50800907 14.62109375 12.90234375 C16.5659509 14.61726705 18.52246717 16.11893039 20.625 17.625 C23 20 23 20 23.375 23.8125 C23.25125 24.864375 23.1275 25.91625 23 27 C24.98 27 26.96 27 29 27 C29 38.55 29 50.1 29 62 C30.32 62.66 31.64 63.32 33 64 C34.29847924 64.91155527 35.57384909 65.85664506 36.828125 66.828125 C37.54613281 67.38113281 38.26414062 67.93414062 39.00390625 68.50390625 C39.74511719 69.08011719 40.48632812 69.65632813 41.25 70.25 C42.71325526 71.38057911 44.17679589 72.51078898 45.640625 73.640625 C46.36056641 74.1965332 47.08050781 74.75244141 47.82226562 75.32519531 C49.99500055 76.99615513 52.17310096 78.65929278 54.359375 80.3125 C55.30248535 81.02599609 55.30248535 81.02599609 56.26464844 81.75390625 C58.16262684 83.15821466 58.16262684 83.15821466 61 84.75 C61.66 85.1625 62.32 85.575 63 86 C63 86.66 63 87.32 63 88 C63.928125 88.4640625 63.928125 88.4640625 64.875 88.9375 C66.25 89.625 67.625 90.3125 69 91 C69 80.77 69 70.54 69 60 C71.89376786 61.44688393 73.80759816 62.50244468 76.21484375 64.46875 C77.1111853 65.1946936 77.1111853 65.1946936 78.02563477 65.93530273 C78.65655029 66.45165283 79.28746582 66.96800293 79.9375 67.5 C81.27780145 68.58567867 82.61896347 69.67029569 83.9609375 70.75390625 C84.97172363 71.57012451 84.97172363 71.57012451 86.00292969 72.40283203 C89.98219083 75.58526802 94.04236989 78.66157092 98.09765625 81.74609375 C99.05542969 82.48988281 100.01320313 83.23367187 101 84 C101.55026855 84.42555176 102.10053711 84.85110352 102.66748047 85.28955078 C106.88330632 88.64991896 106.88330632 88.64991896 108 92 C108.10769732 93.76242835 108.15875039 95.52856795 108.17700195 97.29418945 C108.19625481 98.91651237 108.19625481 98.91651237 108.21589661 100.5716095 C108.22328354 101.74036118 108.23067047 102.90911285 108.23828125 104.11328125 C108.246353 105.31558884 108.25442474 106.51789642 108.26274109 107.75663757 C108.27657972 110.30283161 108.28730286 112.84904417 108.29516602 115.39526367 C108.31238563 119.28665323 108.35627647 123.17719482 108.40039062 127.06835938 C108.41051697 129.54166042 108.41903325 132.01496868 108.42578125 134.48828125 C108.44328934 135.65096024 108.46079742 136.81363922 108.47883606 138.0115509 C108.46196607 144.30272296 108.25576286 148.21667629 104 153 C98.12312901 151.1835126 94.15812258 148.77064665 89.4140625 144.890625 C86.02835473 142.23903509 82.41022041 140.02923328 78.765625 137.75390625 C71.58694295 133.20132399 64.7648571 128.14010976 58 123 C57.26523437 122.48953125 56.53046875 121.9790625 55.7734375 121.453125 C55.18820312 120.97359375 54.60296875 120.4940625 54 120 C54 119.34 54 118.68 54 118 C53.2575 117.71125 52.515 117.4225 51.75 117.125 C49.43260203 116.17697356 47.22082885 115.15154089 45 114 C45 113.34 45 112.68 45 112 C44.44570313 111.75378906 43.89140625 111.50757813 43.3203125 111.25390625 C31.57829838 104.90847437 19.76524404 93.01439718 11 83 C11 82.34 11 81.68 11 81 C10.01 80.67 9.02 80.34 8 80 C5.8125 78.0625 5.8125 78.0625 4 76 C4 75.34 4 74.68 4 74 C2.68 73.34 1.36 72.68 0 72 C0 48.24 0 24.48 0 0 Z " fill="#6561E7" transform="translate(260,112)"/>
<path d="M0 0 C2.64590014 -0.02684679 5.29153096 -0.04676357 7.9375 -0.0625 C8.69224609 -0.07087891 9.44699219 -0.07925781 10.22460938 -0.08789062 C12.14994313 -0.09652441 14.07535581 -0.05224333 16 0 C17 1 17 1 17.09765625 4.59765625 C17.0909822 6.08596867 17.07902183 7.57426432 17.0625 9.0625 C17.05798828 9.82111328 17.05347656 10.57972656 17.04882812 11.36132812 C17.0370068 13.24091871 17.01907078 15.12046899 17 17 C15.02 17 13.04 17 11 17 C11 27.23 11 37.46 11 48 C12.32 48.66 13.64 49.32 15 50 C16.13610572 50.83728798 17.24539297 51.71193685 18.328125 52.6171875 C18.9557373 53.13611572 19.58334961 53.65504395 20.22998047 54.18969727 C20.89658691 54.74584717 21.56319336 55.30199707 22.25 55.875 C28.65121195 61.1677094 35.18458222 66.21551872 41.94628906 71.04052734 C42.58018555 71.50281738 43.21408203 71.96510742 43.8671875 72.44140625 C44.42519043 72.84045166 44.98319336 73.23949707 45.55810547 73.65063477 C48.07875182 76.00952613 48.92852697 78.26326092 49.26069641 81.6872406 C49.2653038 82.71140579 49.26991119 83.73557098 49.2746582 84.79077148 C49.28419022 85.95555527 49.29372223 87.12033905 49.30354309 88.32041931 C49.30217598 90.20175316 49.30217598 90.20175316 49.30078125 92.12109375 C49.30506638 93.41314224 49.3093515 94.70519073 49.31376648 96.03639221 C49.32121925 98.7691763 49.32094434 101.50183117 49.31567383 104.23461914 C49.30988053 107.72950454 49.32681063 111.22385973 49.3500185 114.71865749 C49.36832879 118.06115822 49.36456994 121.40354317 49.36328125 124.74609375 C49.372491 125.99829208 49.38170074 127.25049042 49.39118958 128.54063416 C49.38496078 129.7085701 49.37873199 130.87650604 49.37231445 132.07983398 C49.37294388 133.10479477 49.3735733 134.12975555 49.3742218 135.18577576 C48.9390173 138.45860233 47.91838475 140.33698595 46 143 C42.2464504 145.64080629 38.73901378 145.04857077 34.33984375 144.77734375 C31.42981804 145.05425772 30.90290852 145.87140961 29 148 C21.75748618 151.95575052 12.31674577 156.29052952 4 155 C-3.96962937 151.76574973 -10.8417713 146.36547093 -17.79907227 141.40551758 C-26.22065624 135.40192833 -33.11745682 130.92142498 -43.34765625 128.72265625 C-46.59190768 127.83872913 -48.67119905 126.41197241 -51 124 C-52.05124601 133.74279789 -52 143.11639397 -52 153 C-63.88 153 -75.76 153 -88 153 C-88 147.06 -88 141.12 -88 135 C-88.33 132.36 -88.66 129.72 -89 127 C-89.48726563 127.3403125 -89.97453125 127.680625 -90.4765625 128.03125 C-102.49105034 136.24479078 -114.83757157 142.44334343 -128.20507812 148.14331055 C-134.76488524 150.94122227 -134.76488524 150.94122227 -141.0546875 154.28515625 C-144.92603169 156.53916168 -146.56084255 156.8005038 -151 156 C-154.11893696 154.4189919 -157.07143066 152.66694614 -160.04296875 150.82421875 C-163.59907974 148.6304224 -167.23724547 146.8090166 -171 145 C-170.01 144.67 -169.02 144.34 -168 144 C-166.6078125 144.7425 -166.6078125 144.7425 -165.1875 145.5 C-161.51540871 147.22804296 -159.85179653 147.00880385 -156 146 C-156 145.34 -156 144.68 -156 144 C-155.113125 143.505 -154.22625 143.01 -153.3125 142.5 C-146.31404948 138.50088542 -139.3673732 134.31180806 -132.72265625 129.75 C-130 128 -130 128 -128 128 C-128 127.34 -128 126.68 -128 126 C-124.53846154 123 -124.53846154 123 -122 123 C-122 122.34 -122 121.68 -122 121 C-116.58823529 117 -116.58823529 117 -114 117 C-114 116.34 -114 115.68 -114 115 C-112.30411736 113.45908595 -110.54178328 111.99076703 -108.75 110.5625 C-107.77546875 109.78003906 -106.8009375 108.99757813 -105.796875 108.19140625 C-103.55089665 106.4316383 -101.29290157 104.69783902 -99 103 C-99.48870794 107.19713879 -101.72395694 108.92082906 -104.8125 111.625 C-106.12154297 112.78902344 -106.12154297 112.78902344 -107.45703125 113.9765625 C-110 116 -110 116 -112.26171875 117.0859375 C-114.36297409 117.93476803 -114.36297409 117.93476803 -115 121 C-117.5625 122.1875 -117.5625 122.1875 -120 123 C-120 123.66 -120 124.32 -120 125 C-121.36609217 125.96505726 -122.74183384 126.918428 -124.15478516 127.81347656 C-126.12660912 129.08141311 -128.01984567 130.42902176 -129.91796875 131.8046875 C-148.4435484 145.14784947 -148.4435484 145.14784947 -157 148 C-157 148.66 -157 149.32 -157 150 C-154.42447171 151.03536237 -152.65436739 151.25380433 -150.04492188 150.24169922 C-147.73512249 149.04020566 -145.49101169 147.76293135 -143.25 146.4375 C-142.44014648 145.97077881 -141.63029297 145.50405762 -140.79589844 145.02319336 C-130.14741733 138.83878405 -120.57187425 131.71886146 -111 124 C-110.24847656 123.39542969 -109.49695313 122.79085937 -108.72265625 122.16796875 C-104.97905348 119.06331788 -102.04055665 115.76068849 -99 112 C-97.33333333 110.33333333 -95.66666667 108.66666667 -94 107 C-88.67203985 101.24400076 -83.7310659 95.25387774 -79 89 C-78.67 89.99 -78.34 90.98 -78 92 C-77.03810003 90.27281484 -76.08063492 88.54315942 -75.125 86.8125 C-74.59132813 85.84957031 -74.05765625 84.88664062 -73.5078125 83.89453125 C-72.1576322 81.30260482 -71.02901671 78.73238902 -70 76 C-67.46932686 78.53067314 -66.78917715 80.90713367 -65.5 84.25 C-62.94384685 90.58816575 -59.57013302 95.87383266 -55.42773438 101.29199219 C-53.04802418 104.4174436 -51.25182417 107.26539121 -50 111 C-49.34 111 -48.68 111 -48 111 C-43.23255814 115.30232558 -43.23255814 115.30232558 -42 119 C-41.34 119 -40.68 119 -40 119 C-38.82794162 120.13758608 -37.66238603 121.28250924 -36.52734375 122.45703125 C-27.66629559 131.40872952 -17.22088748 138.82984068 -6.53515625 145.42578125 C-4.91701353 146.43057558 -3.31781419 147.46700762 -1.74609375 148.54296875 C2.32255921 151.29915302 4.89749113 152.63781361 10 152 C8.68 151.67 7.36 151.34 6 151 C6 150.34 6 149.68 6 149 C4.68322266 148.61134766 4.68322266 148.61134766 3.33984375 148.21484375 C-2.36618313 146.13931818 -7.069628 142.48176447 -12 139 C-12.66467285 138.53223145 -13.3293457 138.06446289 -14.01416016 137.58251953 C-16.10027351 136.10685758 -18.17679954 134.61873908 -20.25 133.125 C-21.25244751 132.41065796 -21.25244751 132.41065796 -22.27514648 131.68188477 C-23.887931 130.50474836 -25.4495729 129.25813347 -27 128 C-27 127.34 -27 126.68 -27 126 C-23.79534808 127.47062794 -21.17376838 129.30066255 -18.375 131.4375 C-13.30433983 135.17377591 -8.06296707 138.53161901 -2.6875 141.8125 C-1.9229248 142.28034912 -1.15834961 142.74819824 -0.37060547 143.23022461 C3.67336695 145.67738038 7.73147848 147.95735298 12 150 C12 150.66 12 151.32 12 152 C14.64 150.68 17.28 149.36 20 148 C17.19311565 145.19311565 14.9299215 143.9712578 11.421875 142.28125 C6.35997255 139.60334032 1.71739513 136.2336526 -3 133 C-4.21947768 132.18273601 -5.43954286 131.36634805 -6.66015625 130.55078125 C-7.85710205 129.74267787 -9.0537244 128.93409517 -10.25 128.125 C-10.82322998 127.74384033 -11.39645996 127.36268066 -11.98706055 126.9699707 C-13.36108082 126.03111658 -14.68617523 125.0213928 -16 124 C-16 123.34 -16 122.68 -16 122 C-16.55171875 121.76539063 -17.1034375 121.53078125 -17.671875 121.2890625 C-20.59325764 119.67151842 -22.79574497 117.63549805 -25.25 115.375 C-26.14203125 114.55773437 -27.0340625 113.74046875 -27.953125 112.8984375 C-28.62859375 112.27195312 -29.3040625 111.64546875 -30 111 C-29.01 110.67 -28.02 110.34 -27 110 C-24.98569251 111.45477763 -23.21064625 112.90613867 -21.375 114.5625 C-16.97314994 118.40705161 -12.55072858 121.7917542 -7.546875 124.84375 C-6.78117187 125.41609375 -6.78117187 125.41609375 -6 126 C-6 126.66 -6 127.32 -6 128 C-5.28972656 128.25394531 -4.57945312 128.50789062 -3.84765625 128.76953125 C-0.74452658 130.11038975 1.78442486 131.76363572 4.5625 133.6875 C15.06785301 141.3671577 15.06785301 141.3671577 27 146 C27.33 145.01 27.66 144.02 28 143 C28.80824219 143.03480469 29.61648438 143.06960938 30.44921875 143.10546875 C32.05216797 143.14607422 32.05216797 143.14607422 33.6875 143.1875 C34.74324219 143.22230469 35.79898438 143.25710938 36.88671875 143.29296875 C40.44101094 142.9584996 42.19709749 142.18439863 45 140 C47.01504352 136.82245772 47.25664953 134.30176984 47.2746582 130.57641602 C47.28419022 129.49171524 47.29372223 128.40701447 47.30354309 127.28944397 C47.30263168 126.12271652 47.30172028 124.95598907 47.30078125 123.75390625 C47.30720894 121.94900978 47.30720894 121.94900978 47.31376648 120.10765076 C47.31950898 117.56322865 47.32001064 115.01879013 47.31567383 112.47436523 C47.31251495 108.58093261 47.33597157 104.68826049 47.36132812 100.79492188 C47.36360121 98.32291763 47.36430457 95.85091133 47.36328125 93.37890625 C47.37709587 91.63185143 47.37709587 91.63185143 47.39118958 89.84950256 C47.38496078 88.76164963 47.37873199 87.67379669 47.37231445 86.55297852 C47.37294388 85.5990773 47.3735733 84.64517609 47.3742218 83.66236877 C46.74283329 79.1704096 44.72911051 76.631106 41.35546875 73.7109375 C40.31003906 72.94007813 39.26460937 72.16921875 38.1875 71.375 C37.02015351 70.50351404 35.85351169 69.63108355 34.6875 68.7578125 C34.08292969 68.30825195 33.47835937 67.85869141 32.85546875 67.39550781 C29.75827406 65.06609139 26.72522858 62.65612986 23.6875 60.25 C18.84848589 56.41766541 13.94109462 52.70582096 9 49 C9 59.23 9 69.46 9 80 C0.99625117 75.99812559 0.99625117 75.99812559 -1 73 C-1.84999214 68.60780937 -1.69703323 64.28298713 -1.5859375 59.82421875 C-1.57744781 58.54392288 -1.56895813 57.26362701 -1.56021118 55.9445343 C-1.53737908 52.55232572 -1.47851072 49.16167612 -1.4119873 45.77008057 C-1.35043955 42.30461719 -1.32316993 38.8389001 -1.29296875 35.37304688 C-1.22683807 28.58126999 -1.12328252 21.79097022 -1 15 C4.61 15.33 10.22 15.66 16 16 C15.67 11.38 15.34 6.76 15 2 C10.05 1.67 5.1 1.34 0 1 C0 0.67 0 0.34 0 0 Z M-72 135 C-72 135.33 -72 135.66 -72 136 C-70.35 136 -68.7 136 -67 136 C-67 135.67 -67 135.34 -67 135 C-68.65 135 -70.3 135 -72 135 Z M-98 101 C-96 102 -96 102 -96 102 Z " fill="#F4F2FE" transform="translate(320,123)"/>
<path d="M0 0 C2.8100346 1.79363911 4.50940468 3.01880935 6 6 C6.10647885 8.43015679 6.15414462 10.83286678 6.15771484 13.26367188 C6.16279556 14.01177628 6.16787628 14.75988068 6.17311096 15.53065491 C6.18382149 17.15722986 6.19243899 18.78381961 6.19923019 20.41041565 C6.21099805 22.98198211 6.23044376 25.55337902 6.25234985 28.12487793 C6.31404824 35.43687336 6.36808833 42.7488508 6.40136719 50.06103516 C6.42226044 54.53088822 6.45751738 59.00043147 6.50212479 63.47010803 C6.51632517 65.17656315 6.52501629 66.88307308 6.52817917 68.58958435 C6.53306368 70.97216443 6.55615517 73.3539153 6.58349609 75.73632812 C6.58048996 76.44600235 6.57748383 77.15567657 6.5743866 77.88685608 C6.57665912 80.054058 6.57665912 80.054058 7 83 C8.485 83.99 8.485 83.99 10 85 C10 85.66 10 86.32 10 87 C10.59425781 87.25652344 11.18851562 87.51304687 11.80078125 87.77734375 C14.21062253 89.11709565 15.44871988 90.4373243 17.1875 92.5625 C21.92404646 98.1583767 26.87450313 103.91633542 33 108 C33 108.66 33 109.32 33 110 C33.54527344 110.2371875 34.09054687 110.474375 34.65234375 110.71875 C37.60315433 112.32917574 39.98704217 114.34152106 42.5625 116.5 C45.32911711 118.81239639 47.99876548 120.99917699 51 123 C51 123.66 51 124.32 51 125 C51.556875 125.103125 52.11375 125.20625 52.6875 125.3125 C57.23809046 126.66537824 60.13908499 129.12115852 63.37890625 132.4921875 C70.69279499 139.29498522 79.68412912 144.52509745 88 150 C92.59240984 153.03405997 97.07640791 156.1879855 101.53515625 159.4140625 C103.96194852 160.97551679 106.2912885 162.02467073 109 163 C108 164.5625 108 164.5625 106 166 C99.42018468 165.79482296 95.46962431 163.9457033 90.125 160.25 C89.39595459 159.76120361 88.66690918 159.27240723 87.91577148 158.76879883 C85.59539491 157.19999933 83.29526682 155.60528161 81 154 C80.25862793 153.4829248 79.51725586 152.96584961 78.75341797 152.43310547 C53.3802903 134.62906173 28.71035478 115.05867194 6.18359375 93.7421875 C1.73957586 90.19651312 -2.38288154 89.40872437 -8 90 C-12.1667644 92.48770435 -15.65878365 95.37232171 -19.1875 98.6875 C-23.68709434 102.84143817 -28.30809974 106.75900545 -33.07421875 110.6015625 C-35.72236272 112.77240416 -38.3116016 114.99293624 -40.89233398 117.24243164 C-57.3864049 131.59369103 -75.21267953 144.53368244 -93.375 156.6875 C-93.98746582 157.09766357 -94.59993164 157.50782715 -95.23095703 157.93041992 C-103.32884945 163.2844456 -103.32884945 163.2844456 -108.75 163.125 C-109.54921875 163.10695313 -110.3484375 163.08890625 -111.171875 163.0703125 C-111.77515625 163.04710937 -112.3784375 163.02390625 -113 163 C-109.86274714 159.68347555 -106.91318269 157.30777441 -103 155 C-102.29875 154.278125 -101.5975 153.55625 -100.875 152.8125 C-99 151 -99 151 -96 151 C-96 150.34 -96 149.68 -96 149 C-94.0234375 147.6328125 -94.0234375 147.6328125 -91.375 146.125 C-88.3454863 144.37423288 -85.3714389 142.62500719 -82.5 140.625 C-80 139 -80 139 -78 139 C-78 138.34 -78 137.68 -78 137 C-76.68 136.67 -75.36 136.34 -74 136 C-74 135.34 -74 134.68 -74 134 C-72.33333333 133 -70.66666667 132 -69 131 C-67.8553125 129.8553125 -67.8553125 129.8553125 -66.6875 128.6875 C-62.325783 124.325783 -57.29279578 120.90279275 -52.25 117.375 C-49.55386318 115.46574474 -47.30144945 113.37816444 -45 111 C-40.33333333 107 -40.33333333 107 -38 107 C-38 106.34 -38 105.68 -38 105 C-36.50390625 103.5625 -36.50390625 103.5625 -34.5625 102 C-31.84811762 99.85474956 -31.84811762 99.85474956 -30 97 C-29.01 96.67 -28.02 96.34 -27 96 C-25.41441619 94.36497064 -25.41441619 94.36497064 -23.9375 92.4375 C-22.40234375 90.49609375 -22.40234375 90.49609375 -21 89 C-20.34 89 -19.68 89 -19 89 C-18.71125 88.38125 -18.4225 87.7625 -18.125 87.125 C-17 85 -17 85 -15 83 C-14.80371664 80.55767349 -14.73033566 78.22724299 -14.74462891 75.78393555 C-14.74100845 75.04065002 -14.737388 74.2973645 -14.73365784 73.53155518 C-14.72675592 71.91480933 -14.72425989 70.29804015 -14.72560501 68.68128014 C-14.72656826 66.12140973 -14.71365156 63.56196157 -14.69662476 61.00215149 C-14.65029541 53.72322899 -14.62575063 46.44434798 -14.61914062 39.1652832 C-14.61412419 34.71483441 -14.58986467 30.264824 -14.55381393 25.8145237 C-14.5440158 24.11891119 -14.54168408 22.42323835 -14.54698563 20.72760582 C-14.55406096 18.3526776 -14.53676502 15.97905311 -14.51416016 13.60424805 C-14.52641884 12.55591545 -14.52641884 12.55591545 -14.53892517 11.48640442 C-14.45865063 6.73894799 -13.34838359 4.33937534 -10 1 C-6.79826746 -0.60086627 -3.47422941 -0.49917089 0 0 Z " fill="#3332A8" transform="translate(254,101)"/>
<path d="M0 0 C9.57 0 19.14 0 29 0 C29 18.81 29 37.62 29 57 C23.39901125 53.2660075 18.04076387 49.61653418 12.8125 45.4375 C12.23564453 44.98181641 11.65878906 44.52613281 11.06445312 44.05664062 C9.36894251 42.71284811 7.67883565 41.36460185 6 40 C4.95336182 39.28763184 3.90672363 38.57526367 2.82836914 37.84130859 C0.08757983 35.53795438 0.00762212 35.04230415 -0.68115234 31.21948242 C-0.68021082 29.76446531 -0.6467926 28.309213 -0.5859375 26.85546875 C-0.57744781 26.08568192 -0.56895813 25.31589508 -0.56021118 24.52278137 C-0.52675703 22.0762329 -0.45150592 19.63304309 -0.375 17.1875 C-0.34488948 15.52413632 -0.31751555 13.86072071 -0.29296875 12.19726562 C-0.23209982 8.12919208 -0.11472054 4.0683304 0 0 Z " fill="#FDFCF6" transform="translate(290,139)"/>
<path d="M0 0 C4.82380802 -0.0246519 9.64757967 -0.04283693 14.47143555 -0.05493164 C16.11369464 -0.05997174 17.75594923 -0.06680378 19.39819336 -0.07543945 C21.75375479 -0.08751926 24.10925709 -0.09323139 26.46484375 -0.09765625 C27.20339096 -0.10281754 27.94193817 -0.10797882 28.7028656 -0.11329651 C30.46898088 -0.1134925 32.23497146 -0.06194719 34 0 C35 1 35 1 35.11352539 4.14282227 C35.11327441 5.53402696 35.10771709 6.92523791 35.09765625 8.31640625 C35.09664917 8.96411987 35.09564209 9.6118335 35.09460449 10.2791748 C35.08935843 12.70696779 35.07539725 15.13473561 35.0625 17.5625 C35.041875 22.986875 35.02125 28.41125 35 34 C23.12 34 11.24 34 -1 34 C-1 28.39 -1 22.78 -1 17 C-0.34 17 0.32 17 1 17 C0.67 16.34 0.34 15.68 0 15 C-0.0716735 12.44842345 -0.09308442 9.92527029 -0.0625 7.375 C-0.05798828 6.66859375 -0.05347656 5.9621875 -0.04882812 5.234375 C-0.03703875 3.48954725 -0.01910324 1.744763 0 0 Z M15 16 C15 16.33 15 16.66 15 17 C16.65 17 18.3 17 20 17 C20 16.67 20 16.34 20 16 C18.35 16 16.7 16 15 16 Z " fill="#FBF0E3" transform="translate(233,242)"/>
<path d="M0 0 C1.32 0.66 2.64 1.32 4 2 C4 2.66 4 3.32 4 4 C4.59425781 4.25652344 5.18851562 4.51304687 5.80078125 4.77734375 C8.21062253 6.11709565 9.44871988 7.4373243 11.1875 9.5625 C15.92404646 15.1583767 20.87450313 20.91633542 27 25 C27 25.66 27 26.32 27 27 C27.54527344 27.2371875 28.09054687 27.474375 28.65234375 27.71875 C31.60315433 29.32917574 33.98704217 31.34152106 36.5625 33.5 C39.32911711 35.81239639 41.99876548 37.99917699 45 40 C45 40.66 45 41.32 45 42 C45.8353125 42.1546875 45.8353125 42.1546875 46.6875 42.3125 C51.23809046 43.66537824 54.13908499 46.12115852 57.37890625 49.4921875 C64.69279499 56.29498522 73.68412912 61.52509745 82 67 C86.59240984 70.03405997 91.07640791 73.1879855 95.53515625 76.4140625 C97.96194852 77.97551679 100.2912885 79.02467073 103 80 C102 81.5625 102 81.5625 100 83 C93.42018468 82.79482296 89.46962431 80.9457033 84.125 77.25 C83.03143188 76.51680542 83.03143188 76.51680542 81.91577148 75.76879883 C79.59539491 74.19999933 77.29526682 72.60528161 75 71 C74.25862793 70.4829248 73.51725586 69.96584961 72.75341797 69.43310547 C47.3802903 51.62906173 22.71035478 32.05867194 0.18359375 10.7421875 C-2.12219062 8.90250981 -4.22068517 7.94760471 -7 7 C-5.68 6.34 -4.36 5.68 -3 5 C-3 5.66 -3 6.32 -3 7 C-2.01 7 -1.02 7 0 7 C0 4.69 0 2.38 0 0 Z " fill="#504EBB" transform="translate(260,184)"/>
<path d="M0 0 C0.33 0 0.66 0 1 0 C1 2.31 1 4.62 1 7 C3.97 6.505 3.97 6.505 7 6 C5.93652344 6.82951172 5.93652344 6.82951172 4.8515625 7.67578125 C1.90982344 10.07350007 -0.85166697 12.59731161 -3.625 15.1875 C-8.31166212 19.52681475 -13.13072441 23.63246121 -18.109375 27.63671875 C-20.74703682 29.79318551 -23.32256905 32.00188016 -25.89013672 34.24023438 C-42.38345175 48.5935499 -60.21210241 61.53329624 -78.375 73.6875 C-78.98746582 74.09766357 -79.59993164 74.50782715 -80.23095703 74.93041992 C-88.32884945 80.2844456 -88.32884945 80.2844456 -93.75 80.125 C-94.54921875 80.10695313 -95.3484375 80.08890625 -96.171875 80.0703125 C-96.77515625 80.04710937 -97.3784375 80.02390625 -98 80 C-94.86274714 76.68347555 -91.91318269 74.30777441 -88 72 C-86.948125 70.9171875 -86.948125 70.9171875 -85.875 69.8125 C-84 68 -84 68 -81 68 C-81 67.34 -81 66.68 -81 66 C-79.0234375 64.6328125 -79.0234375 64.6328125 -76.375 63.125 C-73.3454863 61.37423288 -70.3714389 59.62500719 -67.5 57.625 C-65 56 -65 56 -63 56 C-63 55.34 -63 54.68 -63 54 C-61.02 53.505 -61.02 53.505 -59 53 C-59 52.34 -59 51.68 -59 51 C-57.33333333 50 -55.66666667 49 -54 48 C-53.236875 47.236875 -52.47375 46.47375 -51.6875 45.6875 C-47.325783 41.325783 -42.29279578 37.90279275 -37.25 34.375 C-34.55386318 32.46574474 -32.30144945 30.37816444 -30 28 C-25.33333333 24 -25.33333333 24 -23 24 C-23 23.34 -23 22.68 -23 22 C-21.50390625 20.5625 -21.50390625 20.5625 -19.5625 19 C-16.84811762 16.85474956 -16.84811762 16.85474956 -15 14 C-14.01 13.67 -13.02 13.34 -12 13 C-10.41441619 11.36497064 -10.41441619 11.36497064 -8.9375 9.4375 C-7.40234375 7.49609375 -7.40234375 7.49609375 -6 6 C-5.34 6 -4.68 6 -4 6 C-3.71125 5.38125 -3.4225 4.7625 -3.125 4.125 C-2 2 -2 2 0 0 Z " fill="#4141B2" transform="translate(239,184)"/>
<path d="M0 0 C1.30195313 -0.00708984 2.60390625 -0.01417969 3.9453125 -0.02148438 C6.875 0.09375 6.875 0.09375 7.875 1.09375 C7.875 5.71375 7.875 10.33375 7.875 15.09375 C-7.305 15.09375 -22.485 15.09375 -38.125 15.09375 C-38.125 26.64375 -38.125 38.19375 -38.125 50.09375 C-38.455 50.09375 -38.785 50.09375 -39.125 50.09375 C-39.125 38.54375 -39.125 26.99375 -39.125 15.09375 C-41.105 15.09375 -43.085 15.09375 -45.125 15.09375 C-45.91766591 9.98545856 -46.03606826 6.21659174 -45.125 1.09375 C-40.29110065 0.94829976 -35.45712005 0.80605786 -30.62304688 0.66650391 C-28.98630364 0.61883488 -27.34958357 0.57036193 -25.71289062 0.52099609 C-17.1428179 0.26305164 -8.57419238 0.04327453 0 0 Z " fill="#DFDBFB" transform="translate(328.125,123.90625)"/>
<path d="M0 0 C3.3 0.33 6.6 0.66 10 1 C10.90815926 22.4024925 10.99232191 43.5986992 10 65 C6.13000826 63.3626958 2.3646138 61.55136129 0 58 C-0.84999214 53.60780937 -0.69703323 49.28298713 -0.5859375 44.82421875 C-0.57744781 43.54392288 -0.56895813 42.26362701 -0.56021118 40.9445343 C-0.53737908 37.55232572 -0.47851072 34.16167612 -0.4119873 30.77008057 C-0.35043955 27.30461719 -0.32316993 23.8389001 -0.29296875 20.37304688 C-0.22683891 13.58135722 -0.12645064 6.7908199 0 0 Z " fill="#F6CA76" transform="translate(319,138)"/>
<path d="M0 0 C4.12769559 2.77987662 5.25790504 5.58121755 7.0078125 10.11328125 C10.29839104 16.37056248 17.1476381 21.11118028 22.43359375 25.65234375 C23.31248398 26.40849619 24.18017851 27.18017851 25 28 C25.99 25.525 25.99 25.525 27 23 C38.55 23 50.1 23 62 23 C62.33 23.66 62.66 24.32 63 25 C51.12 25 39.24 25 27 25 C27 26.98 27 28.96 27 31 C23.14131885 29.24064538 20.41346336 26.87678427 17.2890625 24.05078125 C15.68933364 22.61757707 14.05577166 21.22164961 12.3984375 19.85546875 C7.34728076 15.60147096 3.94670711 12.17163837 1.81640625 5.84765625 C1.03724973 3.63708974 1.03724973 3.63708974 -2 2 C-7.88510167 1.3104459 -7.88510167 1.3104459 -12.875 4.125 C-15.13352296 6.82342174 -15.13352296 6.82342174 -15.796875 9.85546875 C-17.29444145 13.76956289 -19.22018883 15.45084622 -22.375 18.1875 C-23.46521969 19.14670829 -24.55505262 20.10635633 -25.64453125 21.06640625 C-26.48105225 21.7936792 -26.48105225 21.7936792 -27.33447266 22.53564453 C-29.45129 24.39678063 -31.51108963 26.31453194 -33.57202148 28.23706055 C-38.56103967 32.8828539 -43.70931976 37.27893279 -49.01953125 41.5546875 C-52.57291328 44.47004418 -56.03707239 47.47829818 -59.5 50.5 C-65.57190686 55.78921789 -71.73787134 60.93664564 -78 66 C-79.21283208 66.99406922 -80.42502948 67.98891311 -81.63671875 68.984375 C-88.62691627 74.71499921 -95.6815774 80.33853152 -102.875 85.8125 C-103.5868042 86.35479248 -104.2986084 86.89708496 -105.03198242 87.45581055 C-110.46639022 91.59464841 -110.46639022 91.59464841 -112.68408203 93.27929688 C-114.10804037 94.36568083 -115.52317697 95.46360153 -116.9375 96.5625 C-117.68902344 97.14128906 -118.44054687 97.72007812 -119.21484375 98.31640625 C-121.77474774 100.73067019 -122.86757477 102.86858789 -123.2784729 106.37921143 C-123.29179657 107.25857361 -123.30512024 108.13793579 -123.31884766 109.04394531 C-123.33871735 110.04468079 -123.35858704 111.04541626 -123.37905884 112.07647705 C-123.39061005 113.14952087 -123.40216125 114.2225647 -123.4140625 115.328125 C-123.43342865 116.43226746 -123.4527948 117.53640991 -123.4727478 118.67401123 C-123.53250892 122.19926233 -123.57891564 125.72454615 -123.625 129.25 C-123.66318292 131.64063921 -123.70223483 134.03126471 -123.7421875 136.421875 C-123.83820767 142.28112826 -123.92326548 148.14046415 -124 154 C-124.33 154 -124.66 154 -125 154 C-125.14530092 149.5567287 -125.28755678 145.1133723 -125.42724609 140.66992188 C-125.47495489 139.16501369 -125.52343064 137.66012958 -125.57275391 136.15527344 C-126.66092549 102.88831367 -126.66092549 102.88831367 -121.8515625 97.66796875 C-118.70746434 94.72629883 -115.44255229 92.03760496 -112.0625 89.375 C-111.40862305 88.85574951 -110.75474609 88.33649902 -110.08105469 87.80151367 C-105.06478345 83.82336206 -100.02309075 79.87749191 -94.98388672 75.9284668 C-89.5921585 71.69558731 -84.28821865 67.36141745 -79 63 C-77.67734544 61.91634667 -76.35440799 60.83303858 -75.03125 59.75 C-63.21925035 50.07023703 -51.53423628 40.27100219 -40.22265625 30.0078125 C-38.18794248 28.16977581 -36.13245111 26.36063935 -34.0625 24.5625 C-33.42957031 24.00433594 -32.79664063 23.44617188 -32.14453125 22.87109375 C-30.51311987 21.44769475 -28.86076785 20.04825654 -27.19921875 18.66015625 C-21.9329607 14.13326688 -17.97970497 10.50344992 -15.78125 3.8125 C-13.25771713 -2.04209627 -5.20117961 -0.67566068 0 0 Z " fill="#ECEDFE" transform="translate(256,100)"/>
<path d="M0 0 C3.3 0.33 6.6 0.66 10 1 C10.90815926 22.4024925 10.99232191 43.5986992 10 65 C8.68 64.34 7.36 63.68 6 63 C6.99 62.505 6.99 62.505 8 62 C7.94670532 60.75802856 7.94670532 60.75802856 7.89233398 59.4909668 C7.11158234 40.58217869 6.9667185 21.91303466 8 3 C6.02 3 4.04 3 2 3 C2 21.15 2 39.3 2 58 C1.34 58 0.68 58 0 58 C0 38.86 0 19.72 0 0 Z " fill="#EDCB93" transform="translate(319,138)"/>
<path d="M0 0 C4.95 0 9.9 0 15 0 C15 4.95 15 9.9 15 15 C10.05 15 5.1 15 0 15 C0 10.05 0 5.1 0 0 Z " fill="#F6CA75" transform="translate(233,260)"/>
<path d="M0 0 C4.95 0 9.9 0 15 0 C15 4.95 15 9.9 15 15 C10.05 15 5.1 15 0 15 C0 10.05 0 5.1 0 0 Z " fill="#F2CC82" transform="translate(233,242)"/>
<path d="M0 0 C5.28 0 10.56 0 16 0 C16 4.62 16 9.24 16 14 C10.72 14 5.44 14 0 14 C0 9.38 0 4.76 0 0 Z " fill="#6C68DD" transform="translate(320,125)"/>
<path d="M0 0 C0.495 0.99 0.495 0.99 1 2 C0.37351562 2.83144531 -0.25296875 3.66289062 -0.8984375 4.51953125 C-1.72400098 5.61715542 -2.54951946 6.71481345 -3.375 7.8125 C-3.7875 8.35970703 -4.2 8.90691406 -4.625 9.47070312 C-6.48407032 11.94446605 -8.28289972 14.42434959 -10 17 C-10.66 17 -11.32 17 -12 17 C-12.495 18.485 -12.495 18.485 -13 20 C-13.66 20 -14.32 20 -15 20 C-15 20.99 -15 21.98 -15 23 C-15.78375 23.2475 -16.5675 23.495 -17.375 23.75 C-20.47567332 25.2265111 -20.59204172 26.00808866 -22 29 C-23.63604196 30.37073786 -25.30678061 31.70055256 -27 33 C-27.76183594 33.77472656 -28.52367187 34.54945313 -29.30859375 35.34765625 C-35.09575405 41.05082293 -46.28169018 52 -55 52 C-55 52.66 -55 53.32 -55 54 C-56.40751221 54.86916887 -57.8264521 55.71985149 -59.25 56.5625 C-60.03890625 57.03816406 -60.8278125 57.51382813 -61.640625 58.00390625 C-64.30844625 59.13022151 -65.34501768 59.0169313 -68 58 C-56.30481844 50.08798883 -56.30481844 50.08798883 -52.0625 47.75 C-49.08264725 46.047227 -46.66388393 44.15535983 -44 42 C-42.12934511 40.59834884 -40.25408925 39.20282345 -38.375 37.8125 C-28.78508238 30.63484279 -19.73344144 23.28625383 -11.75 14.3125 C-11.06421875 13.54550781 -10.3784375 12.77851563 -9.671875 11.98828125 C-7.95377855 10.10201336 -7.95377855 10.10201336 -7 8 C-6.34 8 -5.68 8 -5 8 C-4.731875 7.4225 -4.46375 6.845 -4.1875 6.25 C-2.98280141 3.9674132 -1.59201885 2.0262058 0 0 Z " fill="#E4E1F8" transform="translate(239,218)"/>
<path d="M0 0 C4.62 0 9.24 0 14 0 C14 4.95 14 9.9 14 15 C9.38 15 4.76 15 0 15 C0 10.05 0 5.1 0 0 Z " fill="#F3CB7D" transform="translate(252,260)"/>
<path d="M0 0 C4.62 0 9.24 0 14 0 C14 4.95 14 9.9 14 15 C9.38 15 4.76 15 0 15 C0 10.05 0 5.1 0 0 Z " fill="#F3CB7E" transform="translate(252,242)"/>
<path d="M0 0 C0.99 0.33 1.98 0.66 3 1 C3 1.66 3 2.32 3 3 C2.34 3 1.68 3 1 3 C0.34 4.98 -0.32 6.96 -1 9 C-1.66 9 -2.32 9 -3 9 C-3 9.66 -3 10.32 -3 11 C-5.31 11.33 -7.62 11.66 -10 12 C-10 13.32 -10 14.64 -10 16 C-10.804375 16.2475 -11.60875 16.495 -12.4375 16.75 C-15.171081 17.72238859 -15.171081 17.72238859 -15.8125 20.125 C-15.9053125 21.053125 -15.9053125 21.053125 -16 22 C-17.98 22.33 -19.96 22.66 -22 23 C-22 23.66 -22 24.32 -22 25 C-22.598125 25.103125 -23.19625 25.20625 -23.8125 25.3125 C-26.29861534 26.09385053 -27.22943442 27.14895416 -29 29 C-29.66 29 -30.32 29 -31 29 C-31.33 29.66 -31.66 30.32 -32 31 C-32.66 30.34 -33.32 29.68 -34 29 C-30.12110016 26.06815622 -26.24058174 23.15369141 -22.25 20.375 C-19.55386318 18.46574474 -17.30144945 16.37816444 -15 14 C-10.33333333 10 -10.33333333 10 -8 10 C-8 9.34 -8 8.68 -8 8 C-6.50390625 6.5625 -6.50390625 6.5625 -4.5625 5 C-1.84811762 2.85474956 -1.84811762 2.85474956 0 0 Z " fill="#3D3EBA" transform="translate(224,198)"/>
<path d="M0 0 C2.64590014 -0.02684679 5.29153096 -0.04676357 7.9375 -0.0625 C8.69224609 -0.07087891 9.44699219 -0.07925781 10.22460938 -0.08789062 C12.14994313 -0.09652441 14.07535581 -0.05224333 16 0 C17 1 17 1 17.09765625 4.59765625 C17.0909822 6.08596867 17.07902183 7.57426432 17.0625 9.0625 C17.05798828 9.82111328 17.05347656 10.57972656 17.04882812 11.36132812 C17.0370068 13.24091871 17.01907078 15.12046899 17 17 C15.02 17 13.04 17 11 17 C11 27.23 11 37.46 11 48 C12.32 48.66 13.64 49.32 15 50 C13.515 50.495 13.515 50.495 12 51 C10.51831055 49.95581055 10.51831055 49.95581055 9 48 C8.73846714 45.48272281 8.6502078 43.21896034 8.70703125 40.70703125 C8.71127609 40.00100266 8.71552094 39.29497406 8.71989441 38.56755066 C8.73666966 36.31547697 8.77431757 34.06430258 8.8125 31.8125 C8.82754843 30.28451815 8.84123656 28.75652224 8.85351562 27.22851562 C8.88656911 23.48533128 8.93834168 19.74281804 9 16 C11.31 16 13.62 16 16 16 C15.67 11.38 15.34 6.76 15 2 C10.05 1.67 5.1 1.34 0 1 C0 0.67 0 0.34 0 0 Z " fill="#FAF1EA" transform="translate(320,123)"/>
<path d="M0 0 C4.43170173 1.51896368 8.03024076 3.92639809 11.8125 6.625 C12.40998047 7.04523438 13.00746094 7.46546875 13.62304688 7.8984375 C15.08520565 8.92779728 16.54304899 9.9632823 18 11 C17.67 11.66 17.34 12.32 17 13 C15.02 13 13.04 13 11 13 C11 12.34 11 11.68 11 11 C10.236875 11.0825 9.47375 11.165 8.6875 11.25 C6 11 6 11 4.1875 9.125 C3 7 3 7 3 5 C1.68 4.67 0.36 4.34 -1 4 C-0.67 2.68 -0.34 1.36 0 0 Z " fill="#4C4BC0" transform="translate(321,238)"/>
<path d="M0 0 C0.66 0.33 1.32 0.66 2 1 C1.67 11.56 1.34 22.12 1 33 C-1.97 32.67 -4.94 32.34 -8 32 C-8 31.34 -8 30.68 -8 30 C-8.66 29.67 -9.32 29.34 -10 29 C-10 28.34 -10 27.68 -10 27 C-10.99 27 -11.98 27 -13 27 C-13 25.35 -13 23.7 -13 22 C-10.0625 23.3125 -10.0625 23.3125 -7 25 C-6.67 25.99 -6.34 26.98 -6 28 C-4.08333333 29.16666667 -4.08333333 29.16666667 -2 30 C-1.34 30.33 -0.68 30.66 0 31 C0 20.77 0 10.54 0 0 Z " fill="#8777BD" transform="translate(329,172)"/>
<path d="M0 0 C3.42634728 1.29296124 5.41076615 2.06258251 7.375 5.1875 C7.58125 5.785625 7.7875 6.38375 8 7 C7.01 7.33 6.02 7.66 5 8 C4.67 7.01 4.34 6.02 4 5 C-1.94 5.33 -7.88 5.66 -14 6 C-7.5 -0.5 -7.5 -0.5 0 0 Z " fill="#F0EFFA" transform="translate(253,190)"/>
<path d="M0 0 C4.95 0 9.9 0 15 0 C15 4.95 15 9.9 15 15 C10.05 15 5.1 15 0 15 C0 10.05 0 5.1 0 0 Z M2 1 C1.979375 2.794375 1.95875 4.58875 1.9375 6.4375 C1.92589844 7.44683594 1.91429687 8.45617187 1.90234375 9.49609375 C1.71387324 11.94021067 1.71387324 11.94021067 3 13 C6.6691577 13.14310287 10.32715441 13.04221662 14 13 C14 9.04 14 5.08 14 1 C10.04 1 6.08 1 2 1 Z " fill="#ECD097" transform="translate(233,260)"/>
<path d="M0 0 C3.98255118 2.23517955 7.37069373 4.81301422 10.8125 7.8125 C11.78832031 8.64394531 12.76414062 9.47539062 13.76953125 10.33203125 C16 13 16 13 16.32421875 16.32421875 C16.21722656 17.20722656 16.11023438 18.09023437 16 19 C15.773125 18.443125 15.54625 17.88625 15.3125 17.3125 C12.67848264 12.67161227 8.77691474 9.32390447 4 7 C3.01 7.495 3.01 7.495 2 8 C1 5 1 5 2 2 C1.34 2 0.68 2 0 2 C0 1.34 0 0.68 0 0 Z " fill="#6D68DB" transform="translate(267,119)"/>
<path d="M0 0 C0.99 0.33 1.98 0.66 3 1 C-1.41009417 5.85110358 -6.58004353 9.348107 -12 13 C-12 12.01 -12 11.02 -12 10 C-11.01 9.34 -10.02 8.68 -9 8 C-7.98812105 6.34051852 -6.9873454 4.67419438 -6 3 C-3.50907189 1.75453595 -2.58919267 2.2232422 0 3 C0 2.01 0 1.02 0 0 Z " fill="#4845A9" transform="translate(178,241)"/>
<path d="M0 0 C3.23475448 1.61737724 4.70572021 2.47629223 7 5 C5.35 5 3.7 5 2 5 C1.67 13.58 1.34 22.16 1 31 C0.67 31 0.34 31 0 31 C0 20.77 0 10.54 0 0 Z " fill="#6D65CB" transform="translate(330,173)"/>
<path d="M0 0 C0.33 0.66 0.66 1.32 1 2 C3.01669827 3.13350534 3.01669827 3.13350534 5 4 C5 4.99 5 5.98 5 7 C1 7 1 7 -2 5 C-2.6875 2.875 -2.6875 2.875 -3 1 C-2.01 0.67 -1.02 0.34 0 0 Z " fill="#4B4ABD" transform="translate(286,209)"/>
<path d="M0 0 C0.99 0 1.98 0 3 0 C3 0.66 3 1.32 3 2 C4.32 2.66 5.64 3.32 7 4 C7 4.66 7 5.32 7 6 C7.66 6 8.32 6 9 6 C9 6.66 9 7.32 9 8 C11.475 8.99 11.475 8.99 14 10 C13.67 10.99 13.34 11.98 13 13 C12.67 12.34 12.34 11.68 12 11 C11.4225 10.731875 10.845 10.46375 10.25 10.1875 C5.87330471 7.87757748 2.81380771 3.99856884 0 0 Z " fill="#EEEBFF" transform="translate(276,234)"/>
<path d="M0 0 C0 3.87174879 -1.16354335 4.76047249 -3.6875 7.625 C-4.37199219 8.42164063 -5.05648437 9.21828125 -5.76171875 10.0390625 C-8.23852349 12.20896822 -9.7672277 12.67162733 -13 13 C-9.13242719 8.04467233 -4.81123996 4.03523352 0 0 Z " fill="#5452C3" transform="translate(221,128)"/>
<path d="M0 0 C0 0.99 0 1.98 0 3 C-2 4.6875 -2 4.6875 -4 6 C-2.84826645 3.53199953 -1.95216435 1.95216435 0 0 Z M-6 6 C-5.34 6.33 -4.68 6.66 -4 7 C-5.0975223 9.99324263 -5.67682892 10.84610901 -8.625 12.25 C-9.40875 12.4975 -10.1925 12.745 -11 13 C-9.70700306 10.11562221 -8.34058637 8.12780579 -6 6 Z " fill="#3D3EBD" transform="translate(239,184)"/>
<path d="M0 0 C3.43950364 0.61198376 5.51564485 1.92058847 8.25 4.0625 C8.95640625 4.61035156 9.6628125 5.15820312 10.390625 5.72265625 C11.18726563 6.35494141 11.18726563 6.35494141 12 7 C11.67 7.99 11.34 8.98 11 10 C9.16375669 8.52444734 7.3310715 7.04446569 5.5 5.5625 C4.4790625 4.73878906 3.458125 3.91507813 2.40625 3.06640625 C1.6121875 2.38449219 0.818125 1.70257813 0 1 C0 0.67 0 0.34 0 0 Z " fill="#E2E4FD" transform="translate(333,174)"/>
<path d="M0 0 C0.33 1.32 0.66 2.64 1 4 C-3.48074195 7.36055646 -6.60550707 7.27429625 -12 7 C-11.67 6.34 -11.34 5.68 -11 5 C-9.906875 4.87625 -8.81375 4.7525 -7.6875 4.625 C-3.64894224 3.94049868 -2.51290509 3.11600231 0 0 Z " fill="#E8E8FE" transform="translate(366,261)"/>
<path d="M0 0 C0.75 1.75 0.75 1.75 1 4 C-0.9375 6.25 -0.9375 6.25 -3 8 C-3.99 7.34 -4.98 6.68 -6 6 C-4.68 6 -3.36 6 -2 6 C-2 5.01 -2 4.02 -2 3 C-2.66 3 -3.32 3 -4 3 C-4 2.34 -4 1.68 -4 1 C-2.68 0.67 -1.36 0.34 0 0 Z " fill="#6B66D8" transform="translate(366,257)"/>
<path d="M0 0 C1.31322788 0.97819024 2.62556152 1.9575811 3.9375 2.9375 C4.66839844 3.48277344 5.39929688 4.02804688 6.15234375 4.58984375 C8 6 8 6 9 7 C9.04080783 8.99958364 9.04254356 11.00045254 9 13 C8.773125 12.443125 8.54625 11.88625 8.3125 11.3125 C7.02250701 8.80089951 7.02250701 8.80089951 4.5 6.5 C2.27305334 4.27305334 1.27456646 2.78516374 0 0 Z " fill="#736ECE" transform="translate(274,125)"/>
<path d="M0 0 C0.33 1.32 0.66 2.64 1 4 C-4.2734375 7.22265625 -4.2734375 7.22265625 -6 8 C-6.66 7.67 -7.32 7.34 -8 7 C-5.36 4.69 -2.72 2.38 0 0 Z " fill="#5956C0" transform="translate(239,112)"/>
<path d="M0 0 C1.32 0.66 2.64 1.32 4 2 C0.535 4.97 0.535 4.97 -3 8 C-3 6.68 -3 5.36 -3 4 C-2.34 4 -1.68 4 -1 4 C-0.67 2.68 -0.34 1.36 0 0 Z " fill="#4746A5" transform="translate(224,203)"/>
<path d="M0 0 C2.88437779 1.29299694 4.87219421 2.65941363 7 5 C5.02 5.33 3.04 5.66 1 6 C0.67 4.02 0.34 2.04 0 0 Z " fill="#706ED6" transform="translate(289,174)"/>
<path d="M0 0 C2 2 2 2 2 6 C-0.88437779 4.70700306 -2.87219421 3.34058637 -5 1 C-2.625 0.375 -2.625 0.375 0 0 Z " fill="#EEECFC" transform="translate(315,188)"/>
<path d="M0 0 C2.64 0 5.28 0 8 0 C8 0.33 8 0.66 8 1 C7.21625 1.061875 6.4325 1.12375 5.625 1.1875 C4.75875 1.455625 3.8925 1.72375 3 2 C1.62533375 4.47636012 1.62533375 4.47636012 1 7 C-1 4 -1 4 -0.625 1.8125 C-0.41875 1.214375 -0.2125 0.61625 0 0 Z " fill="#4947AA" transform="translate(246,101)"/>
<path d="M0 0 C2.475 0.99 2.475 0.99 5 2 C5 2.99 5 3.98 5 5 C3.35 4.67 1.7 4.34 0 4 C0 2.68 0 1.36 0 0 Z " fill="#ECE8FD" transform="translate(267,203)"/>
<path d="M0 0 C0.99 0 1.98 0 3 0 C4.4606285 2.64738916 5 3.89448334 5 7 C3.02 5.35 1.04 3.7 -1 2 C-0.67 1.34 -0.34 0.68 0 0 Z " fill="#5755B6" transform="translate(269,200)"/>
<path d="M0 0 C1.98 1.65 3.96 3.3 6 5 C5.01 5.495 5.01 5.495 4 6 C3.01 5.67 2.02 5.34 1 5 C0.67 5.66 0.34 6.32 0 7 C0 4.69 0 2.38 0 0 Z " fill="#6663D1" transform="translate(260,112)"/>
<path d="M0 0 C3.375 0.6875 3.375 0.6875 7 2 C8.2265625 4.58203125 8.2265625 4.58203125 9 7 C7.4972763 6.02501855 5.99788037 5.04490611 4.5 4.0625 C3.6646875 3.51722656 2.829375 2.97195312 1.96875 2.41015625 C1.3190625 1.94480469 0.669375 1.47945312 0 1 C0 0.67 0 0.34 0 0 Z " fill="#5A56B2" transform="translate(317,241)"/>
<path d="M0 0 C0 0.99 0 1.98 0 3 C-2.3125 5.25 -2.3125 5.25 -5 7 C-5.99 6.67 -6.98 6.34 -8 6 C-5.36 4.02 -2.72 2.04 0 0 Z " fill="#EBEBFE" transform="translate(170,169)"/>
<path d="M0 0 C0.99 0.33 1.98 0.66 3 1 C-0.465 3.97 -0.465 3.97 -4 7 C-3.04065919 3.16263678 -2.76390737 2.40339772 0 0 Z " fill="#E1E0FC" transform="translate(226,121)"/>
<path d="M0 0 C0.33 0.66 0.66 1.32 1 2 C2.98 1.67 4.96 1.34 7 1 C5.3125 2.5625 5.3125 2.5625 3 4 C0.25 3.6875 0.25 3.6875 -2 3 C-1.34 2.01 -0.68 1.02 0 0 Z " fill="#3E3EA0" transform="translate(239,189)"/>
</svg>
