<svg width="19" height="22" viewBox="0 0 19 22" fill="none" xmlns="http://www.w3.org/2000/svg">
<path fill-rule="evenodd" clip-rule="evenodd" d="M5.56299 18.5H1.33771C0.59891 18.5 0 17.9011 0 17.1623V16.2893C0 15.7839 0.20077 15.2992 0.55814 14.9419C1.48135 14.0187 2 12.7665 2 11.4609V8.5C2 4.63401 5.13401 1.5 9 1.5C12.866 1.5 16 4.63401 16 8.5V11.4609C16 12.7665 16.5187 14.0187 17.4419 14.9419C17.7992 15.2992 18 15.7839 18 16.2893V17.1623C18 17.9011 17.4011 18.5 16.6623 18.5H12.437C12.437 18.8565 12.4254 19.5363 12.0669 20.1873C11.4734 21.2646 10.3236 22 9 22C7.6763 22 6.52655 21.2646 5.93311 20.1873C5.57454 19.5363 5.56299 18.8565 5.56299 18.5ZM16.3812 16.0025C16.4573 16.0786 16.5 16.1818 16.5 16.2893V17H1.5V16.2893C1.5 16.1818 1.54273 16.0786 1.6188 16.0025C2.82331 14.798 3.5 13.1643 3.5 11.4609V8.5C3.5 5.46243 5.96244 3 9 3C12.0376 3 14.5 5.46243 14.5 8.5V11.4609C14.5 13.1643 15.1767 14.798 16.3812 16.0025ZM10.937 18.5H7.063C7.063 18.832 7.0868 19.1728 7.247 19.4636C7.3587 19.6665 7.5047 19.8479 7.6771 20C8.0296 20.3112 8.4928 20.5 9 20.5C9.5072 20.5 9.9703 20.3112 10.3229 20C10.4953 19.8479 10.6412 19.6665 10.753 19.4636C10.9132 19.1728 10.937 18.832 10.937 18.5Z" fill="black"/>
<circle cx="15" cy="4.5" r="3.5" fill="#D34645" stroke="white"/>
</svg>
