<svg xmlns="http://www.w3.org/2000/svg" width="20" height="20" viewBox="0 0 20 20" fill="none">
  <path d="M19.579 9.31122L18.0422 7.68904C17.4737 7.089 16.5264 7.089 15.9579 7.68904L12.9895 10.8001C12.2947 9.22221 10.9895 8.02229 9.36839 7.55555C10.2526 6.77769 10.8211 5.59995 10.8211 4.28888C10.8211 1.93337 8.98951 0 6.75789 0C4.52626 0 2.69471 1.93329 2.69471 4.28888C2.69471 5.59995 3.26317 6.75555 4.14739 7.55555C1.76824 8.24456 0 10.5778 0 13.3333V15.2666C0 15.6222 0.27373 15.8888 0.589476 15.8888H8.56846L7.89484 19.2445C7.8527 19.4444 7.91584 19.6667 8.06328 19.8222C8.16858 19.9333 8.33702 20 8.4843 20C8.52645 20 8.56845 20 8.6106 19.9778L12.1474 19.1778C12.2527 19.1557 12.358 19.089 12.4421 19L19.579 11.4667C19.8527 11.1778 20 10.7779 20 10.3778C20.0001 9.97786 19.8526 9.60015 19.579 9.31122ZM10.5053 15.1779L15.3053 10.1112L17.2421 12.1557L12.4421 17.2223L10.5053 15.1779ZM6.75789 1.24456C8.33684 1.24456 9.62106 2.60012 9.62106 4.26678C9.62106 5.93345 8.33684 7.289 6.75789 7.289C5.17893 7.289 3.89472 5.93345 3.89472 4.26678C3.89472 2.60012 5.17893 1.24456 6.75789 1.24456ZM1.19997 13.3334C1.19997 10.7113 3.2211 8.57789 5.70525 8.57789H7.81052C9.76835 8.57789 11.4316 9.9113 12.0632 11.7779L9.34729 14.6224H1.19989L1.19997 13.3334ZM9.74737 16.1557L11.5369 18.0447L9.26323 18.5557L9.74737 16.1557ZM18.7158 10.6001L18.0842 11.2669L16.1474 9.22241L16.779 8.55571C16.8843 8.44456 17.0527 8.44456 17.179 8.55571L18.7158 10.1779C18.779 10.2445 18.8 10.3335 18.8 10.3779C18.8 10.4223 18.8 10.5335 18.7158 10.6001Z" fill="white"/>
</svg>