<svg xmlns="http://www.w3.org/2000/svg" width="24" height="24" viewBox="0 0 24 24" fill="none">
  <path d="M9.65901 6.26423C7.36026 6.26423 5.4946 8.12988 5.4946 10.4286C5.4946 12.7274 7.36026 14.593 9.65901 14.593C11.9578 14.593 13.8234 12.7274 13.8234 10.4286C13.8234 8.12988 11.9578 6.26423 9.65901 6.26423ZM1.3302 11.2615H2.99596C3.45404 11.2615 3.82884 10.8867 3.82884 10.4286C3.82884 9.97055 3.45404 9.59575 2.99596 9.59575H1.3302C0.872111 9.59575 0.497314 9.97055 0.497314 10.4286C0.497314 10.8867 0.872111 11.2615 1.3302 11.2615ZM16.3221 11.2615H17.9878C18.4459 11.2615 18.8207 10.8867 18.8207 10.4286C18.8207 9.97055 18.4459 9.59575 17.9878 9.59575H16.3221C15.864 9.59575 15.4892 9.97055 15.4892 10.4286C15.4892 10.8867 15.864 11.2615 16.3221 11.2615ZM8.82613 2.09982V3.76558C8.82613 4.22367 9.20092 4.59846 9.65901 4.59846C10.1171 4.59846 10.4919 4.22367 10.4919 3.76558V2.09982C10.4919 1.64173 10.1171 1.26694 9.65901 1.26694C9.20092 1.26694 8.82613 1.64173 8.82613 2.09982ZM8.82613 17.0917V18.7574C8.82613 19.2155 9.20092 19.5903 9.65901 19.5903C10.1171 19.5903 10.4919 19.2155 10.4919 18.7574V17.0917C10.4919 16.6336 10.1171 16.2588 9.65901 16.2588C9.20092 16.2588 8.82613 16.6336 8.82613 17.0917ZM4.65339 4.24865C4.57634 4.17144 4.48482 4.11018 4.38406 4.06839C4.2833 4.02659 4.17529 4.00508 4.06621 4.00508C3.95713 4.00508 3.84912 4.02659 3.74836 4.06839C3.64761 4.11018 3.55608 4.17144 3.47903 4.24865C3.40182 4.32571 3.34056 4.41723 3.29877 4.51799C3.25697 4.61874 3.23546 4.72675 3.23546 4.83583C3.23546 4.94491 3.25697 5.05293 3.29877 5.15368C3.34056 5.25444 3.40182 5.34596 3.47903 5.42301L4.36188 6.30587C4.68671 6.63069 5.21975 6.63069 5.53625 6.30587C5.85274 5.98105 5.86107 5.448 5.53625 5.13151L4.65339 4.24865ZM14.9561 14.5514C14.8791 14.4742 14.7876 14.4129 14.6868 14.3711C14.586 14.3293 14.478 14.3078 14.369 14.3078C14.2599 14.3078 14.1519 14.3293 14.0511 14.3711C13.9503 14.4129 13.8588 14.4742 13.7818 14.5514C13.7046 14.6284 13.6433 14.72 13.6015 14.8207C13.5597 14.9215 13.5382 15.0295 13.5382 15.1386C13.5382 15.2477 13.5597 15.3557 13.6015 15.4564C13.6433 15.5572 13.7046 15.6487 13.7818 15.7258L14.6646 16.6086C14.9894 16.9334 15.5225 16.9334 15.839 16.6086C15.9162 16.5316 15.9775 16.44 16.0193 16.3393C16.061 16.2385 16.0826 16.1305 16.0826 16.0214C16.0826 15.9123 16.061 15.8043 16.0193 15.7036C15.9775 15.6028 15.9162 15.5113 15.839 15.4342L14.9561 14.5514ZM15.839 5.42301C15.9162 5.34596 15.9775 5.25444 16.0193 5.15368C16.061 5.05293 16.0826 4.94491 16.0826 4.83583C16.0826 4.72675 16.061 4.61874 16.0193 4.51799C15.9775 4.41723 15.9162 4.32571 15.839 4.24865C15.7619 4.17144 15.6704 4.11018 15.5697 4.06839C15.4689 4.02659 15.3609 4.00508 15.2518 4.00508C15.1427 4.00508 15.0347 4.02659 14.934 4.06839C14.8332 4.11018 14.7417 4.17144 14.6646 4.24865L13.7818 5.13151C13.4569 5.45633 13.4569 5.98937 13.7818 6.30587C14.1066 6.62236 14.6396 6.63069 14.9561 6.30587L15.839 5.42301ZM5.53625 15.7258C5.61346 15.6487 5.67471 15.5572 5.71651 15.4564C5.7583 15.3557 5.77982 15.2477 5.77982 15.1386C5.77982 15.0295 5.7583 14.9215 5.71651 14.8207C5.67471 14.72 5.61346 14.6284 5.53625 14.5514C5.45919 14.4742 5.36767 14.4129 5.26691 14.3711C5.16616 14.3293 5.05815 14.3078 4.94907 14.3078C4.83998 14.3078 4.73197 14.3293 4.63122 14.3711C4.53046 14.4129 4.43894 14.4742 4.36188 14.5514L3.47903 15.4342C3.15421 15.7591 3.15421 16.2921 3.47903 16.6086C3.80385 16.9251 4.3369 16.9334 4.65339 16.6086L5.53625 15.7258Z" fill="#0052B4"/>
  
</svg>