<?xml version="1.0" standalone="no"?>
<!DOCTYPE svg PUBLIC "-//W3C//DTD SVG 20010904//EN"
 "http://www.w3.org/TR/2001/REC-SVG-20010904/DTD/svg10.dtd">
<svg version="1.0" xmlns="http://www.w3.org/2000/svg"
 width="980.000000pt" height="752.000000pt" viewBox="0 0 980.000000 752.000000"
 preserveAspectRatio="xMidYMid meet">

<g transform="translate(0.000000,752.000000) scale(0.100000,-0.100000)"
fill="#fff" stroke="none">
<path d="M5317 7495 c-729 -92 -1378 -487 -1809 -1101 -63 -90 -189 -301 -201
-337 -1 -5 -48 21 -102 59 -274 185 -543 258 -825 221 -159 -20 -277 -54 -415
-121 -367 -178 -622 -506 -706 -909 -21 -103 -30 -300 -16 -343 7 -19 0 -24
-55 -44 -87 -31 -263 -120 -350 -176 -198 -127 -407 -329 -528 -511 -321 -479
-395 -1033 -211 -1583 202 -603 730 -1070 1356 -1198 191 -39 288 -42 1603
-42 l1272 0 0 -700 0 -700 805 0 805 0 0 700 0 700 1048 0 c1079 0 1238 5
1414 41 446 90 852 368 1112 759 250 375 342 871 245 1315 -151 698 -744 1238
-1470 1339 l-46 7 -6 142 c-12 251 -50 454 -133 707 -59 179 -164 405 -259
555 -359 570 -927 987 -1570 1153 -225 58 -346 74 -610 78 -163 2 -275 -1
-348 -11z m483 -506 c996 -90 1787 -857 1910 -1849 13 -109 13 -318 -1 -549
-6 -101 -8 -185 -6 -187 3 -3 110 -7 238 -10 360 -8 518 -45 729 -169 500
-294 732 -904 549 -1449 -140 -417 -468 -712 -916 -823 -61 -15 -180 -17
-1215 -20 l-1148 -4 0 536 0 535 521 0 c320 0 519 4 517 9 -1 6 -390 422 -863
927 -473 504 -883 942 -910 972 l-51 55 -938 -979 -938 -979 526 -3 526 -2 0
-535 0 -536 -1347 4 c-1483 3 -1379 -1 -1573 64 -459 153 -801 558 -877 1037
-23 148 -14 375 22 516 111 443 439 795 870 934 57 18 315 75 391 86 0 0 -15
105 -33 233 -37 267 -39 300 -17 405 64 312 312 554 628 612 95 18 261 8 351
-20 153 -48 300 -146 387 -257 24 -32 106 -147 182 -255 76 -109 141 -198 144
-198 4 0 51 133 105 295 136 406 232 596 417 830 424 535 1134 837 1820 774z"/>
</g>
</svg>
