<svg width="200" height="200" viewBox="0 0 200 200" fill="none" xmlns="http://www.w3.org/2000/svg">
<circle cx="100" cy="100" r="100" fill="#0086FD"/>
<path d="M73.649 86.1328C73.2063 84.4922 72.5553 83.0469 71.6959 81.7969C70.8365 80.5208 69.7818 79.4401 68.5318 78.5547C67.2818 77.6693 65.8495 77.0052 64.235 76.5625C62.6204 76.0937 60.8495 75.8594 58.9225 75.8594C55.0423 75.8594 51.6829 76.7969 48.8443 78.6719C46.0318 80.5469 43.8574 83.2812 42.3209 86.875C40.7844 90.4427 40.0162 94.7786 40.0162 99.8828C40.0162 105.013 40.7584 109.388 42.2428 113.008C43.7272 116.628 45.8756 119.388 48.6881 121.289C51.5006 123.19 54.912 124.141 58.9225 124.141C62.4641 124.141 65.4589 123.568 67.9068 122.422C70.3808 121.25 72.2558 119.596 73.5318 117.461C74.8079 115.326 75.4459 112.812 75.4459 109.922L79.0397 110.352H59.5865V96.25H94.0787V106.836C94.0787 113.997 92.5553 120.13 89.5084 125.234C86.4876 130.339 82.3209 134.258 77.0084 136.992C71.7219 139.727 65.6412 141.094 58.7662 141.094C51.136 141.094 44.4303 139.44 38.649 136.133C32.8678 132.826 28.3626 128.112 25.1334 121.992C21.9042 115.846 20.2896 108.555 20.2896 100.117C20.2896 93.5547 21.2662 87.7344 23.2193 82.6563C25.1725 77.5521 27.8938 73.2292 31.3834 69.6875C34.899 66.1458 38.9615 63.4635 43.5709 61.6406C48.2063 59.8177 53.1933 58.9062 58.5318 58.9062C63.1673 58.9062 67.4772 59.5703 71.4615 60.8984C75.4719 62.2266 79.0136 64.1016 82.0865 66.5234C85.1855 68.9453 87.6985 71.8229 89.6256 75.1563C91.5527 78.4896 92.7506 82.1484 93.2193 86.1328H73.649ZM107.675 140V60H127.011V92.1094H158.535V60H177.831V140H158.535V107.852H127.011V140H107.675Z" fill="white"/>
</svg>
